<svg width="560" height="220" viewBox="0 0 560 220" fill="none" xmlns="http://www.w3.org/2000/svg">
<path d="M0.5 0.5H559.5V219.5H0.5V0.5Z" stroke="#E8E8E8"/>
<path d="M50.498 59H41.1816V57.7012L46.1035 52.2324C46.8327 51.4056 47.334 50.735 47.6074 50.2207C47.8874 49.6999 48.0273 49.1628 48.0273 48.6094C48.0273 47.8672 47.8027 47.2585 47.3535 46.7832C46.9043 46.3079 46.3053 46.0703 45.5566 46.0703C44.6582 46.0703 43.9583 46.3275 43.457 46.8418C42.9622 47.3496 42.7148 48.0592 42.7148 48.9707H40.9082C40.9082 47.6621 41.3281 46.6042 42.168 45.7969C43.0143 44.9896 44.1439 44.5859 45.5566 44.5859C46.8783 44.5859 47.9232 44.9342 48.6914 45.6309C49.4596 46.321 49.8438 47.2422 49.8438 48.3945C49.8438 49.7943 48.9518 51.4609 47.168 53.3945L43.3594 57.5254H50.498V59ZM52.6367 58.0527C52.6367 57.7402 52.7279 57.4798 52.9102 57.2715C53.099 57.0632 53.3789 56.959 53.75 56.959C54.1211 56.959 54.401 57.0632 54.5898 57.2715C54.7852 57.4798 54.8828 57.7402 54.8828 58.0527C54.8828 58.3522 54.7852 58.6029 54.5898 58.8047C54.401 59.0065 54.1211 59.1074 53.75 59.1074C53.3789 59.1074 53.099 59.0065 52.9102 58.8047C52.7279 58.6029 52.6367 58.3522 52.6367 58.0527ZM68.3301 53.248H64.9902V59H63.1055V44.7812H67.8125C69.4141 44.7812 70.6445 45.1458 71.5039 45.875C72.3698 46.6042 72.8027 47.6654 72.8027 49.0586C72.8027 49.944 72.5618 50.7155 72.0801 51.373C71.6048 52.0306 70.9408 52.5221 70.0879 52.8477L73.4277 58.8828V59H71.416L68.3301 53.248ZM64.9902 51.7148H67.8711C68.8021 51.7148 69.541 51.474 70.0879 50.9922C70.6413 50.5104 70.918 49.8659 70.918 49.0586C70.918 48.1797 70.6543 47.5059 70.127 47.0371C69.6061 46.5684 68.8509 46.3307 67.8613 46.3242H64.9902V51.7148ZM79.541 59.1953C78.1087 59.1953 76.9434 58.7266 76.0449 57.7891C75.1465 56.8451 74.6973 55.5853 74.6973 54.0098V53.6777C74.6973 52.6296 74.8958 51.6953 75.293 50.875C75.6966 50.0482 76.2565 49.4036 76.9727 48.9414C77.6953 48.4727 78.4766 48.2383 79.3164 48.2383C80.6901 48.2383 81.7578 48.6908 82.5195 49.5957C83.2812 50.5007 83.6621 51.7962 83.6621 53.4824V54.2344H76.5039C76.5299 55.276 76.8327 56.1191 77.4121 56.7637C77.998 57.4017 78.7402 57.7207 79.6387 57.7207C80.2767 57.7207 80.8171 57.5905 81.2598 57.3301C81.7025 57.0697 82.0898 56.7246 82.4219 56.2949L83.5254 57.1543C82.64 58.515 81.3118 59.1953 79.541 59.1953ZM79.3164 49.7227C78.5872 49.7227 77.9753 49.9896 77.4805 50.5234C76.9857 51.0508 76.6797 51.793 76.5625 52.75H81.8555V52.6133C81.8034 51.6953 81.556 50.9857 81.1133 50.4844C80.6706 49.9766 80.0716 49.7227 79.3164 49.7227ZM85.3223 53.6289C85.3223 51.9688 85.7031 50.6569 86.4648 49.6934C87.2266 48.7233 88.2487 48.2383 89.5312 48.2383C90.7812 48.2383 91.7676 48.6582 92.4902 49.498L92.5684 48.4336H94.2285V63.0625H92.4219V58.0234C91.6927 58.8047 90.7227 59.1953 89.5117 59.1953C88.2357 59.1953 87.2168 58.7005 86.4551 57.7109C85.6999 56.7148 85.3223 55.3965 85.3223 53.7559V53.6289ZM87.1289 53.834C87.1289 55.0449 87.3828 55.9954 87.8906 56.6855C88.4049 57.3757 89.0951 57.7207 89.9609 57.7207C91.0352 57.7207 91.8555 57.2454 92.4219 56.2949V51.1191C91.849 50.1882 91.0352 49.7227 89.9805 49.7227C89.1081 49.7227 88.4147 50.071 87.9004 50.7676C87.3861 51.4577 87.1289 52.4798 87.1289 53.834ZM103.652 57.9551C102.949 58.7819 101.917 59.1953 100.557 59.1953C99.4303 59.1953 98.571 58.8698 97.9785 58.2188C97.3926 57.5612 97.0964 56.5911 97.0898 55.3086V48.4336H98.8965V55.2598C98.8965 56.8613 99.5475 57.6621 100.85 57.6621C102.23 57.6621 103.148 57.1478 103.604 56.1191V48.4336H105.41V59H103.691L103.652 57.9551ZM110.127 59H108.32V48.4336H110.127V59ZM108.174 45.6309C108.174 45.3379 108.262 45.0905 108.438 44.8887C108.62 44.6868 108.887 44.5859 109.238 44.5859C109.59 44.5859 109.857 44.6868 110.039 44.8887C110.221 45.0905 110.312 45.3379 110.312 45.6309C110.312 45.9238 110.221 46.168 110.039 46.3633C109.857 46.5586 109.59 46.6562 109.238 46.6562C108.887 46.6562 108.62 46.5586 108.438 46.3633C108.262 46.168 108.174 45.9238 108.174 45.6309ZM118.135 50.0547C117.861 50.0091 117.565 49.9863 117.246 49.9863C116.061 49.9863 115.257 50.4909 114.834 51.5V59H113.027V48.4336H114.785L114.814 49.6543C115.407 48.7103 116.247 48.2383 117.334 48.2383C117.686 48.2383 117.952 48.2839 118.135 48.375V50.0547ZM123.994 59.1953C122.562 59.1953 121.396 58.7266 120.498 57.7891C119.6 56.8451 119.15 55.5853 119.15 54.0098V53.6777C119.15 52.6296 119.349 51.6953 119.746 50.875C120.15 50.0482 120.71 49.4036 121.426 48.9414C122.148 48.4727 122.93 48.2383 123.77 48.2383C125.143 48.2383 126.211 48.6908 126.973 49.5957C127.734 50.5007 128.115 51.7962 128.115 53.4824V54.2344H120.957C120.983 55.276 121.286 56.1191 121.865 56.7637C122.451 57.4017 123.193 57.7207 124.092 57.7207C124.73 57.7207 125.27 57.5905 125.713 57.3301C126.156 57.0697 126.543 56.7246 126.875 56.2949L127.979 57.1543C127.093 58.515 125.765 59.1953 123.994 59.1953ZM123.77 49.7227C123.04 49.7227 122.428 49.9896 121.934 50.5234C121.439 51.0508 121.133 51.793 121.016 52.75H126.309V52.6133C126.257 51.6953 126.009 50.9857 125.566 50.4844C125.124 49.9766 124.525 49.7227 123.77 49.7227ZM131.914 48.4336L131.963 49.6055C132.738 48.694 133.783 48.2383 135.098 48.2383C136.576 48.2383 137.581 48.8047 138.115 49.9375C138.467 49.4297 138.923 49.0195 139.482 48.707C140.049 48.3945 140.716 48.2383 141.484 48.2383C143.802 48.2383 144.98 49.4655 145.02 51.9199V59H143.213V52.0273C143.213 51.2721 143.04 50.709 142.695 50.3379C142.35 49.9603 141.771 49.7715 140.957 49.7715C140.286 49.7715 139.73 49.9733 139.287 50.377C138.844 50.7741 138.587 51.3112 138.516 51.9883V59H136.699V52.0762C136.699 50.5397 135.947 49.7715 134.443 49.7715C133.258 49.7715 132.448 50.276 132.012 51.2852V59H130.205V48.4336H131.914ZM152.139 59.1953C150.706 59.1953 149.541 58.7266 148.643 57.7891C147.744 56.8451 147.295 55.5853 147.295 54.0098V53.6777C147.295 52.6296 147.493 51.6953 147.891 50.875C148.294 50.0482 148.854 49.4036 149.57 48.9414C150.293 48.4727 151.074 48.2383 151.914 48.2383C153.288 48.2383 154.355 48.6908 155.117 49.5957C155.879 50.5007 156.26 51.7962 156.26 53.4824V54.2344H149.102C149.128 55.276 149.43 56.1191 150.01 56.7637C150.596 57.4017 151.338 57.7207 152.236 57.7207C152.874 57.7207 153.415 57.5905 153.857 57.3301C154.3 57.0697 154.688 56.7246 155.02 56.2949L156.123 57.1543C155.238 58.515 153.91 59.1953 152.139 59.1953ZM151.914 49.7227C151.185 49.7227 150.573 49.9896 150.078 50.5234C149.583 51.0508 149.277 51.793 149.16 52.75H154.453V52.6133C154.401 51.6953 154.154 50.9857 153.711 50.4844C153.268 49.9766 152.669 49.7227 151.914 49.7227ZM160.068 48.4336L160.127 49.7617C160.934 48.7461 161.989 48.2383 163.291 48.2383C165.524 48.2383 166.65 49.498 166.67 52.0176V59H164.863V52.0078C164.857 51.2461 164.681 50.6829 164.336 50.3184C163.997 49.9538 163.467 49.7715 162.744 49.7715C162.158 49.7715 161.644 49.9277 161.201 50.2402C160.758 50.5527 160.413 50.9629 160.166 51.4707V59H158.359V48.4336H160.068ZM171.846 45.875V48.4336H173.818V49.8301H171.846V56.3828C171.846 56.806 171.934 57.125 172.109 57.3398C172.285 57.5482 172.585 57.6523 173.008 57.6523C173.216 57.6523 173.503 57.6133 173.867 57.5352V59C173.392 59.1302 172.93 59.1953 172.48 59.1953C171.673 59.1953 171.064 58.9512 170.654 58.4629C170.244 57.9746 170.039 57.2812 170.039 56.3828V49.8301H168.115V48.4336H170.039V45.875H171.846ZM182.09 56.1973C182.09 55.709 181.904 55.3314 181.533 55.0645C181.169 54.791 180.527 54.5566 179.609 54.3613C178.698 54.166 177.972 53.9316 177.432 53.6582C176.898 53.3848 176.501 53.0592 176.24 52.6816C175.986 52.304 175.859 51.8548 175.859 51.334C175.859 50.4681 176.224 49.7357 176.953 49.1367C177.689 48.5378 178.626 48.2383 179.766 48.2383C180.964 48.2383 181.934 48.5475 182.676 49.166C183.424 49.7845 183.799 50.5755 183.799 51.5391H181.982C181.982 51.0443 181.771 50.6178 181.348 50.2598C180.931 49.9017 180.404 49.7227 179.766 49.7227C179.108 49.7227 178.594 49.8659 178.223 50.1523C177.852 50.4388 177.666 50.8132 177.666 51.2754C177.666 51.7116 177.839 52.0404 178.184 52.2617C178.529 52.4831 179.15 52.6947 180.049 52.8965C180.954 53.0983 181.686 53.3392 182.246 53.6191C182.806 53.8991 183.219 54.2376 183.486 54.6348C183.76 55.0254 183.896 55.5039 183.896 56.0703C183.896 57.0143 183.519 57.7728 182.764 58.3457C182.008 58.9121 181.029 59.1953 179.824 59.1953C178.978 59.1953 178.229 59.0456 177.578 58.7461C176.927 58.4466 176.416 58.0299 176.045 57.4961C175.68 56.9557 175.498 56.373 175.498 55.748H177.305C177.337 56.3535 177.578 56.8353 178.027 57.1934C178.483 57.5449 179.082 57.7207 179.824 57.7207C180.508 57.7207 181.055 57.584 181.465 57.3105C181.882 57.0306 182.09 56.6595 182.09 56.1973Z" fill="black"/>
<path d="M40.9077 108V100.18H43.4644C44.313 100.18 44.9504 100.355 45.3765 100.706C45.8062 101.057 46.021 101.576 46.021 102.264C46.021 102.629 45.9172 102.953 45.7095 103.236C45.5018 103.515 45.2189 103.732 44.8608 103.886C45.2834 104.004 45.6164 104.229 45.8599 104.562C46.1069 104.892 46.2305 105.286 46.2305 105.744C46.2305 106.446 46.0031 106.997 45.5483 107.398C45.0936 107.799 44.4508 108 43.6201 108H40.9077ZM41.939 104.342V107.157H43.6416C44.1214 107.157 44.4992 107.033 44.7749 106.786C45.0542 106.535 45.1938 106.192 45.1938 105.755C45.1938 104.813 44.6818 104.342 43.6577 104.342H41.939ZM41.939 103.515H43.4966C43.9478 103.515 44.3076 103.402 44.5762 103.177C44.8483 102.951 44.9844 102.645 44.9844 102.258C44.9844 101.829 44.859 101.517 44.6084 101.324C44.3577 101.127 43.9764 101.028 43.4644 101.028H41.939V103.515ZM51.1934 108C51.1361 107.885 51.0895 107.681 51.0537 107.388C50.5918 107.868 50.0404 108.107 49.3994 108.107C48.8265 108.107 48.3556 107.946 47.9868 107.624C47.6216 107.298 47.439 106.886 47.439 106.389C47.439 105.784 47.6681 105.314 48.1265 104.981C48.5884 104.645 49.2365 104.477 50.0708 104.477H51.0376V104.02C51.0376 103.673 50.9338 103.397 50.7261 103.193C50.5184 102.985 50.2122 102.881 49.8076 102.881C49.4531 102.881 49.1559 102.971 48.916 103.15C48.6761 103.329 48.5562 103.546 48.5562 103.8H47.5571C47.5571 103.51 47.6592 103.23 47.8633 102.962C48.071 102.69 48.3503 102.475 48.7012 102.317C49.0557 102.16 49.4442 102.081 49.8667 102.081C50.5363 102.081 51.0609 102.249 51.4404 102.586C51.82 102.919 52.0169 103.379 52.0312 103.966V106.641C52.0312 107.175 52.0993 107.599 52.2354 107.914V108H51.1934ZM49.5444 107.243C49.856 107.243 50.1514 107.162 50.4307 107.001C50.71 106.84 50.9123 106.63 51.0376 106.373V105.18H50.2588C49.0413 105.18 48.4326 105.536 48.4326 106.249C48.4326 106.561 48.5365 106.804 48.7441 106.979C48.9518 107.155 49.2186 107.243 49.5444 107.243ZM56.9727 106.458C56.9727 106.19 56.8706 105.982 56.6665 105.835C56.466 105.685 56.1133 105.556 55.6084 105.449C55.1071 105.341 54.7078 105.212 54.4106 105.062C54.117 104.912 53.8986 104.733 53.7554 104.525C53.6157 104.317 53.5459 104.07 53.5459 103.784C53.5459 103.307 53.7464 102.905 54.1475 102.575C54.5521 102.246 55.0677 102.081 55.6943 102.081C56.3532 102.081 56.8867 102.251 57.2949 102.591C57.7067 102.931 57.9126 103.367 57.9126 103.896H56.9136C56.9136 103.624 56.7972 103.39 56.5645 103.193C56.3353 102.996 56.0452 102.897 55.6943 102.897C55.3327 102.897 55.0498 102.976 54.8457 103.134C54.6416 103.291 54.5396 103.497 54.5396 103.751C54.5396 103.991 54.6344 104.172 54.8242 104.294C55.014 104.416 55.356 104.532 55.8501 104.643C56.3478 104.754 56.7507 104.887 57.0586 105.041C57.3665 105.194 57.5939 105.381 57.7407 105.599C57.8911 105.814 57.9663 106.077 57.9663 106.389C57.9663 106.908 57.7586 107.325 57.3433 107.64C56.9279 107.952 56.389 108.107 55.7266 108.107C55.2611 108.107 54.8493 108.025 54.4912 107.86C54.1331 107.696 53.8521 107.466 53.6479 107.173C53.4474 106.876 53.3472 106.555 53.3472 106.211H54.3408C54.3587 106.544 54.4912 106.809 54.7383 107.006C54.9889 107.2 55.3184 107.296 55.7266 107.296C56.1025 107.296 56.4033 107.221 56.6289 107.071C56.8581 106.917 56.9727 106.713 56.9727 106.458ZM61.6724 108.107C60.8846 108.107 60.2437 107.85 59.7495 107.334C59.2554 106.815 59.0083 106.122 59.0083 105.255V105.073C59.0083 104.496 59.1175 103.982 59.3359 103.531C59.5579 103.076 59.8659 102.722 60.2598 102.468C60.6572 102.21 61.0869 102.081 61.5488 102.081C62.3044 102.081 62.8916 102.33 63.3105 102.828C63.7295 103.325 63.939 104.038 63.939 104.965V105.379H60.002C60.0163 105.952 60.1828 106.416 60.5015 106.77C60.8237 107.121 61.2319 107.296 61.7261 107.296C62.077 107.296 62.3742 107.225 62.6177 107.082C62.8612 106.938 63.0742 106.749 63.2568 106.512L63.8638 106.985C63.3768 107.733 62.6463 108.107 61.6724 108.107ZM61.5488 102.897C61.1478 102.897 60.8112 103.044 60.5391 103.338C60.2669 103.628 60.0986 104.036 60.0342 104.562H62.9453V104.487C62.9167 103.982 62.7806 103.592 62.5371 103.316C62.2936 103.037 61.9642 102.897 61.5488 102.897ZM64.8521 105.046C64.8521 104.154 65.0633 103.438 65.4858 102.897C65.9084 102.353 66.4616 102.081 67.1455 102.081C67.8258 102.081 68.3647 102.314 68.7622 102.779V99.75H69.7559V108H68.8428L68.7944 107.377C68.397 107.864 67.8438 108.107 67.1348 108.107C66.4616 108.107 65.9119 107.832 65.4858 107.28C65.0633 106.729 64.8521 106.009 64.8521 105.121V105.046ZM65.8457 105.159C65.8457 105.818 65.9818 106.333 66.2539 106.706C66.526 107.078 66.902 107.264 67.3818 107.264C68.012 107.264 68.4722 106.981 68.7622 106.416V103.746C68.465 103.198 68.0085 102.924 67.3926 102.924C66.9056 102.924 66.526 103.112 66.2539 103.488C65.9818 103.864 65.8457 104.421 65.8457 105.159ZM73.7681 105.041C73.7681 104.471 73.8791 103.959 74.1011 103.504C74.3267 103.05 74.6382 102.699 75.0356 102.452C75.4367 102.205 75.8932 102.081 76.4053 102.081C77.1966 102.081 77.8358 102.355 78.3228 102.903C78.8133 103.451 79.0586 104.179 79.0586 105.089V105.159C79.0586 105.724 78.9494 106.233 78.731 106.684C78.5161 107.132 78.2064 107.481 77.8018 107.731C77.4007 107.982 76.9388 108.107 76.416 108.107C75.6283 108.107 74.9891 107.833 74.4985 107.286C74.0116 106.738 73.7681 106.013 73.7681 105.11V105.041ZM74.7671 105.159C74.7671 105.803 74.9157 106.321 75.2129 106.711C75.5137 107.101 75.9147 107.296 76.416 107.296C76.9209 107.296 77.3219 107.099 77.6191 106.706C77.9163 106.308 78.0649 105.753 78.0649 105.041C78.0649 104.403 77.9128 103.888 77.6084 103.494C77.3076 103.096 76.9066 102.897 76.4053 102.897C75.9147 102.897 75.519 103.093 75.2183 103.483C74.9175 103.873 74.7671 104.432 74.7671 105.159ZM81.2446 102.188L81.2769 102.919C81.7209 102.36 82.3009 102.081 83.0171 102.081C84.2453 102.081 84.8647 102.774 84.8755 104.16V108H83.8818V104.154C83.8783 103.735 83.7816 103.426 83.5918 103.225C83.4056 103.025 83.1138 102.924 82.7163 102.924C82.394 102.924 82.1112 103.01 81.8677 103.182C81.6242 103.354 81.4344 103.58 81.2983 103.859V108H80.3047V102.188H81.2446ZM91.9116 103.08C91.7612 103.055 91.5983 103.042 91.4229 103.042C90.7712 103.042 90.3289 103.32 90.0962 103.875V108H89.1025V102.188H90.0693L90.0854 102.86C90.4113 102.341 90.8732 102.081 91.4712 102.081C91.6646 102.081 91.8114 102.106 91.9116 102.156V103.08ZM95.1343 108.107C94.3465 108.107 93.7056 107.85 93.2114 107.334C92.7173 106.815 92.4702 106.122 92.4702 105.255V105.073C92.4702 104.496 92.5794 103.982 92.7979 103.531C93.0199 103.076 93.3278 102.722 93.7217 102.468C94.1191 102.21 94.5488 102.081 95.0107 102.081C95.7663 102.081 96.3535 102.33 96.7725 102.828C97.1914 103.325 97.4009 104.038 97.4009 104.965V105.379H93.4639C93.4782 105.952 93.6447 106.416 93.9634 106.77C94.2856 107.121 94.6938 107.296 95.188 107.296C95.5389 107.296 95.8361 107.225 96.0796 107.082C96.3231 106.938 96.5361 106.749 96.7188 106.512L97.3257 106.985C96.8387 107.733 96.1082 108.107 95.1343 108.107ZM95.0107 102.897C94.6097 102.897 94.2731 103.044 94.001 103.338C93.7288 103.628 93.5605 104.036 93.4961 104.562H96.4072V104.487C96.3786 103.982 96.2425 103.592 95.999 103.316C95.7555 103.037 95.4261 102.897 95.0107 102.897ZM101.939 106.458C101.939 106.19 101.837 105.982 101.633 105.835C101.433 105.685 101.08 105.556 100.575 105.449C100.074 105.341 99.6746 105.212 99.3774 105.062C99.0838 104.912 98.8654 104.733 98.7222 104.525C98.5825 104.317 98.5127 104.07 98.5127 103.784C98.5127 103.307 98.7132 102.905 99.1143 102.575C99.5189 102.246 100.035 102.081 100.661 102.081C101.32 102.081 101.854 102.251 102.262 102.591C102.674 102.931 102.879 103.367 102.879 103.896H101.88C101.88 103.624 101.764 103.39 101.531 103.193C101.302 102.996 101.012 102.897 100.661 102.897C100.299 102.897 100.017 102.976 99.8125 103.134C99.6084 103.291 99.5063 103.497 99.5063 103.751C99.5063 103.991 99.6012 104.172 99.791 104.294C99.9808 104.416 100.323 104.532 100.817 104.643C101.315 104.754 101.717 104.887 102.025 105.041C102.333 105.194 102.561 105.381 102.708 105.599C102.858 105.814 102.933 106.077 102.933 106.389C102.933 106.908 102.725 107.325 102.31 107.64C101.895 107.952 101.356 108.107 100.693 108.107C100.228 108.107 99.8161 108.025 99.458 107.86C99.0999 107.696 98.8188 107.466 98.6147 107.173C98.4142 106.876 98.314 106.555 98.314 106.211H99.3076C99.3255 106.544 99.458 106.809 99.7051 107.006C99.9557 107.2 100.285 107.296 100.693 107.296C101.069 107.296 101.37 107.221 101.596 107.071C101.825 106.917 101.939 106.713 101.939 106.458ZM106.639 108.107C105.851 108.107 105.21 107.85 104.716 107.334C104.222 106.815 103.975 106.122 103.975 105.255V105.073C103.975 104.496 104.084 103.982 104.303 103.531C104.525 103.076 104.833 102.722 105.227 102.468C105.624 102.21 106.054 102.081 106.516 102.081C107.271 102.081 107.858 102.33 108.277 102.828C108.696 103.325 108.906 104.038 108.906 104.965V105.379H104.969C104.983 105.952 105.15 106.416 105.468 106.77C105.791 107.121 106.199 107.296 106.693 107.296C107.044 107.296 107.341 107.225 107.584 107.082C107.828 106.938 108.041 106.749 108.224 106.512L108.831 106.985C108.344 107.733 107.613 108.107 106.639 108.107ZM106.516 102.897C106.115 102.897 105.778 103.044 105.506 103.338C105.234 103.628 105.065 104.036 105.001 104.562H107.912V104.487C107.883 103.982 107.747 103.592 107.504 103.316C107.26 103.037 106.931 102.897 106.516 102.897ZM113.648 108C113.591 107.885 113.545 107.681 113.509 107.388C113.047 107.868 112.495 108.107 111.854 108.107C111.282 108.107 110.811 107.946 110.442 107.624C110.077 107.298 109.894 106.886 109.894 106.389C109.894 105.784 110.123 105.314 110.582 104.981C111.043 104.645 111.692 104.477 112.526 104.477H113.493V104.02C113.493 103.673 113.389 103.397 113.181 103.193C112.973 102.985 112.667 102.881 112.263 102.881C111.908 102.881 111.611 102.971 111.371 103.15C111.131 103.329 111.011 103.546 111.011 103.8H110.012C110.012 103.51 110.114 103.23 110.318 102.962C110.526 102.69 110.805 102.475 111.156 102.317C111.511 102.16 111.899 102.081 112.322 102.081C112.991 102.081 113.516 102.249 113.896 102.586C114.275 102.919 114.472 103.379 114.486 103.966V106.641C114.486 107.175 114.554 107.599 114.69 107.914V108H113.648ZM112 107.243C112.311 107.243 112.606 107.162 112.886 107.001C113.165 106.84 113.367 106.63 113.493 106.373V105.18H112.714C111.496 105.18 110.888 105.536 110.888 106.249C110.888 106.561 110.992 106.804 111.199 106.979C111.407 107.155 111.674 107.243 112 107.243ZM118.853 103.08C118.703 103.055 118.54 103.042 118.364 103.042C117.713 103.042 117.27 103.32 117.038 103.875V108H116.044V102.188H117.011L117.027 102.86C117.353 102.341 117.815 102.081 118.413 102.081C118.606 102.081 118.753 102.106 118.853 102.156V103.08ZM121.995 107.296C122.35 107.296 122.659 107.189 122.924 106.974C123.189 106.759 123.336 106.491 123.365 106.168H124.305C124.287 106.501 124.172 106.818 123.961 107.119C123.75 107.42 123.467 107.66 123.112 107.839C122.761 108.018 122.389 108.107 121.995 108.107C121.204 108.107 120.574 107.844 120.104 107.318C119.639 106.788 119.406 106.065 119.406 105.148V104.981C119.406 104.416 119.51 103.913 119.718 103.472C119.925 103.032 120.223 102.69 120.609 102.446C121 102.203 121.46 102.081 121.99 102.081C122.641 102.081 123.182 102.276 123.612 102.667C124.045 103.057 124.276 103.563 124.305 104.187H123.365C123.336 103.811 123.193 103.503 122.935 103.263C122.681 103.019 122.366 102.897 121.99 102.897C121.485 102.897 121.093 103.08 120.813 103.445C120.538 103.807 120.4 104.332 120.4 105.019V105.207C120.4 105.877 120.538 106.392 120.813 106.754C121.089 107.116 121.483 107.296 121.995 107.296ZM126.416 102.892C126.856 102.351 127.429 102.081 128.134 102.081C129.362 102.081 129.982 102.774 129.993 104.16V108H128.999V104.154C128.995 103.735 128.899 103.426 128.709 103.225C128.523 103.025 128.231 102.924 127.833 102.924C127.511 102.924 127.228 103.01 126.985 103.182C126.741 103.354 126.552 103.58 126.416 103.859V108H125.422V99.75H126.416V102.892ZM135.289 108H134.295V102.188H135.289V108ZM134.214 100.647C134.214 100.486 134.263 100.35 134.359 100.239C134.46 100.128 134.606 100.072 134.8 100.072C134.993 100.072 135.14 100.128 135.24 100.239C135.34 100.35 135.391 100.486 135.391 100.647C135.391 100.808 135.34 100.942 135.24 101.05C135.14 101.157 134.993 101.211 134.8 101.211C134.606 101.211 134.46 101.157 134.359 101.05C134.263 100.942 134.214 100.808 134.214 100.647ZM137.824 102.188L137.856 102.919C138.3 102.36 138.88 102.081 139.596 102.081C140.824 102.081 141.444 102.774 141.455 104.16V108H140.461V104.154C140.457 103.735 140.361 103.426 140.171 103.225C139.985 103.025 139.693 102.924 139.295 102.924C138.973 102.924 138.69 103.01 138.447 103.182C138.203 103.354 138.014 103.58 137.877 103.859V108H136.884V102.188H137.824ZM146.337 106.458C146.337 106.19 146.235 105.982 146.031 105.835C145.83 105.685 145.478 105.556 144.973 105.449C144.471 105.341 144.072 105.212 143.775 105.062C143.481 104.912 143.263 104.733 143.12 104.525C142.98 104.317 142.91 104.07 142.91 103.784C142.91 103.307 143.111 102.905 143.512 102.575C143.916 102.246 144.432 102.081 145.059 102.081C145.717 102.081 146.251 102.251 146.659 102.591C147.071 102.931 147.277 103.367 147.277 103.896H146.278C146.278 103.624 146.161 103.39 145.929 103.193C145.7 102.996 145.41 102.897 145.059 102.897C144.697 102.897 144.414 102.976 144.21 103.134C144.006 103.291 143.904 103.497 143.904 103.751C143.904 103.991 143.999 104.172 144.188 104.294C144.378 104.416 144.72 104.532 145.214 104.643C145.712 104.754 146.115 104.887 146.423 105.041C146.731 105.194 146.958 105.381 147.105 105.599C147.255 105.814 147.331 106.077 147.331 106.389C147.331 106.908 147.123 107.325 146.708 107.64C146.292 107.952 145.753 108.107 145.091 108.107C144.625 108.107 144.214 108.025 143.855 107.86C143.497 107.696 143.216 107.466 143.012 107.173C142.812 106.876 142.711 106.555 142.711 106.211H143.705C143.723 106.544 143.855 106.809 144.103 107.006C144.353 107.2 144.683 107.296 145.091 107.296C145.467 107.296 145.768 107.221 145.993 107.071C146.222 106.917 146.337 106.713 146.337 106.458ZM149.705 108H148.711V102.188H149.705V108ZM148.63 100.647C148.63 100.486 148.679 100.35 148.775 100.239C148.876 100.128 149.022 100.072 149.216 100.072C149.409 100.072 149.556 100.128 149.656 100.239C149.757 100.35 149.807 100.486 149.807 100.647C149.807 100.808 149.757 100.942 149.656 101.05C149.556 101.157 149.409 101.211 149.216 101.211C149.022 101.211 148.876 101.157 148.775 101.05C148.679 100.942 148.63 100.808 148.63 100.647ZM151.063 105.046C151.063 104.14 151.273 103.42 151.692 102.887C152.111 102.35 152.666 102.081 153.357 102.081C154.066 102.081 154.619 102.332 155.017 102.833L155.065 102.188H155.973V107.86C155.973 108.612 155.749 109.205 155.301 109.638C154.857 110.071 154.259 110.288 153.507 110.288C153.088 110.288 152.678 110.199 152.277 110.02C151.876 109.84 151.57 109.595 151.359 109.284L151.875 108.688C152.301 109.214 152.822 109.477 153.438 109.477C153.921 109.477 154.297 109.341 154.565 109.069C154.838 108.797 154.974 108.414 154.974 107.919V107.42C154.576 107.878 154.034 108.107 153.346 108.107C152.666 108.107 152.114 107.833 151.692 107.286C151.273 106.738 151.063 105.991 151.063 105.046ZM152.062 105.159C152.062 105.814 152.197 106.33 152.465 106.706C152.734 107.078 153.11 107.264 153.593 107.264C154.22 107.264 154.68 106.979 154.974 106.41V103.757C154.669 103.202 154.213 102.924 153.604 102.924C153.121 102.924 152.743 103.112 152.471 103.488C152.199 103.864 152.062 104.421 152.062 105.159ZM158.47 102.892C158.911 102.351 159.484 102.081 160.189 102.081C161.417 102.081 162.037 102.774 162.047 104.16V108H161.054V104.154C161.05 103.735 160.953 103.426 160.764 103.225C160.577 103.025 160.286 102.924 159.888 102.924C159.566 102.924 159.283 103.01 159.04 103.182C158.796 103.354 158.606 103.58 158.47 103.859V108H157.477V99.75H158.47V102.892ZM164.883 100.781V102.188H165.968V102.957H164.883V106.561C164.883 106.793 164.932 106.969 165.028 107.087C165.125 107.201 165.29 107.259 165.522 107.259C165.637 107.259 165.795 107.237 165.995 107.194V108C165.734 108.072 165.479 108.107 165.232 108.107C164.788 108.107 164.454 107.973 164.228 107.705C164.002 107.436 163.89 107.055 163.89 106.561V102.957H162.832V102.188H163.89V100.781H164.883ZM170.518 106.458C170.518 106.19 170.416 105.982 170.211 105.835C170.011 105.685 169.658 105.556 169.153 105.449C168.652 105.341 168.253 105.212 167.956 105.062C167.662 104.912 167.444 104.733 167.3 104.525C167.161 104.317 167.091 104.07 167.091 103.784C167.091 103.307 167.291 102.905 167.692 102.575C168.097 102.246 168.613 102.081 169.239 102.081C169.898 102.081 170.432 102.251 170.84 102.591C171.252 102.931 171.458 103.367 171.458 103.896H170.458C170.458 103.624 170.342 103.39 170.109 103.193C169.88 102.996 169.59 102.897 169.239 102.897C168.878 102.897 168.595 102.976 168.391 103.134C168.187 103.291 168.084 103.497 168.084 103.751C168.084 103.991 168.179 104.172 168.369 104.294C168.559 104.416 168.901 104.532 169.395 104.643C169.893 104.754 170.296 104.887 170.604 105.041C170.911 105.194 171.139 105.381 171.286 105.599C171.436 105.814 171.511 106.077 171.511 106.389C171.511 106.908 171.304 107.325 170.888 107.64C170.473 107.952 169.934 108.107 169.271 108.107C168.806 108.107 168.394 108.025 168.036 107.86C167.678 107.696 167.397 107.466 167.193 107.173C166.992 106.876 166.892 106.555 166.892 106.211H167.886C167.904 106.544 168.036 106.809 168.283 107.006C168.534 107.2 168.863 107.296 169.271 107.296C169.647 107.296 169.948 107.221 170.174 107.071C170.403 106.917 170.518 106.713 170.518 106.458ZM172.773 109.558L172.209 109.171C172.546 108.702 172.722 108.218 172.736 107.721V106.824H173.708V107.603C173.708 107.964 173.618 108.326 173.439 108.688C173.264 109.049 173.042 109.339 172.773 109.558ZM182.839 106.63L183.956 102.188H184.95L183.258 108H182.452L181.04 103.596L179.665 108H178.859L177.172 102.188H178.161L179.305 106.539L180.658 102.188H181.458L182.839 106.63ZM188.376 108.107C187.589 108.107 186.948 107.85 186.454 107.334C185.959 106.815 185.712 106.122 185.712 105.255V105.073C185.712 104.496 185.822 103.982 186.04 103.531C186.262 103.076 186.57 102.722 186.964 102.468C187.361 102.21 187.791 102.081 188.253 102.081C189.008 102.081 189.596 102.33 190.015 102.828C190.434 103.325 190.643 104.038 190.643 104.965V105.379H186.706C186.72 105.952 186.887 106.416 187.206 106.77C187.528 107.121 187.936 107.296 188.43 107.296C188.781 107.296 189.078 107.225 189.322 107.082C189.565 106.938 189.778 106.749 189.961 106.512L190.568 106.985C190.081 107.733 189.35 108.107 188.376 108.107ZM188.253 102.897C187.852 102.897 187.515 103.044 187.243 103.338C186.971 103.628 186.803 104.036 186.738 104.562H189.649V104.487C189.621 103.982 189.485 103.592 189.241 103.316C188.998 103.037 188.668 102.897 188.253 102.897ZM196.857 107.296C197.212 107.296 197.522 107.189 197.787 106.974C198.052 106.759 198.198 106.491 198.227 106.168H199.167C199.149 106.501 199.035 106.818 198.823 107.119C198.612 107.42 198.329 107.66 197.975 107.839C197.624 108.018 197.251 108.107 196.857 108.107C196.066 108.107 195.436 107.844 194.967 107.318C194.501 106.788 194.269 106.065 194.269 105.148V104.981C194.269 104.416 194.372 103.913 194.58 103.472C194.788 103.032 195.085 102.69 195.472 102.446C195.862 102.203 196.322 102.081 196.852 102.081C197.504 102.081 198.044 102.276 198.474 102.667C198.907 103.057 199.138 103.563 199.167 104.187H198.227C198.198 103.811 198.055 103.503 197.797 103.263C197.543 103.019 197.228 102.897 196.852 102.897C196.347 102.897 195.955 103.08 195.676 103.445C195.4 103.807 195.262 104.332 195.262 105.019V105.207C195.262 105.877 195.4 106.392 195.676 106.754C195.951 107.116 196.345 107.296 196.857 107.296ZM203.872 108C203.815 107.885 203.768 107.681 203.732 107.388C203.271 107.868 202.719 108.107 202.078 108.107C201.505 108.107 201.034 107.946 200.666 107.624C200.3 107.298 200.118 106.886 200.118 106.389C200.118 105.784 200.347 105.314 200.805 104.981C201.267 104.645 201.915 104.477 202.75 104.477H203.716V104.02C203.716 103.673 203.612 103.397 203.405 103.193C203.197 102.985 202.891 102.881 202.486 102.881C202.132 102.881 201.835 102.971 201.595 103.15C201.355 103.329 201.235 103.546 201.235 103.8H200.236C200.236 103.51 200.338 103.23 200.542 102.962C200.75 102.69 201.029 102.475 201.38 102.317C201.734 102.16 202.123 102.081 202.545 102.081C203.215 102.081 203.74 102.249 204.119 102.586C204.499 102.919 204.696 103.379 204.71 103.966V106.641C204.71 107.175 204.778 107.599 204.914 107.914V108H203.872ZM202.223 107.243C202.535 107.243 202.83 107.162 203.109 107.001C203.389 106.84 203.591 106.63 203.716 106.373V105.18H202.938C201.72 105.18 201.111 105.536 201.111 106.249C201.111 106.561 201.215 106.804 201.423 106.979C201.631 107.155 201.897 107.243 202.223 107.243ZM207.208 102.188L207.24 102.919C207.684 102.36 208.264 102.081 208.98 102.081C210.208 102.081 210.828 102.774 210.838 104.16V108H209.845V104.154C209.841 103.735 209.744 103.426 209.555 103.225C209.368 103.025 209.077 102.924 208.679 102.924C208.357 102.924 208.074 103.01 207.831 103.182C207.587 103.354 207.397 103.58 207.261 103.859V108H206.268V102.188H207.208ZM216.059 102.892C216.5 102.351 217.072 102.081 217.778 102.081C219.006 102.081 219.625 102.774 219.636 104.16V108H218.643V104.154C218.639 103.735 218.542 103.426 218.353 103.225C218.166 103.025 217.875 102.924 217.477 102.924C217.155 102.924 216.872 103.01 216.628 103.182C216.385 103.354 216.195 103.58 216.059 103.859V108H215.065V99.75H216.059V102.892ZM223.536 108.107C222.748 108.107 222.107 107.85 221.613 107.334C221.119 106.815 220.872 106.122 220.872 105.255V105.073C220.872 104.496 220.981 103.982 221.199 103.531C221.421 103.076 221.729 102.722 222.123 102.468C222.521 102.21 222.95 102.081 223.412 102.081C224.168 102.081 224.755 102.33 225.174 102.828C225.593 103.325 225.802 104.038 225.802 104.965V105.379H221.865C221.88 105.952 222.046 106.416 222.365 106.77C222.687 107.121 223.095 107.296 223.589 107.296C223.94 107.296 224.237 107.225 224.481 107.082C224.724 106.938 224.938 106.749 225.12 106.512L225.727 106.985C225.24 107.733 224.51 108.107 223.536 108.107ZM223.412 102.897C223.011 102.897 222.674 103.044 222.402 103.338C222.13 103.628 221.962 104.036 221.897 104.562H224.809V104.487C224.78 103.982 224.644 103.592 224.4 103.316C224.157 103.037 223.827 102.897 223.412 102.897ZM228.037 108H227.043V99.75H228.037V108ZM234.541 105.159C234.541 106.043 234.339 106.756 233.934 107.296C233.529 107.837 232.982 108.107 232.291 108.107C231.585 108.107 231.03 107.884 230.625 107.436V110.234H229.632V102.188H230.54L230.588 102.833C230.993 102.332 231.555 102.081 232.274 102.081C232.973 102.081 233.524 102.344 233.929 102.871C234.337 103.397 234.541 104.129 234.541 105.067V105.159ZM233.547 105.046C233.547 104.391 233.408 103.873 233.128 103.494C232.849 103.114 232.466 102.924 231.979 102.924C231.377 102.924 230.926 103.191 230.625 103.725V106.501C230.923 107.031 231.377 107.296 231.99 107.296C232.466 107.296 232.844 107.108 233.123 106.732C233.406 106.353 233.547 105.791 233.547 105.046ZM240.438 106.544L241.792 102.188H242.855L240.519 108.897C240.157 109.864 239.583 110.347 238.795 110.347L238.607 110.331L238.236 110.261V109.456L238.505 109.477C238.841 109.477 239.103 109.409 239.289 109.273C239.479 109.137 239.635 108.888 239.756 108.526L239.977 107.936L237.903 102.188H238.988L240.438 106.544ZM243.398 105.041C243.398 104.471 243.509 103.959 243.731 103.504C243.957 103.05 244.268 102.699 244.666 102.452C245.067 102.205 245.523 102.081 246.035 102.081C246.826 102.081 247.466 102.355 247.953 102.903C248.443 103.451 248.688 104.179 248.688 105.089V105.159C248.688 105.724 248.579 106.233 248.361 106.684C248.146 107.132 247.836 107.481 247.432 107.731C247.031 107.982 246.569 108.107 246.046 108.107C245.258 108.107 244.619 107.833 244.128 107.286C243.641 106.738 243.398 106.013 243.398 105.11V105.041ZM244.397 105.159C244.397 105.803 244.546 106.321 244.843 106.711C245.144 107.101 245.545 107.296 246.046 107.296C246.551 107.296 246.952 107.099 247.249 106.706C247.546 106.308 247.695 105.753 247.695 105.041C247.695 104.403 247.543 103.888 247.238 103.494C246.938 103.096 246.536 102.897 246.035 102.897C245.545 102.897 245.149 103.093 244.848 103.483C244.547 103.873 244.397 104.432 244.397 105.159ZM253.522 107.425C253.136 107.88 252.568 108.107 251.82 108.107C251.2 108.107 250.728 107.928 250.402 107.57C250.08 107.209 249.917 106.675 249.913 105.97V102.188H250.907V105.943C250.907 106.824 251.265 107.264 251.981 107.264C252.74 107.264 253.245 106.981 253.496 106.416V102.188H254.489V108H253.544L253.522 107.425ZM260.081 100.781V102.188H261.166V102.957H260.081V106.561C260.081 106.793 260.129 106.969 260.226 107.087C260.322 107.201 260.487 107.259 260.72 107.259C260.834 107.259 260.992 107.237 261.192 107.194V108C260.931 108.072 260.677 108.107 260.43 108.107C259.986 108.107 259.651 107.973 259.425 107.705C259.2 107.436 259.087 107.055 259.087 106.561V102.957H258.029V102.188H259.087V100.781H260.081ZM261.96 105.041C261.96 104.471 262.071 103.959 262.293 103.504C262.519 103.05 262.831 102.699 263.228 102.452C263.629 102.205 264.086 102.081 264.598 102.081C265.389 102.081 266.028 102.355 266.515 102.903C267.006 103.451 267.251 104.179 267.251 105.089V105.159C267.251 105.724 267.142 106.233 266.923 106.684C266.708 107.132 266.399 107.481 265.994 107.731C265.593 107.982 265.131 108.107 264.608 108.107C263.821 108.107 263.181 107.833 262.691 107.286C262.204 106.738 261.96 106.013 261.96 105.11V105.041ZM262.959 105.159C262.959 105.803 263.108 106.321 263.405 106.711C263.706 107.101 264.107 107.296 264.608 107.296C265.113 107.296 265.514 107.099 265.812 106.706C266.109 106.308 266.257 105.753 266.257 105.041C266.257 104.403 266.105 103.888 265.801 103.494C265.5 103.096 265.099 102.897 264.598 102.897C264.107 102.897 263.711 103.093 263.411 103.483C263.11 103.873 262.959 104.432 262.959 105.159ZM270.984 105.046C270.984 104.154 271.195 103.438 271.618 102.897C272.04 102.353 272.593 102.081 273.277 102.081C273.958 102.081 274.497 102.314 274.894 102.779V99.75H275.888V108H274.975L274.926 107.377C274.529 107.864 273.976 108.107 273.267 108.107C272.593 108.107 272.044 107.832 271.618 107.28C271.195 106.729 270.984 106.009 270.984 105.121V105.046ZM271.978 105.159C271.978 105.818 272.114 106.333 272.386 106.706C272.658 107.078 273.034 107.264 273.514 107.264C274.144 107.264 274.604 106.981 274.894 106.416V103.746C274.597 103.198 274.14 102.924 273.524 102.924C273.037 102.924 272.658 103.112 272.386 103.488C272.114 103.864 271.978 104.421 271.978 105.159ZM279.846 108.107C279.058 108.107 278.417 107.85 277.923 107.334C277.429 106.815 277.182 106.122 277.182 105.255V105.073C277.182 104.496 277.291 103.982 277.51 103.531C277.732 103.076 278.04 102.722 278.434 102.468C278.831 102.21 279.261 102.081 279.723 102.081C280.478 102.081 281.065 102.33 281.484 102.828C281.903 103.325 282.113 104.038 282.113 104.965V105.379H278.176C278.19 105.952 278.357 106.416 278.675 106.77C278.998 107.121 279.406 107.296 279.9 107.296C280.251 107.296 280.548 107.225 280.792 107.082C281.035 106.938 281.248 106.749 281.431 106.512L282.038 106.985C281.551 107.733 280.82 108.107 279.846 108.107ZM279.723 102.897C279.322 102.897 278.985 103.044 278.713 103.338C278.441 103.628 278.272 104.036 278.208 104.562H281.119V104.487C281.09 103.982 280.954 103.592 280.711 103.316C280.467 103.037 280.138 102.897 279.723 102.897ZM284.616 100.781V102.188H285.701V102.957H284.616V106.561C284.616 106.793 284.664 106.969 284.761 107.087C284.857 107.201 285.022 107.259 285.255 107.259C285.369 107.259 285.527 107.237 285.728 107.194V108C285.466 108.072 285.212 108.107 284.965 108.107C284.521 108.107 284.186 107.973 283.96 107.705C283.735 107.436 283.622 107.055 283.622 106.561V102.957H282.564V102.188H283.622V100.781H284.616ZM289.278 108.107C288.49 108.107 287.849 107.85 287.355 107.334C286.861 106.815 286.614 106.122 286.614 105.255V105.073C286.614 104.496 286.723 103.982 286.941 103.531C287.163 103.076 287.471 102.722 287.865 102.468C288.263 102.21 288.692 102.081 289.154 102.081C289.91 102.081 290.497 102.33 290.916 102.828C291.335 103.325 291.544 104.038 291.544 104.965V105.379H287.607C287.622 105.952 287.788 106.416 288.107 106.77C288.429 107.121 288.837 107.296 289.332 107.296C289.682 107.296 289.98 107.225 290.223 107.082C290.467 106.938 290.68 106.749 290.862 106.512L291.469 106.985C290.982 107.733 290.252 108.107 289.278 108.107ZM289.154 102.897C288.753 102.897 288.417 103.044 288.145 103.338C287.872 103.628 287.704 104.036 287.64 104.562H290.551V104.487C290.522 103.982 290.386 103.592 290.143 103.316C289.899 103.037 289.57 102.897 289.154 102.897ZM295.508 103.08C295.358 103.055 295.195 103.042 295.02 103.042C294.368 103.042 293.926 103.32 293.693 103.875V108H292.699V102.188H293.666L293.682 102.86C294.008 102.341 294.47 102.081 295.068 102.081C295.261 102.081 295.408 102.106 295.508 102.156V103.08ZM297.361 102.188L297.388 102.833C297.814 102.332 298.389 102.081 299.112 102.081C299.925 102.081 300.478 102.393 300.772 103.016C300.965 102.736 301.216 102.511 301.524 102.339C301.835 102.167 302.202 102.081 302.625 102.081C303.9 102.081 304.548 102.756 304.569 104.106V108H303.576V104.165C303.576 103.75 303.481 103.44 303.291 103.236C303.101 103.028 302.783 102.924 302.335 102.924C301.966 102.924 301.66 103.035 301.417 103.257C301.173 103.476 301.032 103.771 300.992 104.144V108H299.993V104.192C299.993 103.347 299.58 102.924 298.752 102.924C298.101 102.924 297.655 103.202 297.415 103.757V108H296.421V102.188H297.361ZM307.153 108H306.159V102.188H307.153V108ZM306.079 100.647C306.079 100.486 306.127 100.35 306.224 100.239C306.324 100.128 306.471 100.072 306.664 100.072C306.857 100.072 307.004 100.128 307.104 100.239C307.205 100.35 307.255 100.486 307.255 100.647C307.255 100.808 307.205 100.942 307.104 101.05C307.004 101.157 306.857 101.211 306.664 101.211C306.471 101.211 306.324 101.157 306.224 101.05C306.127 100.942 306.079 100.808 306.079 100.647ZM309.688 102.188L309.72 102.919C310.164 102.36 310.744 102.081 311.46 102.081C312.689 102.081 313.308 102.774 313.319 104.16V108H312.325V104.154C312.322 103.735 312.225 103.426 312.035 103.225C311.849 103.025 311.557 102.924 311.16 102.924C310.837 102.924 310.555 103.01 310.311 103.182C310.068 103.354 309.878 103.58 309.742 103.859V108H308.748V102.188H309.688ZM317.229 108.107C316.441 108.107 315.8 107.85 315.306 107.334C314.812 106.815 314.565 106.122 314.565 105.255V105.073C314.565 104.496 314.674 103.982 314.893 103.531C315.115 103.076 315.423 102.722 315.816 102.468C316.214 102.21 316.644 102.081 317.105 102.081C317.861 102.081 318.448 102.33 318.867 102.828C319.286 103.325 319.496 104.038 319.496 104.965V105.379H315.559C315.573 105.952 315.739 106.416 316.058 106.77C316.38 107.121 316.789 107.296 317.283 107.296C317.634 107.296 317.931 107.225 318.174 107.082C318.418 106.938 318.631 106.749 318.813 106.512L319.42 106.985C318.933 107.733 318.203 108.107 317.229 108.107ZM317.105 102.897C316.704 102.897 316.368 103.044 316.096 103.338C315.824 103.628 315.655 104.036 315.591 104.562H318.502V104.487C318.473 103.982 318.337 103.592 318.094 103.316C317.85 103.037 317.521 102.897 317.105 102.897ZM324.373 102.892C324.813 102.351 325.386 102.081 326.091 102.081C327.319 102.081 327.939 102.774 327.95 104.16V108H326.956V104.154C326.952 103.735 326.856 103.426 326.666 103.225C326.48 103.025 326.188 102.924 325.791 102.924C325.468 102.924 325.185 103.01 324.942 103.182C324.698 103.354 324.509 103.58 324.373 103.859V108H323.379V99.75H324.373V102.892ZM329.174 105.041C329.174 104.471 329.285 103.959 329.507 103.504C329.733 103.05 330.044 102.699 330.442 102.452C330.843 102.205 331.299 102.081 331.812 102.081C332.603 102.081 333.242 102.355 333.729 102.903C334.22 103.451 334.465 104.179 334.465 105.089V105.159C334.465 105.724 334.356 106.233 334.137 106.684C333.922 107.132 333.613 107.481 333.208 107.731C332.807 107.982 332.345 108.107 331.822 108.107C331.035 108.107 330.395 107.833 329.905 107.286C329.418 106.738 329.174 106.013 329.174 105.11V105.041ZM330.173 105.159C330.173 105.803 330.322 106.321 330.619 106.711C330.92 107.101 331.321 107.296 331.822 107.296C332.327 107.296 332.728 107.099 333.025 106.706C333.323 106.308 333.471 105.753 333.471 105.041C333.471 104.403 333.319 103.888 333.015 103.494C332.714 103.096 332.313 102.897 331.812 102.897C331.321 102.897 330.925 103.093 330.625 103.483C330.324 103.873 330.173 104.432 330.173 105.159ZM340.856 106.63L341.974 102.188H342.967L341.275 108H340.47L339.057 103.596L337.682 108H336.876L335.19 102.188H336.178L337.322 106.539L338.676 102.188H339.476L340.856 106.63ZM348.612 106.544L349.966 102.188H351.029L348.693 108.897C348.331 109.864 347.757 110.347 346.969 110.347L346.781 110.331L346.41 110.261V109.456L346.679 109.477C347.015 109.477 347.277 109.409 347.463 109.273C347.653 109.137 347.808 108.888 347.93 108.526L348.15 107.936L346.077 102.188H347.162L348.612 106.544ZM351.572 105.041C351.572 104.471 351.683 103.959 351.905 103.504C352.13 103.05 352.442 102.699 352.839 102.452C353.24 102.205 353.697 102.081 354.209 102.081C355 102.081 355.639 102.355 356.126 102.903C356.617 103.451 356.862 104.179 356.862 105.089V105.159C356.862 105.724 356.753 106.233 356.535 106.684C356.32 107.132 356.01 107.481 355.605 107.731C355.204 107.982 354.743 108.107 354.22 108.107C353.432 108.107 352.793 107.833 352.302 107.286C351.815 106.738 351.572 106.013 351.572 105.11V105.041ZM352.571 105.159C352.571 105.803 352.719 106.321 353.017 106.711C353.317 107.101 353.718 107.296 354.22 107.296C354.725 107.296 355.126 107.099 355.423 106.706C355.72 106.308 355.869 105.753 355.869 105.041C355.869 104.403 355.716 103.888 355.412 103.494C355.111 103.096 354.71 102.897 354.209 102.897C353.718 102.897 353.323 103.093 353.022 103.483C352.721 103.873 352.571 104.432 352.571 105.159ZM361.696 107.425C361.31 107.88 360.742 108.107 359.994 108.107C359.374 108.107 358.902 107.928 358.576 107.57C358.253 107.209 358.09 106.675 358.087 105.97V102.188H359.081V105.943C359.081 106.824 359.439 107.264 360.155 107.264C360.914 107.264 361.419 106.981 361.669 106.416V102.188H362.663V108H361.718L361.696 107.425ZM366.987 103.08C366.836 103.055 366.674 103.042 366.498 103.042C365.846 103.042 365.404 103.32 365.171 103.875V108H364.178V102.188H365.145L365.161 102.86C365.486 102.341 365.948 102.081 366.546 102.081C366.74 102.081 366.887 102.106 366.987 102.156V103.08ZM375.543 105.159C375.543 106.043 375.341 106.756 374.936 107.296C374.531 107.837 373.984 108.107 373.292 108.107C372.587 108.107 372.032 107.884 371.627 107.436V110.234H370.634V102.188H371.542L371.59 102.833C371.994 102.332 372.557 102.081 373.276 102.081C373.975 102.081 374.526 102.344 374.931 102.871C375.339 103.397 375.543 104.129 375.543 105.067V105.159ZM374.549 105.046C374.549 104.391 374.41 103.873 374.13 103.494C373.851 103.114 373.468 102.924 372.981 102.924C372.379 102.924 371.928 103.191 371.627 103.725V106.501C371.925 107.031 372.379 107.296 372.992 107.296C373.468 107.296 373.846 107.108 374.125 106.732C374.408 106.353 374.549 105.791 374.549 105.046ZM379.62 103.08C379.469 103.055 379.306 103.042 379.131 103.042C378.479 103.042 378.037 103.32 377.804 103.875V108H376.811V102.188H377.777L377.793 102.86C378.119 102.341 378.581 102.081 379.179 102.081C379.373 102.081 379.519 102.106 379.62 102.156V103.08ZM380.167 105.041C380.167 104.471 380.278 103.959 380.5 103.504C380.726 103.05 381.038 102.699 381.435 102.452C381.836 102.205 382.293 102.081 382.805 102.081C383.596 102.081 384.235 102.355 384.722 102.903C385.213 103.451 385.458 104.179 385.458 105.089V105.159C385.458 105.724 385.349 106.233 385.13 106.684C384.916 107.132 384.606 107.481 384.201 107.731C383.8 107.982 383.338 108.107 382.815 108.107C382.028 108.107 381.389 107.833 380.898 107.286C380.411 106.738 380.167 106.013 380.167 105.11V105.041ZM381.167 105.159C381.167 105.803 381.315 106.321 381.612 106.711C381.913 107.101 382.314 107.296 382.815 107.296C383.32 107.296 383.721 107.099 384.019 106.706C384.316 106.308 384.464 105.753 384.464 105.041C384.464 104.403 384.312 103.888 384.008 103.494C383.707 103.096 383.306 102.897 382.805 102.897C382.314 102.897 381.918 103.093 381.618 103.483C381.317 103.873 381.167 104.432 381.167 105.159ZM386.462 105.046C386.462 104.154 386.674 103.438 387.096 102.897C387.519 102.353 388.072 102.081 388.756 102.081C389.436 102.081 389.975 102.314 390.373 102.779V99.75H391.366V108H390.453L390.405 107.377C390.007 107.864 389.454 108.107 388.745 108.107C388.072 108.107 387.522 107.832 387.096 107.28C386.674 106.729 386.462 106.009 386.462 105.121V105.046ZM387.456 105.159C387.456 105.818 387.592 106.333 387.864 106.706C388.136 107.078 388.512 107.264 388.992 107.264C389.622 107.264 390.083 106.981 390.373 106.416V103.746C390.075 103.198 389.619 102.924 389.003 102.924C388.516 102.924 388.136 103.112 387.864 103.488C387.592 103.864 387.456 104.421 387.456 105.159ZM396.501 107.425C396.114 107.88 395.547 108.107 394.798 108.107C394.179 108.107 393.706 107.928 393.38 107.57C393.058 107.209 392.895 106.675 392.892 105.97V102.188H393.885V105.943C393.885 106.824 394.243 107.264 394.959 107.264C395.719 107.264 396.223 106.981 396.474 106.416V102.188H397.468V108H396.522L396.501 107.425ZM401.313 107.296C401.668 107.296 401.978 107.189 402.243 106.974C402.508 106.759 402.654 106.491 402.683 106.168H403.623C403.605 106.501 403.491 106.818 403.279 107.119C403.068 107.42 402.785 107.66 402.431 107.839C402.08 108.018 401.707 108.107 401.313 108.107C400.522 108.107 399.892 107.844 399.423 107.318C398.957 106.788 398.725 106.065 398.725 105.148V104.981C398.725 104.416 398.828 103.913 399.036 103.472C399.244 103.032 399.541 102.69 399.928 102.446C400.318 102.203 400.778 102.081 401.308 102.081C401.96 102.081 402.5 102.276 402.93 102.667C403.363 103.057 403.594 103.563 403.623 104.187H402.683C402.654 103.811 402.511 103.503 402.253 103.263C401.999 103.019 401.684 102.897 401.308 102.897C400.803 102.897 400.411 103.08 400.132 103.445C399.856 103.807 399.718 104.332 399.718 105.019V105.207C399.718 105.877 399.856 106.392 400.132 106.754C400.408 107.116 400.801 107.296 401.313 107.296ZM406.088 100.781V102.188H407.173V102.957H406.088V106.561C406.088 106.793 406.137 106.969 406.233 107.087C406.33 107.201 406.495 107.259 406.728 107.259C406.842 107.259 407 107.237 407.2 107.194V108C406.939 108.072 406.685 108.107 406.438 108.107C405.993 108.107 405.659 107.973 405.433 107.705C405.208 107.436 405.095 107.055 405.095 106.561V102.957H404.037V102.188H405.095V100.781H406.088ZM414.655 108C414.598 107.885 414.551 107.681 414.516 107.388C414.054 107.868 413.502 108.107 412.861 108.107C412.288 108.107 411.818 107.946 411.449 107.624C411.083 107.298 410.901 106.886 410.901 106.389C410.901 105.784 411.13 105.314 411.588 104.981C412.05 104.645 412.698 104.477 413.533 104.477H414.5V104.02C414.5 103.673 414.396 103.397 414.188 103.193C413.98 102.985 413.674 102.881 413.27 102.881C412.915 102.881 412.618 102.971 412.378 103.15C412.138 103.329 412.018 103.546 412.018 103.8H411.019C411.019 103.51 411.121 103.23 411.325 102.962C411.533 102.69 411.812 102.475 412.163 102.317C412.518 102.16 412.906 102.081 413.329 102.081C413.998 102.081 414.523 102.249 414.902 102.586C415.282 102.919 415.479 103.379 415.493 103.966V106.641C415.493 107.175 415.561 107.599 415.697 107.914V108H414.655ZM413.006 107.243C413.318 107.243 413.613 107.162 413.893 107.001C414.172 106.84 414.374 106.63 414.5 106.373V105.18H413.721C412.503 105.18 411.895 105.536 411.895 106.249C411.895 106.561 411.998 106.804 412.206 106.979C412.414 107.155 412.681 107.243 413.006 107.243ZM417.991 102.188L418.023 102.919C418.467 102.36 419.047 102.081 419.763 102.081C420.991 102.081 421.611 102.774 421.622 104.16V108H420.628V104.154C420.624 103.735 420.528 103.426 420.338 103.225C420.152 103.025 419.86 102.924 419.462 102.924C419.14 102.924 418.857 103.01 418.614 103.182C418.37 103.354 418.181 103.58 418.044 103.859V108H417.051V102.188H417.991ZM422.878 105.046C422.878 104.154 423.09 103.438 423.512 102.897C423.935 102.353 424.488 102.081 425.172 102.081C425.852 102.081 426.391 102.314 426.789 102.779V99.75H427.782V108H426.869L426.821 107.377C426.423 107.864 425.87 108.107 425.161 108.107C424.488 108.107 423.938 107.832 423.512 107.28C423.09 106.729 422.878 106.009 422.878 105.121V105.046ZM423.872 105.159C423.872 105.818 424.008 106.333 424.28 106.706C424.552 107.078 424.928 107.264 425.408 107.264C426.038 107.264 426.499 106.981 426.789 106.416V103.746C426.491 103.198 426.035 102.924 425.419 102.924C424.932 102.924 424.552 103.112 424.28 103.488C424.008 103.864 423.872 104.421 423.872 105.159ZM435.441 106.458C435.441 106.19 435.339 105.982 435.135 105.835C434.935 105.685 434.582 105.556 434.077 105.449C433.576 105.341 433.177 105.212 432.879 105.062C432.586 104.912 432.367 104.733 432.224 104.525C432.084 104.317 432.015 104.07 432.015 103.784C432.015 103.307 432.215 102.905 432.616 102.575C433.021 102.246 433.536 102.081 434.163 102.081C434.822 102.081 435.355 102.251 435.764 102.591C436.175 102.931 436.381 103.367 436.381 103.896H435.382C435.382 103.624 435.266 103.39 435.033 103.193C434.804 102.996 434.514 102.897 434.163 102.897C433.801 102.897 433.519 102.976 433.314 103.134C433.11 103.291 433.008 103.497 433.008 103.751C433.008 103.991 433.103 104.172 433.293 104.294C433.483 104.416 433.825 104.532 434.319 104.643C434.817 104.754 435.219 104.887 435.527 105.041C435.835 105.194 436.063 105.381 436.209 105.599C436.36 105.814 436.435 106.077 436.435 106.389C436.435 106.908 436.227 107.325 435.812 107.64C435.397 107.952 434.858 108.107 434.195 108.107C433.73 108.107 433.318 108.025 432.96 107.86C432.602 107.696 432.321 107.466 432.117 107.173C431.916 106.876 431.816 106.555 431.816 106.211H432.81C432.827 106.544 432.96 106.809 433.207 107.006C433.458 107.2 433.787 107.296 434.195 107.296C434.571 107.296 434.872 107.221 435.098 107.071C435.327 106.917 435.441 106.713 435.441 106.458ZM440.141 108.107C439.353 108.107 438.712 107.85 438.218 107.334C437.724 106.815 437.477 106.122 437.477 105.255V105.073C437.477 104.496 437.586 103.982 437.805 103.531C438.027 103.076 438.335 102.722 438.729 102.468C439.126 102.21 439.556 102.081 440.018 102.081C440.773 102.081 441.36 102.33 441.779 102.828C442.198 103.325 442.408 104.038 442.408 104.965V105.379H438.471C438.485 105.952 438.652 106.416 438.97 106.77C439.292 107.121 439.701 107.296 440.195 107.296C440.546 107.296 440.843 107.225 441.086 107.082C441.33 106.938 441.543 106.749 441.726 106.512L442.333 106.985C441.846 107.733 441.115 108.107 440.141 108.107ZM440.018 102.897C439.617 102.897 439.28 103.044 439.008 103.338C438.736 103.628 438.567 104.036 438.503 104.562H441.414V104.487C441.385 103.982 441.249 103.592 441.006 103.316C440.762 103.037 440.433 102.897 440.018 102.897ZM446.372 103.08C446.221 103.055 446.058 103.042 445.883 103.042C445.231 103.042 444.789 103.32 444.556 103.875V108H443.562V102.188H444.529L444.545 102.86C444.871 102.341 445.333 102.081 445.931 102.081C446.125 102.081 446.271 102.106 446.372 102.156V103.08ZM449.304 106.652L450.744 102.188H451.759L449.675 108H448.917L446.812 102.188H447.827L449.304 106.652ZM453.794 108H452.801V102.188H453.794V108ZM452.72 100.647C452.72 100.486 452.769 100.35 452.865 100.239C452.965 100.128 453.112 100.072 453.306 100.072C453.499 100.072 453.646 100.128 453.746 100.239C453.846 100.35 453.896 100.486 453.896 100.647C453.896 100.808 453.846 100.942 453.746 101.05C453.646 101.157 453.499 101.211 453.306 101.211C453.112 101.211 452.965 101.157 452.865 101.05C452.769 100.942 452.72 100.808 452.72 100.647ZM457.721 107.296C458.075 107.296 458.385 107.189 458.65 106.974C458.915 106.759 459.062 106.491 459.09 106.168H460.03C460.012 106.501 459.898 106.818 459.687 107.119C459.475 107.42 459.192 107.66 458.838 107.839C458.487 108.018 458.115 108.107 457.721 108.107C456.929 108.107 456.299 107.844 455.83 107.318C455.365 106.788 455.132 106.065 455.132 105.148V104.981C455.132 104.416 455.236 103.913 455.443 103.472C455.651 103.032 455.948 102.69 456.335 102.446C456.725 102.203 457.185 102.081 457.715 102.081C458.367 102.081 458.908 102.276 459.337 102.667C459.771 103.057 460.002 103.563 460.03 104.187H459.09C459.062 103.811 458.918 103.503 458.661 103.263C458.406 103.019 458.091 102.897 457.715 102.897C457.21 102.897 456.818 103.08 456.539 103.445C456.263 103.807 456.125 104.332 456.125 105.019V105.207C456.125 105.877 456.263 106.392 456.539 106.754C456.815 107.116 457.209 107.296 457.721 107.296ZM463.559 108.107C462.771 108.107 462.13 107.85 461.636 107.334C461.142 106.815 460.895 106.122 460.895 105.255V105.073C460.895 104.496 461.004 103.982 461.223 103.531C461.445 103.076 461.753 102.722 462.146 102.468C462.544 102.21 462.974 102.081 463.436 102.081C464.191 102.081 464.778 102.33 465.197 102.828C465.616 103.325 465.826 104.038 465.826 104.965V105.379H461.889C461.903 105.952 462.069 106.416 462.388 106.77C462.71 107.121 463.119 107.296 463.613 107.296C463.964 107.296 464.261 107.225 464.504 107.082C464.748 106.938 464.961 106.749 465.144 106.512L465.75 106.985C465.264 107.733 464.533 108.107 463.559 108.107ZM463.436 102.897C463.035 102.897 462.698 103.044 462.426 103.338C462.154 103.628 461.985 104.036 461.921 104.562H464.832V104.487C464.803 103.982 464.667 103.592 464.424 103.316C464.18 103.037 463.851 102.897 463.436 102.897ZM44.1357 136.458C44.1357 136.19 44.0337 135.982 43.8296 135.835C43.6291 135.685 43.2764 135.556 42.7715 135.449C42.2702 135.341 41.8709 135.212 41.5737 135.062C41.2801 134.912 41.0617 134.733 40.9185 134.525C40.7788 134.317 40.709 134.07 40.709 133.784C40.709 133.307 40.9095 132.905 41.3105 132.575C41.7152 132.246 42.2308 132.081 42.8574 132.081C43.5163 132.081 44.0498 132.251 44.458 132.591C44.8698 132.931 45.0757 133.367 45.0757 133.896H44.0767C44.0767 133.624 43.9603 133.39 43.7275 133.193C43.4984 132.996 43.2083 132.897 42.8574 132.897C42.4958 132.897 42.2129 132.976 42.0088 133.134C41.8047 133.291 41.7026 133.497 41.7026 133.751C41.7026 133.991 41.7975 134.172 41.9873 134.294C42.1771 134.416 42.519 134.532 43.0132 134.643C43.5109 134.754 43.9137 134.887 44.2217 135.041C44.5296 135.194 44.757 135.381 44.9038 135.599C45.0542 135.814 45.1294 136.077 45.1294 136.389C45.1294 136.908 44.9217 137.325 44.5063 137.64C44.091 137.952 43.5521 138.107 42.8896 138.107C42.4242 138.107 42.0124 138.025 41.6543 137.86C41.2962 137.696 41.0151 137.466 40.811 137.173C40.6105 136.876 40.5103 136.555 40.5103 136.211H41.5039C41.5218 136.544 41.6543 136.809 41.9014 137.006C42.152 137.2 42.4814 137.296 42.8896 137.296C43.2656 137.296 43.5664 137.221 43.792 137.071C44.0212 136.917 44.1357 136.713 44.1357 136.458ZM47.4175 132.892C47.8579 132.351 48.4308 132.081 49.1362 132.081C50.3644 132.081 50.9839 132.774 50.9946 134.16V138H50.001V134.154C49.9974 133.735 49.9007 133.426 49.7109 133.225C49.5247 133.025 49.2329 132.924 48.8354 132.924C48.5132 132.924 48.2303 133.01 47.9868 133.182C47.7433 133.354 47.5535 133.58 47.4175 133.859V138H46.4238V129.75H47.4175V132.892ZM52.2192 135.041C52.2192 134.471 52.3302 133.959 52.5522 133.504C52.7778 133.05 53.0894 132.699 53.4868 132.452C53.8879 132.205 54.3444 132.081 54.8564 132.081C55.6478 132.081 56.2869 132.355 56.7739 132.903C57.2645 133.451 57.5098 134.179 57.5098 135.089V135.159C57.5098 135.724 57.4006 136.233 57.1821 136.684C56.9673 137.132 56.6576 137.481 56.2529 137.731C55.8519 137.982 55.39 138.107 54.8672 138.107C54.0794 138.107 53.4403 137.833 52.9497 137.286C52.4627 136.738 52.2192 136.013 52.2192 135.11V135.041ZM53.2183 135.159C53.2183 135.803 53.3669 136.321 53.6641 136.711C53.9648 137.101 54.3659 137.296 54.8672 137.296C55.3721 137.296 55.7731 137.099 56.0703 136.706C56.3675 136.308 56.5161 135.753 56.5161 135.041C56.5161 134.403 56.3639 133.888 56.0596 133.494C55.7588 133.096 55.3577 132.897 54.8564 132.897C54.3659 132.897 53.9702 133.093 53.6694 133.483C53.3687 133.873 53.2183 134.432 53.2183 135.159ZM62.3438 137.425C61.957 137.88 61.3895 138.107 60.6411 138.107C60.0216 138.107 59.549 137.928 59.2231 137.57C58.9009 137.209 58.738 136.675 58.7344 135.97V132.188H59.728V135.943C59.728 136.824 60.0861 137.264 60.8022 137.264C61.5614 137.264 62.0662 136.981 62.3169 136.416V132.188H63.3105V138H62.3652L62.3438 137.425ZM65.9048 138H64.9111V129.75H65.9048V138ZM67.2583 135.046C67.2583 134.154 67.4696 133.438 67.8921 132.897C68.3146 132.353 68.8678 132.081 69.5518 132.081C70.2321 132.081 70.771 132.314 71.1685 132.779V129.75H72.1621V138H71.249L71.2007 137.377C70.8032 137.864 70.25 138.107 69.541 138.107C68.8678 138.107 68.3182 137.832 67.8921 137.28C67.4696 136.729 67.2583 136.009 67.2583 135.121V135.046ZM68.252 135.159C68.252 135.818 68.388 136.333 68.6602 136.706C68.9323 137.078 69.3083 137.264 69.7881 137.264C70.4183 137.264 70.8784 136.981 71.1685 136.416V133.746C70.8713 133.198 70.4147 132.924 69.7988 132.924C69.3118 132.924 68.9323 133.112 68.6602 133.488C68.388 133.864 68.252 134.421 68.252 135.159ZM76.9263 138V132.957H76.0078V132.188H76.9263V131.592C76.9263 130.969 77.0928 130.488 77.4258 130.147C77.7588 129.807 78.2297 129.637 78.8384 129.637C79.0675 129.637 79.2949 129.668 79.5205 129.729L79.4668 130.534C79.2985 130.502 79.1195 130.486 78.9297 130.486C78.6074 130.486 78.3586 130.581 78.1831 130.771C78.0076 130.957 77.9199 131.225 77.9199 131.576V132.188H79.1606V132.957H77.9199V138H76.9263ZM83.8496 137.425C83.4629 137.88 82.8953 138.107 82.147 138.107C81.5275 138.107 81.0549 137.928 80.729 137.57C80.4067 137.209 80.2438 136.675 80.2402 135.97V132.188H81.2339V135.943C81.2339 136.824 81.592 137.264 82.3081 137.264C83.0672 137.264 83.5721 136.981 83.8228 136.416V132.188H84.8164V138H83.8711L83.8496 137.425ZM87.271 132.188L87.3032 132.919C87.7472 132.36 88.3273 132.081 89.0435 132.081C90.2716 132.081 90.8911 132.774 90.9019 134.16V138H89.9082V134.154C89.9046 133.735 89.8079 133.426 89.6182 133.225C89.432 133.025 89.1401 132.924 88.7427 132.924C88.4204 132.924 88.1375 133.01 87.894 133.182C87.6506 133.354 87.4608 133.58 87.3247 133.859V138H86.3311V132.188H87.271ZM94.7314 137.296C95.0859 137.296 95.3957 137.189 95.6606 136.974C95.9256 136.759 96.0724 136.491 96.1011 136.168H97.041C97.0231 136.501 96.9085 136.818 96.6973 137.119C96.486 137.42 96.2031 137.66 95.8486 137.839C95.4977 138.018 95.1253 138.107 94.7314 138.107C93.9401 138.107 93.3099 137.844 92.8408 137.318C92.3753 136.788 92.1426 136.065 92.1426 135.148V134.981C92.1426 134.416 92.2464 133.913 92.4541 133.472C92.6618 133.032 92.959 132.69 93.3457 132.446C93.736 132.203 94.1961 132.081 94.7261 132.081C95.3778 132.081 95.9185 132.276 96.3481 132.667C96.7814 133.057 97.0124 133.563 97.041 134.187H96.1011C96.0724 133.811 95.9292 133.503 95.6714 133.263C95.4172 133.019 95.1021 132.897 94.7261 132.897C94.2212 132.897 93.8291 133.08 93.5498 133.445C93.2741 133.807 93.1362 134.332 93.1362 135.019V135.207C93.1362 135.877 93.2741 136.392 93.5498 136.754C93.8255 137.116 94.2194 137.296 94.7314 137.296ZM99.5063 130.781V132.188H100.591V132.957H99.5063V136.561C99.5063 136.793 99.5547 136.969 99.6514 137.087C99.748 137.201 99.9128 137.259 100.146 137.259C100.26 137.259 100.418 137.237 100.618 137.194V138C100.357 138.072 100.103 138.107 99.8555 138.107C99.4115 138.107 99.0767 137.973 98.8511 137.705C98.6255 137.436 98.5127 137.055 98.5127 136.561V132.957H97.4546V132.188H98.5127V130.781H99.5063ZM102.836 138H101.843V132.188H102.836V138ZM101.762 130.647C101.762 130.486 101.811 130.35 101.907 130.239C102.007 130.128 102.154 130.072 102.348 130.072C102.541 130.072 102.688 130.128 102.788 130.239C102.888 130.35 102.938 130.486 102.938 130.647C102.938 130.808 102.888 130.942 102.788 131.05C102.688 131.157 102.541 131.211 102.348 131.211C102.154 131.211 102.007 131.157 101.907 131.05C101.811 130.942 101.762 130.808 101.762 130.647ZM104.168 135.041C104.168 134.471 104.279 133.959 104.501 133.504C104.727 133.05 105.039 132.699 105.436 132.452C105.837 132.205 106.294 132.081 106.806 132.081C107.597 132.081 108.236 132.355 108.723 132.903C109.214 133.451 109.459 134.179 109.459 135.089V135.159C109.459 135.724 109.35 136.233 109.131 136.684C108.917 137.132 108.607 137.481 108.202 137.731C107.801 137.982 107.339 138.107 106.816 138.107C106.029 138.107 105.389 137.833 104.899 137.286C104.412 136.738 104.168 136.013 104.168 135.11V135.041ZM105.167 135.159C105.167 135.803 105.316 136.321 105.613 136.711C105.914 137.101 106.315 137.296 106.816 137.296C107.321 137.296 107.722 137.099 108.02 136.706C108.317 136.308 108.465 135.753 108.465 135.041C108.465 134.403 108.313 133.888 108.009 133.494C107.708 133.096 107.307 132.897 106.806 132.897C106.315 132.897 105.919 133.093 105.619 133.483C105.318 133.873 105.167 134.432 105.167 135.159ZM111.645 132.188L111.677 132.919C112.121 132.36 112.701 132.081 113.417 132.081C114.646 132.081 115.265 132.774 115.276 134.16V138H114.282V134.154C114.279 133.735 114.182 133.426 113.992 133.225C113.806 133.025 113.514 132.924 113.117 132.924C112.794 132.924 112.512 133.01 112.268 133.182C112.025 133.354 111.835 133.58 111.699 133.859V138H110.705V132.188H111.645ZM116.796 137.479C116.796 137.307 116.846 137.164 116.946 137.049C117.05 136.935 117.204 136.877 117.408 136.877C117.612 136.877 117.766 136.935 117.87 137.049C117.978 137.164 118.031 137.307 118.031 137.479C118.031 137.644 117.978 137.782 117.87 137.893C117.766 138.004 117.612 138.059 117.408 138.059C117.204 138.059 117.05 138.004 116.946 137.893C116.846 137.782 116.796 137.644 116.796 137.479Z" fill="#737373"/>
</svg>
