<svg width="560" height="220" viewBox="0 0 560 220" fill="none" xmlns="http://www.w3.org/2000/svg">
<path d="M0.5 0.5H559.5V219.5H0.5V0.5Z" stroke="#E8E8E8"/>
<path d="M46.7632 58H45.0376V46.561L41.5771 47.832V46.2734L46.4941 44.4272H46.7632V58ZM52.0049 57.1001C52.0049 56.8032 52.0915 56.5558 52.2646 56.3579C52.444 56.16 52.71 56.061 53.0625 56.061C53.415 56.061 53.681 56.16 53.8604 56.3579C54.0459 56.5558 54.1387 56.8032 54.1387 57.1001C54.1387 57.3846 54.0459 57.6227 53.8604 57.8145C53.681 58.0062 53.415 58.1021 53.0625 58.1021C52.71 58.1021 52.444 58.0062 52.2646 57.8145C52.0915 57.6227 52.0049 57.3846 52.0049 57.1001ZM66.9136 52.5356H63.7407V58H61.9502V44.4922H66.4219C67.9434 44.4922 69.1123 44.8385 69.9287 45.5312C70.7513 46.224 71.1626 47.2321 71.1626 48.5557C71.1626 49.3968 70.9338 50.1297 70.4761 50.7544C70.0246 51.3791 69.3937 51.846 68.5835 52.1553L71.7563 57.8887V58H69.8452L66.9136 52.5356ZM63.7407 51.0791H66.4775C67.362 51.0791 68.064 50.8503 68.5835 50.3926C69.1092 49.9349 69.3721 49.3226 69.3721 48.5557C69.3721 47.7207 69.1216 47.0806 68.6206 46.6353C68.1258 46.1899 67.4084 45.9642 66.4683 45.958H63.7407V51.0791ZM77.564 58.1855C76.2033 58.1855 75.0962 57.7402 74.2427 56.8496C73.3892 55.9528 72.9624 54.756 72.9624 53.2593V52.9438C72.9624 51.9481 73.151 51.0605 73.5283 50.2812C73.9118 49.4958 74.4437 48.8835 75.124 48.4443C75.8105 47.999 76.5527 47.7764 77.3506 47.7764C78.6556 47.7764 79.6699 48.2062 80.3936 49.0659C81.1172 49.9256 81.479 51.1564 81.479 52.7583V53.4727H74.6787C74.7035 54.4622 74.991 55.2632 75.5415 55.8755C76.0981 56.4816 76.8032 56.7847 77.6567 56.7847C78.2629 56.7847 78.7762 56.661 79.1968 56.4136C79.6174 56.1662 79.9854 55.8384 80.3008 55.4302L81.3491 56.2466C80.508 57.5392 79.2463 58.1855 77.564 58.1855ZM77.3506 49.1865C76.6579 49.1865 76.0765 49.4401 75.6064 49.9473C75.1364 50.4482 74.8457 51.1533 74.7344 52.0625H79.7627V51.9326C79.7132 51.0605 79.4782 50.3864 79.0576 49.9102C78.637 49.4277 78.068 49.1865 77.3506 49.1865ZM89.3184 55.3374C89.3184 54.8735 89.1421 54.5148 88.7896 54.2612C88.4432 54.0015 87.834 53.7788 86.9619 53.5933C86.096 53.4077 85.4064 53.1851 84.8931 52.9253C84.3859 52.6655 84.0086 52.3563 83.7612 51.9976C83.52 51.6388 83.3994 51.2121 83.3994 50.7173C83.3994 49.8947 83.7458 49.1989 84.4385 48.6299C85.1374 48.0609 86.028 47.7764 87.1104 47.7764C88.2484 47.7764 89.1699 48.0701 89.875 48.6577C90.5863 49.2453 90.9419 49.9967 90.9419 50.9121H89.2163C89.2163 50.4421 89.0153 50.0369 88.6133 49.6968C88.2174 49.3566 87.7165 49.1865 87.1104 49.1865C86.4857 49.1865 85.9971 49.3226 85.6445 49.5947C85.292 49.8669 85.1157 50.2225 85.1157 50.6616C85.1157 51.076 85.2796 51.3883 85.6074 51.5986C85.9352 51.8089 86.5259 52.0099 87.3794 52.2017C88.2391 52.3934 88.9349 52.6222 89.4668 52.8882C89.9987 53.1541 90.3914 53.4757 90.645 53.853C90.9048 54.2241 91.0347 54.6787 91.0347 55.2168C91.0347 56.1136 90.6759 56.8341 89.9585 57.3784C89.241 57.9165 88.3102 58.1855 87.166 58.1855C86.362 58.1855 85.6507 58.0433 85.0322 57.7588C84.4137 57.4743 83.9282 57.0785 83.5757 56.5713C83.2293 56.0579 83.0562 55.5044 83.0562 54.9106H84.7725C84.8034 55.4858 85.0322 55.9435 85.459 56.2837C85.8919 56.6177 86.4609 56.7847 87.166 56.7847C87.8154 56.7847 88.335 56.6548 88.7246 56.395C89.1204 56.1291 89.3184 55.7765 89.3184 55.3374ZM97.436 58.1855C96.0754 58.1855 94.9683 57.7402 94.1147 56.8496C93.2612 55.9528 92.8345 54.756 92.8345 53.2593V52.9438C92.8345 51.9481 93.0231 51.0605 93.4004 50.2812C93.7839 49.4958 94.3158 48.8835 94.9961 48.4443C95.6826 47.999 96.4248 47.7764 97.2227 47.7764C98.5277 47.7764 99.542 48.2062 100.266 49.0659C100.989 49.9256 101.351 51.1564 101.351 52.7583V53.4727H94.5508C94.5755 54.4622 94.8631 55.2632 95.4136 55.8755C95.9702 56.4816 96.6753 56.7847 97.5288 56.7847C98.1349 56.7847 98.6483 56.661 99.0688 56.4136C99.4894 56.1662 99.8574 55.8384 100.173 55.4302L101.221 56.2466C100.38 57.5392 99.1183 58.1855 97.436 58.1855ZM97.2227 49.1865C96.5299 49.1865 95.9486 49.4401 95.4785 49.9473C95.0085 50.4482 94.7178 51.1533 94.6064 52.0625H99.6348V51.9326C99.5853 51.0605 99.3503 50.3864 98.9297 49.9102C98.5091 49.4277 97.9401 49.1865 97.2227 49.1865ZM109.543 58C109.444 57.8021 109.364 57.4495 109.302 56.9424C108.504 57.7712 107.551 58.1855 106.444 58.1855C105.455 58.1855 104.641 57.9072 104.004 57.3506C103.374 56.7878 103.058 56.0765 103.058 55.2168C103.058 54.1715 103.454 53.3613 104.246 52.7861C105.043 52.2048 106.163 51.9141 107.604 51.9141H109.274V51.1255C109.274 50.5256 109.095 50.0493 108.736 49.6968C108.377 49.3381 107.848 49.1587 107.149 49.1587C106.537 49.1587 106.024 49.3133 105.609 49.6226C105.195 49.9318 104.988 50.306 104.988 50.7451H103.262C103.262 50.2441 103.438 49.7617 103.791 49.2979C104.15 48.8278 104.632 48.4567 105.238 48.1846C105.851 47.9124 106.522 47.7764 107.251 47.7764C108.408 47.7764 109.314 48.0671 109.97 48.6484C110.625 49.2236 110.965 50.0184 110.99 51.0327V55.6528C110.99 56.5744 111.108 57.3073 111.343 57.8516V58H109.543ZM106.695 56.6919C107.233 56.6919 107.743 56.5527 108.226 56.2744C108.708 55.9961 109.057 55.6343 109.274 55.189V53.1294H107.929C105.826 53.1294 104.774 53.7448 104.774 54.9756C104.774 55.5137 104.954 55.9342 105.312 56.2373C105.671 56.5404 106.132 56.6919 106.695 56.6919ZM118.533 49.502C118.273 49.4587 117.992 49.437 117.688 49.437C116.563 49.437 115.799 49.9163 115.397 50.875V58H113.681V47.9619H115.351L115.378 49.1216C115.941 48.2248 116.739 47.7764 117.772 47.7764C118.106 47.7764 118.36 47.8197 118.533 47.9062V49.502ZM123.96 56.7847C124.572 56.7847 125.107 56.5991 125.565 56.228C126.023 55.8569 126.276 55.3931 126.326 54.8364H127.949C127.918 55.4116 127.72 55.959 127.355 56.4785C126.991 56.998 126.502 57.4124 125.89 57.7217C125.284 58.0309 124.64 58.1855 123.96 58.1855C122.593 58.1855 121.505 57.731 120.694 56.8218C119.89 55.9064 119.488 54.6571 119.488 53.0737V52.7861C119.488 51.8089 119.668 50.9399 120.026 50.1792C120.385 49.4185 120.898 48.8278 121.566 48.4072C122.241 47.9867 123.035 47.7764 123.951 47.7764C125.076 47.7764 126.01 48.1134 126.752 48.7876C127.501 49.4618 127.9 50.3369 127.949 51.4131H126.326C126.276 50.7637 126.029 50.2318 125.583 49.8174C125.144 49.3968 124.6 49.1865 123.951 49.1865C123.079 49.1865 122.401 49.502 121.919 50.1328C121.443 50.7575 121.205 51.6636 121.205 52.8511V53.1758C121.205 54.3324 121.443 55.223 121.919 55.8477C122.395 56.4723 123.076 56.7847 123.96 56.7847ZM131.595 49.1772C132.356 48.2433 133.346 47.7764 134.564 47.7764C136.685 47.7764 137.755 48.9731 137.774 51.3667V58H136.058V51.3574C136.051 50.6338 135.884 50.0988 135.557 49.7524C135.235 49.4061 134.731 49.2329 134.044 49.2329C133.488 49.2329 132.999 49.3813 132.579 49.6782C132.158 49.9751 131.83 50.3647 131.595 50.8472V58H129.879V43.75H131.595V49.1772Z" fill="black"/>
<path d="M43.7734 105.414L43.9922 106.914L44.3125 105.562L46.5625 97.625H47.8281L50.0234 105.562L50.3359 106.938L50.5781 105.406L52.3438 97.625H53.8516L51.0938 109H49.7266L47.3828 100.711L47.2031 99.8438L47.0234 100.711L44.5938 109H43.2266L40.4766 97.625H41.9766L43.7734 105.414ZM58.5547 109.156C57.4089 109.156 56.4766 108.781 55.7578 108.031C55.0391 107.276 54.6797 106.268 54.6797 105.008V104.742C54.6797 103.904 54.8385 103.156 55.1562 102.5C55.4792 101.839 55.9271 101.323 56.5 100.953C57.0781 100.578 57.7031 100.391 58.375 100.391C59.474 100.391 60.3281 100.753 60.9375 101.477C61.5469 102.201 61.8516 103.237 61.8516 104.586V105.188H56.125C56.1458 106.021 56.388 106.695 56.8516 107.211C57.3203 107.721 57.9141 107.977 58.6328 107.977C59.1432 107.977 59.5755 107.872 59.9297 107.664C60.2839 107.456 60.5938 107.18 60.8594 106.836L61.7422 107.523C61.0339 108.612 59.9714 109.156 58.5547 109.156ZM58.375 101.578C57.7917 101.578 57.3021 101.792 56.9062 102.219C56.5104 102.641 56.2656 103.234 56.1719 104H60.4062V103.891C60.3646 103.156 60.1667 102.589 59.8125 102.188C59.4583 101.781 58.9792 101.578 58.375 101.578ZM70.8906 107.977C71.4062 107.977 71.8568 107.82 72.2422 107.508C72.6276 107.195 72.8411 106.805 72.8828 106.336H74.25C74.224 106.82 74.0573 107.281 73.75 107.719C73.4427 108.156 73.0312 108.505 72.5156 108.766C72.0052 109.026 71.4635 109.156 70.8906 109.156C69.7396 109.156 68.8229 108.773 68.1406 108.008C67.4635 107.237 67.125 106.185 67.125 104.852V104.609C67.125 103.786 67.276 103.055 67.5781 102.414C67.8802 101.773 68.3125 101.276 68.875 100.922C69.4427 100.568 70.112 100.391 70.8828 100.391C71.8307 100.391 72.6172 100.674 73.2422 101.242C73.8724 101.81 74.2083 102.547 74.25 103.453H72.8828C72.8411 102.906 72.6328 102.458 72.2578 102.109C71.888 101.755 71.4297 101.578 70.8828 101.578C70.1484 101.578 69.5781 101.844 69.1719 102.375C68.7708 102.901 68.5703 103.664 68.5703 104.664V104.938C68.5703 105.911 68.7708 106.661 69.1719 107.188C69.5729 107.714 70.1458 107.977 70.8906 107.977ZM81.0938 109C81.0104 108.833 80.9427 108.536 80.8906 108.109C80.2188 108.807 79.4167 109.156 78.4844 109.156C77.651 109.156 76.9661 108.922 76.4297 108.453C75.8984 107.979 75.6328 107.38 75.6328 106.656C75.6328 105.776 75.9661 105.094 76.6328 104.609C77.3047 104.12 78.2474 103.875 79.4609 103.875H80.8672V103.211C80.8672 102.706 80.7161 102.305 80.4141 102.008C80.112 101.706 79.6667 101.555 79.0781 101.555C78.5625 101.555 78.1302 101.685 77.7812 101.945C77.4323 102.206 77.2578 102.521 77.2578 102.891H75.8047C75.8047 102.469 75.9531 102.062 76.25 101.672C76.5521 101.276 76.9583 100.964 77.4688 100.734C77.9844 100.505 78.5495 100.391 79.1641 100.391C80.138 100.391 80.901 100.635 81.4531 101.125C82.0052 101.609 82.2917 102.279 82.3125 103.133V107.023C82.3125 107.799 82.4115 108.417 82.6094 108.875V109H81.0938ZM78.6953 107.898C79.1484 107.898 79.5781 107.781 79.9844 107.547C80.3906 107.312 80.6849 107.008 80.8672 106.633V104.898H79.7344C77.9635 104.898 77.0781 105.417 77.0781 106.453C77.0781 106.906 77.2292 107.26 77.5312 107.516C77.8333 107.771 78.2214 107.898 78.6953 107.898ZM85.9453 100.547L85.9922 101.609C86.638 100.797 87.4818 100.391 88.5234 100.391C90.3099 100.391 91.2109 101.398 91.2266 103.414V109H89.7812V103.406C89.776 102.797 89.6354 102.346 89.3594 102.055C89.0885 101.763 88.6641 101.617 88.0859 101.617C87.6172 101.617 87.2057 101.742 86.8516 101.992C86.4974 102.242 86.2214 102.57 86.0234 102.977V109H84.5781V100.547H85.9453ZM98.8203 101.57C99.4609 100.784 100.294 100.391 101.32 100.391C103.107 100.391 104.008 101.398 104.023 103.414V109H102.578V103.406C102.573 102.797 102.432 102.346 102.156 102.055C101.885 101.763 101.461 101.617 100.883 101.617C100.414 101.617 100.003 101.742 99.6484 101.992C99.2943 102.242 99.0182 102.57 98.8203 102.977V109H97.375V97H98.8203V101.57ZM109.695 109.156C108.549 109.156 107.617 108.781 106.898 108.031C106.18 107.276 105.82 106.268 105.82 105.008V104.742C105.82 103.904 105.979 103.156 106.297 102.5C106.62 101.839 107.068 101.323 107.641 100.953C108.219 100.578 108.844 100.391 109.516 100.391C110.615 100.391 111.469 100.753 112.078 101.477C112.688 102.201 112.992 103.237 112.992 104.586V105.188H107.266C107.286 106.021 107.529 106.695 107.992 107.211C108.461 107.721 109.055 107.977 109.773 107.977C110.284 107.977 110.716 107.872 111.07 107.664C111.424 107.456 111.734 107.18 112 106.836L112.883 107.523C112.174 108.612 111.112 109.156 109.695 109.156ZM109.516 101.578C108.932 101.578 108.443 101.792 108.047 102.219C107.651 102.641 107.406 103.234 107.312 104H111.547V103.891C111.505 103.156 111.307 102.589 110.953 102.188C110.599 101.781 110.12 101.578 109.516 101.578ZM116.242 109H114.797V97H116.242V109ZM125.703 104.867C125.703 106.154 125.409 107.19 124.82 107.977C124.232 108.763 123.435 109.156 122.43 109.156C121.404 109.156 120.596 108.831 120.008 108.18V112.25H118.562V100.547H119.883L119.953 101.484C120.542 100.755 121.359 100.391 122.406 100.391C123.422 100.391 124.224 100.773 124.812 101.539C125.406 102.305 125.703 103.37 125.703 104.734V104.867ZM124.258 104.703C124.258 103.75 124.055 102.997 123.648 102.445C123.242 101.893 122.685 101.617 121.977 101.617C121.102 101.617 120.445 102.005 120.008 102.781V106.82C120.44 107.591 121.102 107.977 121.992 107.977C122.685 107.977 123.234 107.703 123.641 107.156C124.052 106.604 124.258 105.786 124.258 104.703ZM134.281 106.883L136.25 100.547H137.797L134.398 110.305C133.872 111.711 133.036 112.414 131.891 112.414L131.617 112.391L131.078 112.289V111.117L131.469 111.148C131.958 111.148 132.339 111.049 132.609 110.852C132.885 110.654 133.112 110.292 133.289 109.766L133.609 108.906L130.594 100.547H132.172L134.281 106.883ZM138.586 104.695C138.586 103.867 138.747 103.122 139.07 102.461C139.398 101.799 139.852 101.289 140.43 100.93C141.013 100.57 141.677 100.391 142.422 100.391C143.573 100.391 144.503 100.789 145.211 101.586C145.924 102.383 146.281 103.443 146.281 104.766V104.867C146.281 105.69 146.122 106.43 145.805 107.086C145.492 107.737 145.042 108.245 144.453 108.609C143.87 108.974 143.198 109.156 142.438 109.156C141.292 109.156 140.362 108.758 139.648 107.961C138.94 107.164 138.586 106.109 138.586 104.797V104.695ZM140.039 104.867C140.039 105.805 140.255 106.557 140.688 107.125C141.125 107.693 141.708 107.977 142.438 107.977C143.172 107.977 143.755 107.69 144.188 107.117C144.62 106.539 144.836 105.732 144.836 104.695C144.836 103.768 144.615 103.018 144.172 102.445C143.734 101.867 143.151 101.578 142.422 101.578C141.708 101.578 141.133 101.862 140.695 102.43C140.258 102.997 140.039 103.81 140.039 104.867ZM153.312 108.164C152.75 108.826 151.924 109.156 150.836 109.156C149.935 109.156 149.247 108.896 148.773 108.375C148.305 107.849 148.068 107.073 148.062 106.047V100.547H149.508V106.008C149.508 107.289 150.029 107.93 151.07 107.93C152.174 107.93 152.909 107.518 153.273 106.695V100.547H154.719V109H153.344L153.312 108.164ZM162.852 98.5V100.547H164.43V101.664H162.852V106.906C162.852 107.245 162.922 107.5 163.062 107.672C163.203 107.839 163.443 107.922 163.781 107.922C163.948 107.922 164.177 107.891 164.469 107.828V109C164.089 109.104 163.719 109.156 163.359 109.156C162.714 109.156 162.227 108.961 161.898 108.57C161.57 108.18 161.406 107.625 161.406 106.906V101.664H159.867V100.547H161.406V98.5H162.852ZM165.586 104.695C165.586 103.867 165.747 103.122 166.07 102.461C166.398 101.799 166.852 101.289 167.43 100.93C168.013 100.57 168.677 100.391 169.422 100.391C170.573 100.391 171.503 100.789 172.211 101.586C172.924 102.383 173.281 103.443 173.281 104.766V104.867C173.281 105.69 173.122 106.43 172.805 107.086C172.492 107.737 172.042 108.245 171.453 108.609C170.87 108.974 170.198 109.156 169.438 109.156C168.292 109.156 167.362 108.758 166.648 107.961C165.94 107.164 165.586 106.109 165.586 104.797V104.695ZM167.039 104.867C167.039 105.805 167.255 106.557 167.688 107.125C168.125 107.693 168.708 107.977 169.438 107.977C170.172 107.977 170.755 107.69 171.188 107.117C171.62 106.539 171.836 105.732 171.836 104.695C171.836 103.768 171.615 103.018 171.172 102.445C170.734 101.867 170.151 101.578 169.422 101.578C168.708 101.578 168.133 101.862 167.695 102.43C167.258 102.997 167.039 103.81 167.039 104.867ZM186.219 104.867C186.219 106.159 185.922 107.198 185.328 107.984C184.734 108.766 183.938 109.156 182.938 109.156C181.87 109.156 181.044 108.779 180.461 108.023L180.391 109H179.062V97H180.508V101.477C181.091 100.753 181.896 100.391 182.922 100.391C183.948 100.391 184.753 100.779 185.336 101.555C185.924 102.331 186.219 103.393 186.219 104.742V104.867ZM184.773 104.703C184.773 103.719 184.583 102.958 184.203 102.422C183.823 101.885 183.276 101.617 182.562 101.617C181.609 101.617 180.924 102.06 180.508 102.945V106.602C180.951 107.487 181.641 107.93 182.578 107.93C183.271 107.93 183.81 107.661 184.195 107.125C184.581 106.589 184.773 105.781 184.773 104.703ZM191.555 109.156C190.409 109.156 189.477 108.781 188.758 108.031C188.039 107.276 187.68 106.268 187.68 105.008V104.742C187.68 103.904 187.839 103.156 188.156 102.5C188.479 101.839 188.927 101.323 189.5 100.953C190.078 100.578 190.703 100.391 191.375 100.391C192.474 100.391 193.328 100.753 193.938 101.477C194.547 102.201 194.852 103.237 194.852 104.586V105.188H189.125C189.146 106.021 189.388 106.695 189.852 107.211C190.32 107.721 190.914 107.977 191.633 107.977C192.143 107.977 192.576 107.872 192.93 107.664C193.284 107.456 193.594 107.18 193.859 106.836L194.742 107.523C194.034 108.612 192.971 109.156 191.555 109.156ZM191.375 101.578C190.792 101.578 190.302 101.792 189.906 102.219C189.51 102.641 189.266 103.234 189.172 104H193.406V103.891C193.365 103.156 193.167 102.589 192.812 102.188C192.458 101.781 191.979 101.578 191.375 101.578ZM198.492 98.5V100.547H200.07V101.664H198.492V106.906C198.492 107.245 198.562 107.5 198.703 107.672C198.844 107.839 199.083 107.922 199.422 107.922C199.589 107.922 199.818 107.891 200.109 107.828V109C199.729 109.104 199.359 109.156 199 109.156C198.354 109.156 197.867 108.961 197.539 108.57C197.211 108.18 197.047 107.625 197.047 106.906V101.664H195.508V100.547H197.047V98.5H198.492ZM203.727 98.5V100.547H205.305V101.664H203.727V106.906C203.727 107.245 203.797 107.5 203.938 107.672C204.078 107.839 204.318 107.922 204.656 107.922C204.823 107.922 205.052 107.891 205.344 107.828V109C204.964 109.104 204.594 109.156 204.234 109.156C203.589 109.156 203.102 108.961 202.773 108.57C202.445 108.18 202.281 107.625 202.281 106.906V101.664H200.742V100.547H202.281V98.5H203.727ZM210.508 109.156C209.362 109.156 208.43 108.781 207.711 108.031C206.992 107.276 206.633 106.268 206.633 105.008V104.742C206.633 103.904 206.792 103.156 207.109 102.5C207.432 101.839 207.88 101.323 208.453 100.953C209.031 100.578 209.656 100.391 210.328 100.391C211.427 100.391 212.281 100.753 212.891 101.477C213.5 102.201 213.805 103.237 213.805 104.586V105.188H208.078C208.099 106.021 208.341 106.695 208.805 107.211C209.273 107.721 209.867 107.977 210.586 107.977C211.096 107.977 211.529 107.872 211.883 107.664C212.237 107.456 212.547 107.18 212.812 106.836L213.695 107.523C212.987 108.612 211.924 109.156 210.508 109.156ZM210.328 101.578C209.745 101.578 209.255 101.792 208.859 102.219C208.464 102.641 208.219 103.234 208.125 104H212.359V103.891C212.318 103.156 212.12 102.589 211.766 102.188C211.411 101.781 210.932 101.578 210.328 101.578ZM219.57 101.844C219.352 101.807 219.115 101.789 218.859 101.789C217.911 101.789 217.268 102.193 216.93 103V109H215.484V100.547H216.891L216.914 101.523C217.388 100.768 218.06 100.391 218.93 100.391C219.211 100.391 219.424 100.427 219.57 100.5V101.844ZM230.094 108.164C229.531 108.826 228.706 109.156 227.617 109.156C226.716 109.156 226.029 108.896 225.555 108.375C225.086 107.849 224.849 107.073 224.844 106.047V100.547H226.289V106.008C226.289 107.289 226.81 107.93 227.852 107.93C228.956 107.93 229.69 107.518 230.055 106.695V100.547H231.5V109H230.125L230.094 108.164ZM235.07 100.547L235.117 101.609C235.763 100.797 236.607 100.391 237.648 100.391C239.435 100.391 240.336 101.398 240.352 103.414V109H238.906V103.406C238.901 102.797 238.76 102.346 238.484 102.055C238.214 101.763 237.789 101.617 237.211 101.617C236.742 101.617 236.331 101.742 235.977 101.992C235.622 102.242 235.346 102.57 235.148 102.977V109H233.703V100.547H235.07ZM242.18 104.703C242.18 103.406 242.487 102.365 243.102 101.578C243.716 100.786 244.521 100.391 245.516 100.391C246.505 100.391 247.289 100.729 247.867 101.406V97H249.312V109H247.984L247.914 108.094C247.336 108.802 246.531 109.156 245.5 109.156C244.521 109.156 243.721 108.755 243.102 107.953C242.487 107.151 242.18 106.104 242.18 104.812V104.703ZM243.625 104.867C243.625 105.826 243.823 106.576 244.219 107.117C244.615 107.659 245.161 107.93 245.859 107.93C246.776 107.93 247.445 107.518 247.867 106.695V102.812C247.435 102.016 246.771 101.617 245.875 101.617C245.167 101.617 244.615 101.891 244.219 102.438C243.823 102.984 243.625 103.794 243.625 104.867ZM255.07 109.156C253.924 109.156 252.992 108.781 252.273 108.031C251.555 107.276 251.195 106.268 251.195 105.008V104.742C251.195 103.904 251.354 103.156 251.672 102.5C251.995 101.839 252.443 101.323 253.016 100.953C253.594 100.578 254.219 100.391 254.891 100.391C255.99 100.391 256.844 100.753 257.453 101.477C258.062 102.201 258.367 103.237 258.367 104.586V105.188H252.641C252.661 106.021 252.904 106.695 253.367 107.211C253.836 107.721 254.43 107.977 255.148 107.977C255.659 107.977 256.091 107.872 256.445 107.664C256.799 107.456 257.109 107.18 257.375 106.836L258.258 107.523C257.549 108.612 256.487 109.156 255.07 109.156ZM254.891 101.578C254.307 101.578 253.818 101.792 253.422 102.219C253.026 102.641 252.781 103.234 252.688 104H256.922V103.891C256.88 103.156 256.682 102.589 256.328 102.188C255.974 101.781 255.495 101.578 254.891 101.578ZM264.133 101.844C263.914 101.807 263.677 101.789 263.422 101.789C262.474 101.789 261.831 102.193 261.492 103V109H260.047V100.547H261.453L261.477 101.523C261.951 100.768 262.622 100.391 263.492 100.391C263.773 100.391 263.987 100.427 264.133 100.5V101.844ZM270.391 106.758C270.391 106.367 270.242 106.065 269.945 105.852C269.654 105.633 269.141 105.445 268.406 105.289C267.677 105.133 267.096 104.945 266.664 104.727C266.237 104.508 265.919 104.247 265.711 103.945C265.508 103.643 265.406 103.284 265.406 102.867C265.406 102.174 265.698 101.589 266.281 101.109C266.87 100.63 267.62 100.391 268.531 100.391C269.49 100.391 270.266 100.638 270.859 101.133C271.458 101.628 271.758 102.26 271.758 103.031H270.305C270.305 102.635 270.135 102.294 269.797 102.008C269.464 101.721 269.042 101.578 268.531 101.578C268.005 101.578 267.594 101.693 267.297 101.922C267 102.151 266.852 102.451 266.852 102.82C266.852 103.169 266.99 103.432 267.266 103.609C267.542 103.786 268.039 103.956 268.758 104.117C269.482 104.279 270.068 104.471 270.516 104.695C270.964 104.919 271.294 105.19 271.508 105.508C271.727 105.82 271.836 106.203 271.836 106.656C271.836 107.411 271.534 108.018 270.93 108.477C270.326 108.93 269.542 109.156 268.578 109.156C267.901 109.156 267.302 109.036 266.781 108.797C266.26 108.557 265.852 108.224 265.555 107.797C265.263 107.365 265.117 106.898 265.117 106.398H266.562C266.589 106.883 266.781 107.268 267.141 107.555C267.505 107.836 267.984 107.977 268.578 107.977C269.125 107.977 269.562 107.867 269.891 107.648C270.224 107.424 270.391 107.128 270.391 106.758ZM275.68 98.5V100.547H277.258V101.664H275.68V106.906C275.68 107.245 275.75 107.5 275.891 107.672C276.031 107.839 276.271 107.922 276.609 107.922C276.776 107.922 277.005 107.891 277.297 107.828V109C276.917 109.104 276.547 109.156 276.188 109.156C275.542 109.156 275.055 108.961 274.727 108.57C274.398 108.18 274.234 107.625 274.234 106.906V101.664H272.695V100.547H274.234V98.5H275.68ZM284.172 109C284.089 108.833 284.021 108.536 283.969 108.109C283.297 108.807 282.495 109.156 281.562 109.156C280.729 109.156 280.044 108.922 279.508 108.453C278.977 107.979 278.711 107.38 278.711 106.656C278.711 105.776 279.044 105.094 279.711 104.609C280.383 104.12 281.326 103.875 282.539 103.875H283.945V103.211C283.945 102.706 283.794 102.305 283.492 102.008C283.19 101.706 282.745 101.555 282.156 101.555C281.641 101.555 281.208 101.685 280.859 101.945C280.51 102.206 280.336 102.521 280.336 102.891H278.883C278.883 102.469 279.031 102.062 279.328 101.672C279.63 101.276 280.036 100.964 280.547 100.734C281.062 100.505 281.628 100.391 282.242 100.391C283.216 100.391 283.979 100.635 284.531 101.125C285.083 101.609 285.37 102.279 285.391 103.133V107.023C285.391 107.799 285.49 108.417 285.688 108.875V109H284.172ZM281.773 107.898C282.227 107.898 282.656 107.781 283.062 107.547C283.469 107.312 283.763 107.008 283.945 106.633V104.898H282.812C281.042 104.898 280.156 105.417 280.156 106.453C280.156 106.906 280.307 107.26 280.609 107.516C280.911 107.771 281.299 107.898 281.773 107.898ZM289.023 100.547L289.07 101.609C289.716 100.797 290.56 100.391 291.602 100.391C293.388 100.391 294.289 101.398 294.305 103.414V109H292.859V103.406C292.854 102.797 292.714 102.346 292.438 102.055C292.167 101.763 291.742 101.617 291.164 101.617C290.695 101.617 290.284 101.742 289.93 101.992C289.576 102.242 289.299 102.57 289.102 102.977V109H287.656V100.547H289.023ZM296.133 104.703C296.133 103.406 296.44 102.365 297.055 101.578C297.669 100.786 298.474 100.391 299.469 100.391C300.458 100.391 301.242 100.729 301.82 101.406V97H303.266V109H301.938L301.867 108.094C301.289 108.802 300.484 109.156 299.453 109.156C298.474 109.156 297.674 108.755 297.055 107.953C296.44 107.151 296.133 106.104 296.133 104.812V104.703ZM297.578 104.867C297.578 105.826 297.776 106.576 298.172 107.117C298.568 107.659 299.115 107.93 299.812 107.93C300.729 107.93 301.398 107.518 301.82 106.695V102.812C301.388 102.016 300.724 101.617 299.828 101.617C299.12 101.617 298.568 101.891 298.172 102.438C297.776 102.984 297.578 103.794 297.578 104.867ZM312.25 106.883L314.219 100.547H315.766L312.367 110.305C311.841 111.711 311.005 112.414 309.859 112.414L309.586 112.391L309.047 112.289V111.117L309.438 111.148C309.927 111.148 310.307 111.049 310.578 110.852C310.854 110.654 311.081 110.292 311.258 109.766L311.578 108.906L308.562 100.547H310.141L312.25 106.883ZM316.555 104.695C316.555 103.867 316.716 103.122 317.039 102.461C317.367 101.799 317.82 101.289 318.398 100.93C318.982 100.57 319.646 100.391 320.391 100.391C321.542 100.391 322.471 100.789 323.18 101.586C323.893 102.383 324.25 103.443 324.25 104.766V104.867C324.25 105.69 324.091 106.43 323.773 107.086C323.461 107.737 323.01 108.245 322.422 108.609C321.839 108.974 321.167 109.156 320.406 109.156C319.26 109.156 318.331 108.758 317.617 107.961C316.909 107.164 316.555 106.109 316.555 104.797V104.695ZM318.008 104.867C318.008 105.805 318.224 106.557 318.656 107.125C319.094 107.693 319.677 107.977 320.406 107.977C321.141 107.977 321.724 107.69 322.156 107.117C322.589 106.539 322.805 105.732 322.805 104.695C322.805 103.768 322.583 103.018 322.141 102.445C321.703 101.867 321.12 101.578 320.391 101.578C319.677 101.578 319.102 101.862 318.664 102.43C318.227 102.997 318.008 103.81 318.008 104.867ZM331.281 108.164C330.719 108.826 329.893 109.156 328.805 109.156C327.904 109.156 327.216 108.896 326.742 108.375C326.273 107.849 326.036 107.073 326.031 106.047V100.547H327.477V106.008C327.477 107.289 327.997 107.93 329.039 107.93C330.143 107.93 330.878 107.518 331.242 106.695V100.547H332.688V109H331.312L331.281 108.164ZM338.977 101.844C338.758 101.807 338.521 101.789 338.266 101.789C337.318 101.789 336.674 102.193 336.336 103V109H334.891V100.547H336.297L336.32 101.523C336.794 100.768 337.466 100.391 338.336 100.391C338.617 100.391 338.831 100.427 338.977 100.5V101.844ZM346.242 98.5V100.547H347.82V101.664H346.242V106.906C346.242 107.245 346.312 107.5 346.453 107.672C346.594 107.839 346.833 107.922 347.172 107.922C347.339 107.922 347.568 107.891 347.859 107.828V109C347.479 109.104 347.109 109.156 346.75 109.156C346.104 109.156 345.617 108.961 345.289 108.57C344.961 108.18 344.797 107.625 344.797 106.906V101.664H343.258V100.547H344.797V98.5H346.242ZM354.734 109C354.651 108.833 354.583 108.536 354.531 108.109C353.859 108.807 353.057 109.156 352.125 109.156C351.292 109.156 350.607 108.922 350.07 108.453C349.539 107.979 349.273 107.38 349.273 106.656C349.273 105.776 349.607 105.094 350.273 104.609C350.945 104.12 351.888 103.875 353.102 103.875H354.508V103.211C354.508 102.706 354.357 102.305 354.055 102.008C353.753 101.706 353.307 101.555 352.719 101.555C352.203 101.555 351.771 101.685 351.422 101.945C351.073 102.206 350.898 102.521 350.898 102.891H349.445C349.445 102.469 349.594 102.062 349.891 101.672C350.193 101.276 350.599 100.964 351.109 100.734C351.625 100.505 352.19 100.391 352.805 100.391C353.779 100.391 354.542 100.635 355.094 101.125C355.646 101.609 355.932 102.279 355.953 103.133V107.023C355.953 107.799 356.052 108.417 356.25 108.875V109H354.734ZM352.336 107.898C352.789 107.898 353.219 107.781 353.625 107.547C354.031 107.312 354.326 107.008 354.508 106.633V104.898H353.375C351.604 104.898 350.719 105.417 350.719 106.453C350.719 106.906 350.87 107.26 351.172 107.516C351.474 107.771 351.862 107.898 352.336 107.898ZM362.305 101.844C362.086 101.807 361.849 101.789 361.594 101.789C360.646 101.789 360.003 102.193 359.664 103V109H358.219V100.547H359.625L359.648 101.523C360.122 100.768 360.794 100.391 361.664 100.391C361.945 100.391 362.159 100.427 362.305 100.5V101.844ZM363.141 104.703C363.141 103.385 363.445 102.339 364.055 101.562C364.664 100.781 365.471 100.391 366.477 100.391C367.508 100.391 368.312 100.755 368.891 101.484L368.961 100.547H370.281V108.797C370.281 109.891 369.956 110.753 369.305 111.383C368.659 112.013 367.789 112.328 366.695 112.328C366.086 112.328 365.49 112.198 364.906 111.938C364.323 111.677 363.878 111.32 363.57 110.867L364.32 110C364.94 110.766 365.698 111.148 366.594 111.148C367.297 111.148 367.844 110.951 368.234 110.555C368.63 110.159 368.828 109.602 368.828 108.883V108.156C368.25 108.823 367.461 109.156 366.461 109.156C365.471 109.156 364.669 108.758 364.055 107.961C363.445 107.164 363.141 106.078 363.141 104.703ZM364.594 104.867C364.594 105.82 364.789 106.57 365.18 107.117C365.57 107.659 366.117 107.93 366.82 107.93C367.732 107.93 368.401 107.516 368.828 106.688V102.828C368.385 102.021 367.721 101.617 366.836 101.617C366.133 101.617 365.583 101.891 365.188 102.438C364.792 102.984 364.594 103.794 364.594 104.867ZM375.977 109.156C374.831 109.156 373.898 108.781 373.18 108.031C372.461 107.276 372.102 106.268 372.102 105.008V104.742C372.102 103.904 372.26 103.156 372.578 102.5C372.901 101.839 373.349 101.323 373.922 100.953C374.5 100.578 375.125 100.391 375.797 100.391C376.896 100.391 377.75 100.753 378.359 101.477C378.969 102.201 379.273 103.237 379.273 104.586V105.188H373.547C373.568 106.021 373.81 106.695 374.273 107.211C374.742 107.721 375.336 107.977 376.055 107.977C376.565 107.977 376.997 107.872 377.352 107.664C377.706 107.456 378.016 107.18 378.281 106.836L379.164 107.523C378.456 108.612 377.393 109.156 375.977 109.156ZM375.797 101.578C375.214 101.578 374.724 101.792 374.328 102.219C373.932 102.641 373.688 103.234 373.594 104H377.828V103.891C377.786 103.156 377.589 102.589 377.234 102.188C376.88 101.781 376.401 101.578 375.797 101.578ZM382.914 98.5V100.547H384.492V101.664H382.914V106.906C382.914 107.245 382.984 107.5 383.125 107.672C383.266 107.839 383.505 107.922 383.844 107.922C384.01 107.922 384.24 107.891 384.531 107.828V109C384.151 109.104 383.781 109.156 383.422 109.156C382.776 109.156 382.289 108.961 381.961 108.57C381.633 108.18 381.469 107.625 381.469 106.906V101.664H379.93V100.547H381.469V98.5H382.914ZM395.375 109C395.292 108.833 395.224 108.536 395.172 108.109C394.5 108.807 393.698 109.156 392.766 109.156C391.932 109.156 391.247 108.922 390.711 108.453C390.18 107.979 389.914 107.38 389.914 106.656C389.914 105.776 390.247 105.094 390.914 104.609C391.586 104.12 392.529 103.875 393.742 103.875H395.148V103.211C395.148 102.706 394.997 102.305 394.695 102.008C394.393 101.706 393.948 101.555 393.359 101.555C392.844 101.555 392.411 101.685 392.062 101.945C391.714 102.206 391.539 102.521 391.539 102.891H390.086C390.086 102.469 390.234 102.062 390.531 101.672C390.833 101.276 391.24 100.964 391.75 100.734C392.266 100.505 392.831 100.391 393.445 100.391C394.419 100.391 395.182 100.635 395.734 101.125C396.286 101.609 396.573 102.279 396.594 103.133V107.023C396.594 107.799 396.693 108.417 396.891 108.875V109H395.375ZM392.977 107.898C393.43 107.898 393.859 107.781 394.266 107.547C394.672 107.312 394.966 107.008 395.148 106.633V104.898H394.016C392.245 104.898 391.359 105.417 391.359 106.453C391.359 106.906 391.51 107.26 391.812 107.516C392.115 107.771 392.503 107.898 392.977 107.898ZM404.078 108.164C403.516 108.826 402.69 109.156 401.602 109.156C400.701 109.156 400.013 108.896 399.539 108.375C399.07 107.849 398.833 107.073 398.828 106.047V100.547H400.273V106.008C400.273 107.289 400.794 107.93 401.836 107.93C402.94 107.93 403.674 107.518 404.039 106.695V100.547H405.484V109H404.109L404.078 108.164ZM407.336 104.703C407.336 103.406 407.643 102.365 408.258 101.578C408.872 100.786 409.677 100.391 410.672 100.391C411.661 100.391 412.445 100.729 413.023 101.406V97H414.469V109H413.141L413.07 108.094C412.492 108.802 411.688 109.156 410.656 109.156C409.677 109.156 408.878 108.755 408.258 107.953C407.643 107.151 407.336 106.104 407.336 104.812V104.703ZM408.781 104.867C408.781 105.826 408.979 106.576 409.375 107.117C409.771 107.659 410.318 107.93 411.016 107.93C411.932 107.93 412.602 107.518 413.023 106.695V102.812C412.591 102.016 411.927 101.617 411.031 101.617C410.323 101.617 409.771 101.891 409.375 102.438C408.979 102.984 408.781 103.794 408.781 104.867ZM418.289 109H416.844V100.547H418.289V109ZM416.727 98.3047C416.727 98.0703 416.797 97.8724 416.938 97.7109C417.083 97.5495 417.297 97.4688 417.578 97.4688C417.859 97.4688 418.073 97.5495 418.219 97.7109C418.365 97.8724 418.438 98.0703 418.438 98.3047C418.438 98.5391 418.365 98.7344 418.219 98.8906C418.073 99.0469 417.859 99.125 417.578 99.125C417.297 99.125 417.083 99.0469 416.938 98.8906C416.797 98.7344 416.727 98.5391 416.727 98.3047ZM424.117 109.156C422.971 109.156 422.039 108.781 421.32 108.031C420.602 107.276 420.242 106.268 420.242 105.008V104.742C420.242 103.904 420.401 103.156 420.719 102.5C421.042 101.839 421.49 101.323 422.062 100.953C422.641 100.578 423.266 100.391 423.938 100.391C425.036 100.391 425.891 100.753 426.5 101.477C427.109 102.201 427.414 103.237 427.414 104.586V105.188H421.688C421.708 106.021 421.951 106.695 422.414 107.211C422.883 107.721 423.477 107.977 424.195 107.977C424.706 107.977 425.138 107.872 425.492 107.664C425.846 107.456 426.156 107.18 426.422 106.836L427.305 107.523C426.596 108.612 425.534 109.156 424.117 109.156ZM423.938 101.578C423.354 101.578 422.865 101.792 422.469 102.219C422.073 102.641 421.828 103.234 421.734 104H425.969V103.891C425.927 103.156 425.729 102.589 425.375 102.188C425.021 101.781 424.542 101.578 423.938 101.578ZM430.461 100.547L430.508 101.609C431.154 100.797 431.997 100.391 433.039 100.391C434.826 100.391 435.727 101.398 435.742 103.414V109H434.297V103.406C434.292 102.797 434.151 102.346 433.875 102.055C433.604 101.763 433.18 101.617 432.602 101.617C432.133 101.617 431.721 101.742 431.367 101.992C431.013 102.242 430.737 102.57 430.539 102.977V109H429.094V100.547H430.461ZM441.312 107.977C441.828 107.977 442.279 107.82 442.664 107.508C443.049 107.195 443.263 106.805 443.305 106.336H444.672C444.646 106.82 444.479 107.281 444.172 107.719C443.865 108.156 443.453 108.505 442.938 108.766C442.427 109.026 441.885 109.156 441.312 109.156C440.161 109.156 439.245 108.773 438.562 108.008C437.885 107.237 437.547 106.185 437.547 104.852V104.609C437.547 103.786 437.698 103.055 438 102.414C438.302 101.773 438.734 101.276 439.297 100.922C439.865 100.568 440.534 100.391 441.305 100.391C442.253 100.391 443.039 100.674 443.664 101.242C444.294 101.81 444.63 102.547 444.672 103.453H443.305C443.263 102.906 443.055 102.458 442.68 102.109C442.31 101.755 441.852 101.578 441.305 101.578C440.57 101.578 440 101.844 439.594 102.375C439.193 102.901 438.992 103.664 438.992 104.664V104.938C438.992 105.911 439.193 106.661 439.594 107.188C439.995 107.714 440.568 107.977 441.312 107.977ZM449.805 109.156C448.659 109.156 447.727 108.781 447.008 108.031C446.289 107.276 445.93 106.268 445.93 105.008V104.742C445.93 103.904 446.089 103.156 446.406 102.5C446.729 101.839 447.177 101.323 447.75 100.953C448.328 100.578 448.953 100.391 449.625 100.391C450.724 100.391 451.578 100.753 452.188 101.477C452.797 102.201 453.102 103.237 453.102 104.586V105.188H447.375C447.396 106.021 447.638 106.695 448.102 107.211C448.57 107.721 449.164 107.977 449.883 107.977C450.393 107.977 450.826 107.872 451.18 107.664C451.534 107.456 451.844 107.18 452.109 106.836L452.992 107.523C452.284 108.612 451.221 109.156 449.805 109.156ZM449.625 101.578C449.042 101.578 448.552 101.792 448.156 102.219C447.76 102.641 447.516 103.234 447.422 104H451.656V103.891C451.615 103.156 451.417 102.589 451.062 102.188C450.708 101.781 450.229 101.578 449.625 101.578ZM454.734 111.266L453.914 110.703C454.404 110.021 454.659 109.318 454.68 108.594V107.289H456.094V108.422C456.094 108.948 455.964 109.474 455.703 110C455.448 110.526 455.125 110.948 454.734 111.266ZM44.6016 139.156C43.4557 139.156 42.5234 138.781 41.8047 138.031C41.0859 137.276 40.7266 136.268 40.7266 135.008V134.742C40.7266 133.904 40.8854 133.156 41.2031 132.5C41.526 131.839 41.974 131.323 42.5469 130.953C43.125 130.578 43.75 130.391 44.4219 130.391C45.5208 130.391 46.375 130.753 46.9844 131.477C47.5938 132.201 47.8984 133.237 47.8984 134.586V135.188H42.1719C42.1927 136.021 42.4349 136.695 42.8984 137.211C43.3672 137.721 43.9609 137.977 44.6797 137.977C45.1901 137.977 45.6224 137.872 45.9766 137.664C46.3307 137.456 46.6406 137.18 46.9062 136.836L47.7891 137.523C47.0807 138.612 46.0182 139.156 44.6016 139.156ZM44.4219 131.578C43.8385 131.578 43.349 131.792 42.9531 132.219C42.5573 132.641 42.3125 133.234 42.2188 134H46.4531V133.891C46.4115 133.156 46.2135 132.589 45.8594 132.188C45.5052 131.781 45.026 131.578 44.4219 131.578ZM50.9453 130.547L50.9922 131.609C51.638 130.797 52.4818 130.391 53.5234 130.391C55.3099 130.391 56.2109 131.398 56.2266 133.414V139H54.7812V133.406C54.776 132.797 54.6354 132.346 54.3594 132.055C54.0885 131.763 53.6641 131.617 53.0859 131.617C52.6172 131.617 52.2057 131.742 51.8516 131.992C51.4974 132.242 51.2214 132.57 51.0234 132.977V139H49.5781V130.547H50.9453ZM63.625 139C63.5417 138.833 63.474 138.536 63.4219 138.109C62.75 138.807 61.9479 139.156 61.0156 139.156C60.1823 139.156 59.4974 138.922 58.9609 138.453C58.4297 137.979 58.1641 137.38 58.1641 136.656C58.1641 135.776 58.4974 135.094 59.1641 134.609C59.8359 134.12 60.7786 133.875 61.9922 133.875H63.3984V133.211C63.3984 132.706 63.2474 132.305 62.9453 132.008C62.6432 131.706 62.1979 131.555 61.6094 131.555C61.0938 131.555 60.6615 131.685 60.3125 131.945C59.9635 132.206 59.7891 132.521 59.7891 132.891H58.3359C58.3359 132.469 58.4844 132.062 58.7812 131.672C59.0833 131.276 59.4896 130.964 60 130.734C60.5156 130.505 61.0807 130.391 61.6953 130.391C62.6693 130.391 63.4323 130.635 63.9844 131.125C64.5365 131.609 64.8229 132.279 64.8438 133.133V137.023C64.8438 137.799 64.9427 138.417 65.1406 138.875V139H63.625ZM61.2266 137.898C61.6797 137.898 62.1094 137.781 62.5156 137.547C62.9219 137.312 63.2161 137.008 63.3984 136.633V134.898H62.2656C60.4948 134.898 59.6094 135.417 59.6094 136.453C59.6094 136.906 59.7604 137.26 60.0625 137.516C60.3646 137.771 60.7526 137.898 61.2266 137.898ZM74.2656 134.867C74.2656 136.159 73.9688 137.198 73.375 137.984C72.7812 138.766 71.9844 139.156 70.9844 139.156C69.9167 139.156 69.0911 138.779 68.5078 138.023L68.4375 139H67.1094V127H68.5547V131.477C69.138 130.753 69.9427 130.391 70.9688 130.391C71.9948 130.391 72.7995 130.779 73.3828 131.555C73.9714 132.331 74.2656 133.393 74.2656 134.742V134.867ZM72.8203 134.703C72.8203 133.719 72.6302 132.958 72.25 132.422C71.8698 131.885 71.3229 131.617 70.6094 131.617C69.6562 131.617 68.9714 132.06 68.5547 132.945V136.602C68.9974 137.487 69.6875 137.93 70.625 137.93C71.3177 137.93 71.8568 137.661 72.2422 137.125C72.6276 136.589 72.8203 135.781 72.8203 134.703ZM77.6641 139H76.2188V127H77.6641V139ZM81.5547 139H80.1094V130.547H81.5547V139ZM79.9922 128.305C79.9922 128.07 80.0625 127.872 80.2031 127.711C80.349 127.549 80.5625 127.469 80.8438 127.469C81.125 127.469 81.3385 127.549 81.4844 127.711C81.6302 127.872 81.7031 128.07 81.7031 128.305C81.7031 128.539 81.6302 128.734 81.4844 128.891C81.3385 129.047 81.125 129.125 80.8438 129.125C80.5625 129.125 80.349 129.047 80.2031 128.891C80.0625 128.734 79.9922 128.539 79.9922 128.305ZM85.2422 130.547L85.2891 131.609C85.9349 130.797 86.7786 130.391 87.8203 130.391C89.6068 130.391 90.5078 131.398 90.5234 133.414V139H89.0781V133.406C89.0729 132.797 88.9323 132.346 88.6562 132.055C88.3854 131.763 87.9609 131.617 87.3828 131.617C86.9141 131.617 86.5026 131.742 86.1484 131.992C85.7943 132.242 85.5182 132.57 85.3203 132.977V139H83.875V130.547H85.2422ZM92.3594 134.703C92.3594 133.385 92.6641 132.339 93.2734 131.562C93.8828 130.781 94.6901 130.391 95.6953 130.391C96.7266 130.391 97.5312 130.755 98.1094 131.484L98.1797 130.547H99.5V138.797C99.5 139.891 99.1745 140.753 98.5234 141.383C97.8776 142.013 97.0078 142.328 95.9141 142.328C95.3047 142.328 94.7083 142.198 94.125 141.938C93.5417 141.677 93.0964 141.32 92.7891 140.867L93.5391 140C94.1589 140.766 94.9167 141.148 95.8125 141.148C96.5156 141.148 97.0625 140.951 97.4531 140.555C97.849 140.159 98.0469 139.602 98.0469 138.883V138.156C97.4688 138.823 96.6797 139.156 95.6797 139.156C94.6901 139.156 93.888 138.758 93.2734 137.961C92.6641 137.164 92.3594 136.078 92.3594 134.703ZM93.8125 134.867C93.8125 135.82 94.0078 136.57 94.3984 137.117C94.7891 137.659 95.3359 137.93 96.0391 137.93C96.9505 137.93 97.6198 137.516 98.0469 136.688V132.828C97.6042 132.021 96.9401 131.617 96.0547 131.617C95.3516 131.617 94.8021 131.891 94.4062 132.438C94.0104 132.984 93.8125 133.794 93.8125 134.867ZM108.422 136.883L110.391 130.547H111.938L108.539 140.305C108.013 141.711 107.177 142.414 106.031 142.414L105.758 142.391L105.219 142.289V141.117L105.609 141.148C106.099 141.148 106.479 141.049 106.75 140.852C107.026 140.654 107.253 140.292 107.43 139.766L107.75 138.906L104.734 130.547H106.312L108.422 136.883ZM112.727 134.695C112.727 133.867 112.888 133.122 113.211 132.461C113.539 131.799 113.992 131.289 114.57 130.93C115.154 130.57 115.818 130.391 116.562 130.391C117.714 130.391 118.643 130.789 119.352 131.586C120.065 132.383 120.422 133.443 120.422 134.766V134.867C120.422 135.69 120.263 136.43 119.945 137.086C119.633 137.737 119.182 138.245 118.594 138.609C118.01 138.974 117.339 139.156 116.578 139.156C115.432 139.156 114.503 138.758 113.789 137.961C113.081 137.164 112.727 136.109 112.727 134.797V134.695ZM114.18 134.867C114.18 135.805 114.396 136.557 114.828 137.125C115.266 137.693 115.849 137.977 116.578 137.977C117.312 137.977 117.896 137.69 118.328 137.117C118.76 136.539 118.977 135.732 118.977 134.695C118.977 133.768 118.755 133.018 118.312 132.445C117.875 131.867 117.292 131.578 116.562 131.578C115.849 131.578 115.273 131.862 114.836 132.43C114.398 132.997 114.18 133.81 114.18 134.867ZM127.453 138.164C126.891 138.826 126.065 139.156 124.977 139.156C124.076 139.156 123.388 138.896 122.914 138.375C122.445 137.849 122.208 137.073 122.203 136.047V130.547H123.648V136.008C123.648 137.289 124.169 137.93 125.211 137.93C126.315 137.93 127.049 137.518 127.414 136.695V130.547H128.859V139H127.484L127.453 138.164ZM136.992 128.5V130.547H138.57V131.664H136.992V136.906C136.992 137.245 137.062 137.5 137.203 137.672C137.344 137.839 137.583 137.922 137.922 137.922C138.089 137.922 138.318 137.891 138.609 137.828V139C138.229 139.104 137.859 139.156 137.5 139.156C136.854 139.156 136.367 138.961 136.039 138.57C135.711 138.18 135.547 137.625 135.547 136.906V131.664H134.008V130.547H135.547V128.5H136.992ZM139.727 134.695C139.727 133.867 139.888 133.122 140.211 132.461C140.539 131.799 140.992 131.289 141.57 130.93C142.154 130.57 142.818 130.391 143.562 130.391C144.714 130.391 145.643 130.789 146.352 131.586C147.065 132.383 147.422 133.443 147.422 134.766V134.867C147.422 135.69 147.263 136.43 146.945 137.086C146.633 137.737 146.182 138.245 145.594 138.609C145.01 138.974 144.339 139.156 143.578 139.156C142.432 139.156 141.503 138.758 140.789 137.961C140.081 137.164 139.727 136.109 139.727 134.797V134.695ZM141.18 134.867C141.18 135.805 141.396 136.557 141.828 137.125C142.266 137.693 142.849 137.977 143.578 137.977C144.312 137.977 144.896 137.69 145.328 137.117C145.76 136.539 145.977 135.732 145.977 134.695C145.977 133.768 145.755 133.018 145.312 132.445C144.875 131.867 144.292 131.578 143.562 131.578C142.849 131.578 142.273 131.862 141.836 132.43C141.398 132.997 141.18 133.81 141.18 134.867ZM156.594 137.977C157.109 137.977 157.56 137.82 157.945 137.508C158.331 137.195 158.544 136.805 158.586 136.336H159.953C159.927 136.82 159.76 137.281 159.453 137.719C159.146 138.156 158.734 138.505 158.219 138.766C157.708 139.026 157.167 139.156 156.594 139.156C155.443 139.156 154.526 138.773 153.844 138.008C153.167 137.237 152.828 136.185 152.828 134.852V134.609C152.828 133.786 152.979 133.055 153.281 132.414C153.583 131.773 154.016 131.276 154.578 130.922C155.146 130.568 155.815 130.391 156.586 130.391C157.534 130.391 158.32 130.674 158.945 131.242C159.576 131.81 159.911 132.547 159.953 133.453H158.586C158.544 132.906 158.336 132.458 157.961 132.109C157.591 131.755 157.133 131.578 156.586 131.578C155.852 131.578 155.281 131.844 154.875 132.375C154.474 132.901 154.273 133.664 154.273 134.664V134.938C154.273 135.911 154.474 136.661 154.875 137.188C155.276 137.714 155.849 137.977 156.594 137.977ZM165.664 131.844C165.445 131.807 165.208 131.789 164.953 131.789C164.005 131.789 163.362 132.193 163.023 133V139H161.578V130.547H162.984L163.008 131.523C163.482 130.768 164.154 130.391 165.023 130.391C165.305 130.391 165.518 130.427 165.664 130.5V131.844ZM170.352 139.156C169.206 139.156 168.273 138.781 167.555 138.031C166.836 137.276 166.477 136.268 166.477 135.008V134.742C166.477 133.904 166.635 133.156 166.953 132.5C167.276 131.839 167.724 131.323 168.297 130.953C168.875 130.578 169.5 130.391 170.172 130.391C171.271 130.391 172.125 130.753 172.734 131.477C173.344 132.201 173.648 133.237 173.648 134.586V135.188H167.922C167.943 136.021 168.185 136.695 168.648 137.211C169.117 137.721 169.711 137.977 170.43 137.977C170.94 137.977 171.372 137.872 171.727 137.664C172.081 137.456 172.391 137.18 172.656 136.836L173.539 137.523C172.831 138.612 171.768 139.156 170.352 139.156ZM170.172 131.578C169.589 131.578 169.099 131.792 168.703 132.219C168.307 132.641 168.062 133.234 167.969 134H172.203V133.891C172.161 133.156 171.964 132.589 171.609 132.188C171.255 131.781 170.776 131.578 170.172 131.578ZM180.547 139C180.464 138.833 180.396 138.536 180.344 138.109C179.672 138.807 178.87 139.156 177.938 139.156C177.104 139.156 176.419 138.922 175.883 138.453C175.352 137.979 175.086 137.38 175.086 136.656C175.086 135.776 175.419 135.094 176.086 134.609C176.758 134.12 177.701 133.875 178.914 133.875H180.32V133.211C180.32 132.706 180.169 132.305 179.867 132.008C179.565 131.706 179.12 131.555 178.531 131.555C178.016 131.555 177.583 131.685 177.234 131.945C176.885 132.206 176.711 132.521 176.711 132.891H175.258C175.258 132.469 175.406 132.062 175.703 131.672C176.005 131.276 176.411 130.964 176.922 130.734C177.438 130.505 178.003 130.391 178.617 130.391C179.591 130.391 180.354 130.635 180.906 131.125C181.458 131.609 181.745 132.279 181.766 133.133V137.023C181.766 137.799 181.865 138.417 182.062 138.875V139H180.547ZM178.148 137.898C178.602 137.898 179.031 137.781 179.438 137.547C179.844 137.312 180.138 137.008 180.32 136.633V134.898H179.188C177.417 134.898 176.531 135.417 176.531 136.453C176.531 136.906 176.682 137.26 176.984 137.516C177.286 137.771 177.674 137.898 178.148 137.898ZM185.992 128.5V130.547H187.57V131.664H185.992V136.906C185.992 137.245 186.062 137.5 186.203 137.672C186.344 137.839 186.583 137.922 186.922 137.922C187.089 137.922 187.318 137.891 187.609 137.828V139C187.229 139.104 186.859 139.156 186.5 139.156C185.854 139.156 185.367 138.961 185.039 138.57C184.711 138.18 184.547 137.625 184.547 136.906V131.664H183.008V130.547H184.547V128.5H185.992ZM192.773 139.156C191.628 139.156 190.695 138.781 189.977 138.031C189.258 137.276 188.898 136.268 188.898 135.008V134.742C188.898 133.904 189.057 133.156 189.375 132.5C189.698 131.839 190.146 131.323 190.719 130.953C191.297 130.578 191.922 130.391 192.594 130.391C193.693 130.391 194.547 130.753 195.156 131.477C195.766 132.201 196.07 133.237 196.07 134.586V135.188H190.344C190.365 136.021 190.607 136.695 191.07 137.211C191.539 137.721 192.133 137.977 192.852 137.977C193.362 137.977 193.794 137.872 194.148 137.664C194.503 137.456 194.812 137.18 195.078 136.836L195.961 137.523C195.253 138.612 194.19 139.156 192.773 139.156ZM192.594 131.578C192.01 131.578 191.521 131.792 191.125 132.219C190.729 132.641 190.484 133.234 190.391 134H194.625V133.891C194.583 133.156 194.385 132.589 194.031 132.188C193.677 131.781 193.198 131.578 192.594 131.578ZM206.938 139C206.854 138.833 206.786 138.536 206.734 138.109C206.062 138.807 205.26 139.156 204.328 139.156C203.495 139.156 202.81 138.922 202.273 138.453C201.742 137.979 201.477 137.38 201.477 136.656C201.477 135.776 201.81 135.094 202.477 134.609C203.148 134.12 204.091 133.875 205.305 133.875H206.711V133.211C206.711 132.706 206.56 132.305 206.258 132.008C205.956 131.706 205.51 131.555 204.922 131.555C204.406 131.555 203.974 131.685 203.625 131.945C203.276 132.206 203.102 132.521 203.102 132.891H201.648C201.648 132.469 201.797 132.062 202.094 131.672C202.396 131.276 202.802 130.964 203.312 130.734C203.828 130.505 204.393 130.391 205.008 130.391C205.982 130.391 206.745 130.635 207.297 131.125C207.849 131.609 208.135 132.279 208.156 133.133V137.023C208.156 137.799 208.255 138.417 208.453 138.875V139H206.938ZM204.539 137.898C204.992 137.898 205.422 137.781 205.828 137.547C206.234 137.312 206.529 137.008 206.711 136.633V134.898H205.578C203.807 134.898 202.922 135.417 202.922 136.453C202.922 136.906 203.073 137.26 203.375 137.516C203.677 137.771 204.065 137.898 204.539 137.898ZM215.75 130.547L215.789 131.484C216.409 130.755 217.245 130.391 218.297 130.391C219.479 130.391 220.284 130.844 220.711 131.75C220.992 131.344 221.357 131.016 221.805 130.766C222.258 130.516 222.792 130.391 223.406 130.391C225.26 130.391 226.203 131.372 226.234 133.336V139H224.789V133.422C224.789 132.818 224.651 132.367 224.375 132.07C224.099 131.768 223.635 131.617 222.984 131.617C222.448 131.617 222.003 131.779 221.648 132.102C221.294 132.419 221.089 132.849 221.031 133.391V139H219.578V133.461C219.578 132.232 218.977 131.617 217.773 131.617C216.826 131.617 216.177 132.021 215.828 132.828V139H214.383V130.547H215.75ZM228.039 134.695C228.039 133.867 228.201 133.122 228.523 132.461C228.852 131.799 229.305 131.289 229.883 130.93C230.466 130.57 231.13 130.391 231.875 130.391C233.026 130.391 233.956 130.789 234.664 131.586C235.378 132.383 235.734 133.443 235.734 134.766V134.867C235.734 135.69 235.576 136.43 235.258 137.086C234.945 137.737 234.495 138.245 233.906 138.609C233.323 138.974 232.651 139.156 231.891 139.156C230.745 139.156 229.815 138.758 229.102 137.961C228.393 137.164 228.039 136.109 228.039 134.797V134.695ZM229.492 134.867C229.492 135.805 229.708 136.557 230.141 137.125C230.578 137.693 231.161 137.977 231.891 137.977C232.625 137.977 233.208 137.69 233.641 137.117C234.073 136.539 234.289 135.732 234.289 134.695C234.289 133.768 234.068 133.018 233.625 132.445C233.188 131.867 232.604 131.578 231.875 131.578C231.161 131.578 230.586 131.862 230.148 132.43C229.711 132.997 229.492 133.81 229.492 134.867ZM241.633 131.844C241.414 131.807 241.177 131.789 240.922 131.789C239.974 131.789 239.331 132.193 238.992 133V139H237.547V130.547H238.953L238.977 131.523C239.451 130.768 240.122 130.391 240.992 130.391C241.273 130.391 241.487 130.427 241.633 130.5V131.844ZM246.32 139.156C245.174 139.156 244.242 138.781 243.523 138.031C242.805 137.276 242.445 136.268 242.445 135.008V134.742C242.445 133.904 242.604 133.156 242.922 132.5C243.245 131.839 243.693 131.323 244.266 130.953C244.844 130.578 245.469 130.391 246.141 130.391C247.24 130.391 248.094 130.753 248.703 131.477C249.312 132.201 249.617 133.237 249.617 134.586V135.188H243.891C243.911 136.021 244.154 136.695 244.617 137.211C245.086 137.721 245.68 137.977 246.398 137.977C246.909 137.977 247.341 137.872 247.695 137.664C248.049 137.456 248.359 137.18 248.625 136.836L249.508 137.523C248.799 138.612 247.737 139.156 246.32 139.156ZM246.141 131.578C245.557 131.578 245.068 131.792 244.672 132.219C244.276 132.641 244.031 133.234 243.938 134H248.172V133.891C248.13 133.156 247.932 132.589 247.578 132.188C247.224 131.781 246.745 131.578 246.141 131.578ZM262.406 134.867C262.406 136.154 262.112 137.19 261.523 137.977C260.935 138.763 260.138 139.156 259.133 139.156C258.107 139.156 257.299 138.831 256.711 138.18V142.25H255.266V130.547H256.586L256.656 131.484C257.245 130.755 258.062 130.391 259.109 130.391C260.125 130.391 260.927 130.773 261.516 131.539C262.109 132.305 262.406 133.37 262.406 134.734V134.867ZM260.961 134.703C260.961 133.75 260.758 132.997 260.352 132.445C259.945 131.893 259.388 131.617 258.68 131.617C257.805 131.617 257.148 132.005 256.711 132.781V136.82C257.143 137.591 257.805 137.977 258.695 137.977C259.388 137.977 259.938 137.703 260.344 137.156C260.755 136.604 260.961 135.786 260.961 134.703ZM263.867 134.695C263.867 133.867 264.029 133.122 264.352 132.461C264.68 131.799 265.133 131.289 265.711 130.93C266.294 130.57 266.958 130.391 267.703 130.391C268.854 130.391 269.784 130.789 270.492 131.586C271.206 132.383 271.562 133.443 271.562 134.766V134.867C271.562 135.69 271.404 136.43 271.086 137.086C270.773 137.737 270.323 138.245 269.734 138.609C269.151 138.974 268.479 139.156 267.719 139.156C266.573 139.156 265.643 138.758 264.93 137.961C264.221 137.164 263.867 136.109 263.867 134.797V134.695ZM265.32 134.867C265.32 135.805 265.536 136.557 265.969 137.125C266.406 137.693 266.99 137.977 267.719 137.977C268.453 137.977 269.036 137.69 269.469 137.117C269.901 136.539 270.117 135.732 270.117 134.695C270.117 133.768 269.896 133.018 269.453 132.445C269.016 131.867 268.432 131.578 267.703 131.578C266.99 131.578 266.414 131.862 265.977 132.43C265.539 132.997 265.32 133.81 265.32 134.867ZM280.859 137.008L282.484 130.547H283.93L281.469 139H280.297L278.242 132.594L276.242 139H275.07L272.617 130.547H274.055L275.719 136.875L277.688 130.547H278.852L280.859 137.008ZM288.914 139.156C287.768 139.156 286.836 138.781 286.117 138.031C285.398 137.276 285.039 136.268 285.039 135.008V134.742C285.039 133.904 285.198 133.156 285.516 132.5C285.839 131.839 286.286 131.323 286.859 130.953C287.438 130.578 288.062 130.391 288.734 130.391C289.833 130.391 290.688 130.753 291.297 131.477C291.906 132.201 292.211 133.237 292.211 134.586V135.188H286.484C286.505 136.021 286.747 136.695 287.211 137.211C287.68 137.721 288.273 137.977 288.992 137.977C289.503 137.977 289.935 137.872 290.289 137.664C290.643 137.456 290.953 137.18 291.219 136.836L292.102 137.523C291.393 138.612 290.331 139.156 288.914 139.156ZM288.734 131.578C288.151 131.578 287.661 131.792 287.266 132.219C286.87 132.641 286.625 133.234 286.531 134H290.766V133.891C290.724 133.156 290.526 132.589 290.172 132.188C289.818 131.781 289.339 131.578 288.734 131.578ZM297.977 131.844C297.758 131.807 297.521 131.789 297.266 131.789C296.318 131.789 295.674 132.193 295.336 133V139H293.891V130.547H295.297L295.32 131.523C295.794 130.768 296.466 130.391 297.336 130.391C297.617 130.391 297.831 130.427 297.977 130.5V131.844ZM300.148 139V131.664H298.812V130.547H300.148V129.68C300.148 128.773 300.391 128.073 300.875 127.578C301.359 127.083 302.044 126.836 302.93 126.836C303.263 126.836 303.594 126.88 303.922 126.969L303.844 128.141C303.599 128.094 303.339 128.07 303.062 128.07C302.594 128.07 302.232 128.208 301.977 128.484C301.721 128.755 301.594 129.146 301.594 129.656V130.547H303.398V131.664H301.594V139H300.148ZM310.219 138.164C309.656 138.826 308.831 139.156 307.742 139.156C306.841 139.156 306.154 138.896 305.68 138.375C305.211 137.849 304.974 137.073 304.969 136.047V130.547H306.414V136.008C306.414 137.289 306.935 137.93 307.977 137.93C309.081 137.93 309.815 137.518 310.18 136.695V130.547H311.625V139H310.25L310.219 138.164ZM315.398 139H313.953V127H315.398V139ZM324.477 137.039L326.57 130.547H328.047L325.016 139H323.914L320.852 130.547H322.328L324.477 137.039ZM334.531 139C334.448 138.833 334.38 138.536 334.328 138.109C333.656 138.807 332.854 139.156 331.922 139.156C331.089 139.156 330.404 138.922 329.867 138.453C329.336 137.979 329.07 137.38 329.07 136.656C329.07 135.776 329.404 135.094 330.07 134.609C330.742 134.12 331.685 133.875 332.898 133.875H334.305V133.211C334.305 132.706 334.154 132.305 333.852 132.008C333.549 131.706 333.104 131.555 332.516 131.555C332 131.555 331.568 131.685 331.219 131.945C330.87 132.206 330.695 132.521 330.695 132.891H329.242C329.242 132.469 329.391 132.062 329.688 131.672C329.99 131.276 330.396 130.964 330.906 130.734C331.422 130.505 331.987 130.391 332.602 130.391C333.576 130.391 334.339 130.635 334.891 131.125C335.443 131.609 335.729 132.279 335.75 133.133V137.023C335.75 137.799 335.849 138.417 336.047 138.875V139H334.531ZM332.133 137.898C332.586 137.898 333.016 137.781 333.422 137.547C333.828 137.312 334.122 137.008 334.305 136.633V134.898H333.172C331.401 134.898 330.516 135.417 330.516 136.453C330.516 136.906 330.667 137.26 330.969 137.516C331.271 137.771 331.659 137.898 332.133 137.898ZM339.586 139H338.141V127H339.586V139ZM347.125 138.164C346.562 138.826 345.737 139.156 344.648 139.156C343.747 139.156 343.06 138.896 342.586 138.375C342.117 137.849 341.88 137.073 341.875 136.047V130.547H343.32V136.008C343.32 137.289 343.841 137.93 344.883 137.93C345.987 137.93 346.721 137.518 347.086 136.695V130.547H348.531V139H347.156L347.125 138.164ZM354.242 139.156C353.096 139.156 352.164 138.781 351.445 138.031C350.727 137.276 350.367 136.268 350.367 135.008V134.742C350.367 133.904 350.526 133.156 350.844 132.5C351.167 131.839 351.615 131.323 352.188 130.953C352.766 130.578 353.391 130.391 354.062 130.391C355.161 130.391 356.016 130.753 356.625 131.477C357.234 132.201 357.539 133.237 357.539 134.586V135.188H351.812C351.833 136.021 352.076 136.695 352.539 137.211C353.008 137.721 353.602 137.977 354.32 137.977C354.831 137.977 355.263 137.872 355.617 137.664C355.971 137.456 356.281 137.18 356.547 136.836L357.43 137.523C356.721 138.612 355.659 139.156 354.242 139.156ZM354.062 131.578C353.479 131.578 352.99 131.792 352.594 132.219C352.198 132.641 351.953 133.234 351.859 134H356.094V133.891C356.052 133.156 355.854 132.589 355.5 132.188C355.146 131.781 354.667 131.578 354.062 131.578ZM370.328 134.867C370.328 136.154 370.034 137.19 369.445 137.977C368.857 138.763 368.06 139.156 367.055 139.156C366.029 139.156 365.221 138.831 364.633 138.18V142.25H363.188V130.547H364.508L364.578 131.484C365.167 130.755 365.984 130.391 367.031 130.391C368.047 130.391 368.849 130.773 369.438 131.539C370.031 132.305 370.328 133.37 370.328 134.734V134.867ZM368.883 134.703C368.883 133.75 368.68 132.997 368.273 132.445C367.867 131.893 367.31 131.617 366.602 131.617C365.727 131.617 365.07 132.005 364.633 132.781V136.82C365.065 137.591 365.727 137.977 366.617 137.977C367.31 137.977 367.859 137.703 368.266 137.156C368.677 136.604 368.883 135.786 368.883 134.703ZM376.258 131.844C376.039 131.807 375.802 131.789 375.547 131.789C374.599 131.789 373.956 132.193 373.617 133V139H372.172V130.547H373.578L373.602 131.523C374.076 130.768 374.747 130.391 375.617 130.391C375.898 130.391 376.112 130.427 376.258 130.5V131.844ZM377.055 134.695C377.055 133.867 377.216 133.122 377.539 132.461C377.867 131.799 378.32 131.289 378.898 130.93C379.482 130.57 380.146 130.391 380.891 130.391C382.042 130.391 382.971 130.789 383.68 131.586C384.393 132.383 384.75 133.443 384.75 134.766V134.867C384.75 135.69 384.591 136.43 384.273 137.086C383.961 137.737 383.51 138.245 382.922 138.609C382.339 138.974 381.667 139.156 380.906 139.156C379.76 139.156 378.831 138.758 378.117 137.961C377.409 137.164 377.055 136.109 377.055 134.797V134.695ZM378.508 134.867C378.508 135.805 378.724 136.557 379.156 137.125C379.594 137.693 380.177 137.977 380.906 137.977C381.641 137.977 382.224 137.69 382.656 137.117C383.089 136.539 383.305 135.732 383.305 134.695C383.305 133.768 383.083 133.018 382.641 132.445C382.203 131.867 381.62 131.578 380.891 131.578C380.177 131.578 379.602 131.862 379.164 132.43C378.727 132.997 378.508 133.81 378.508 134.867ZM393.703 134.867C393.703 136.154 393.409 137.19 392.82 137.977C392.232 138.763 391.435 139.156 390.43 139.156C389.404 139.156 388.596 138.831 388.008 138.18V142.25H386.562V130.547H387.883L387.953 131.484C388.542 130.755 389.359 130.391 390.406 130.391C391.422 130.391 392.224 130.773 392.812 131.539C393.406 132.305 393.703 133.37 393.703 134.734V134.867ZM392.258 134.703C392.258 133.75 392.055 132.997 391.648 132.445C391.242 131.893 390.685 131.617 389.977 131.617C389.102 131.617 388.445 132.005 388.008 132.781V136.82C388.44 137.591 389.102 137.977 389.992 137.977C390.685 137.977 391.234 137.703 391.641 137.156C392.052 136.604 392.258 135.786 392.258 134.703ZM395.164 134.695C395.164 133.867 395.326 133.122 395.648 132.461C395.977 131.799 396.43 131.289 397.008 130.93C397.591 130.57 398.255 130.391 399 130.391C400.151 130.391 401.081 130.789 401.789 131.586C402.503 132.383 402.859 133.443 402.859 134.766V134.867C402.859 135.69 402.701 136.43 402.383 137.086C402.07 137.737 401.62 138.245 401.031 138.609C400.448 138.974 399.776 139.156 399.016 139.156C397.87 139.156 396.94 138.758 396.227 137.961C395.518 137.164 395.164 136.109 395.164 134.797V134.695ZM396.617 134.867C396.617 135.805 396.833 136.557 397.266 137.125C397.703 137.693 398.286 137.977 399.016 137.977C399.75 137.977 400.333 137.69 400.766 137.117C401.198 136.539 401.414 135.732 401.414 134.695C401.414 133.768 401.193 133.018 400.75 132.445C400.312 131.867 399.729 131.578 399 131.578C398.286 131.578 397.711 131.862 397.273 132.43C396.836 132.997 396.617 133.81 396.617 134.867ZM409.594 136.758C409.594 136.367 409.445 136.065 409.148 135.852C408.857 135.633 408.344 135.445 407.609 135.289C406.88 135.133 406.299 134.945 405.867 134.727C405.44 134.508 405.122 134.247 404.914 133.945C404.711 133.643 404.609 133.284 404.609 132.867C404.609 132.174 404.901 131.589 405.484 131.109C406.073 130.63 406.823 130.391 407.734 130.391C408.693 130.391 409.469 130.638 410.062 131.133C410.661 131.628 410.961 132.26 410.961 133.031H409.508C409.508 132.635 409.339 132.294 409 132.008C408.667 131.721 408.245 131.578 407.734 131.578C407.208 131.578 406.797 131.693 406.5 131.922C406.203 132.151 406.055 132.451 406.055 132.82C406.055 133.169 406.193 133.432 406.469 133.609C406.745 133.786 407.242 133.956 407.961 134.117C408.685 134.279 409.271 134.471 409.719 134.695C410.167 134.919 410.497 135.19 410.711 135.508C410.93 135.82 411.039 136.203 411.039 136.656C411.039 137.411 410.737 138.018 410.133 138.477C409.529 138.93 408.745 139.156 407.781 139.156C407.104 139.156 406.505 139.036 405.984 138.797C405.464 138.557 405.055 138.224 404.758 137.797C404.466 137.365 404.32 136.898 404.32 136.398H405.766C405.792 136.883 405.984 137.268 406.344 137.555C406.708 137.836 407.188 137.977 407.781 137.977C408.328 137.977 408.766 137.867 409.094 137.648C409.427 137.424 409.594 137.128 409.594 136.758ZM414.492 139H413.047V130.547H414.492V139ZM412.93 128.305C412.93 128.07 413 127.872 413.141 127.711C413.286 127.549 413.5 127.469 413.781 127.469C414.062 127.469 414.276 127.549 414.422 127.711C414.568 127.872 414.641 128.07 414.641 128.305C414.641 128.539 414.568 128.734 414.422 128.891C414.276 129.047 414.062 129.125 413.781 129.125C413.5 129.125 413.286 129.047 413.141 128.891C413 128.734 412.93 128.539 412.93 128.305ZM418.773 128.5V130.547H420.352V131.664H418.773V136.906C418.773 137.245 418.844 137.5 418.984 137.672C419.125 137.839 419.365 137.922 419.703 137.922C419.87 137.922 420.099 137.891 420.391 137.828V139C420.01 139.104 419.641 139.156 419.281 139.156C418.635 139.156 418.148 138.961 417.82 138.57C417.492 138.18 417.328 137.625 417.328 136.906V131.664H415.789V130.547H417.328V128.5H418.773ZM423.617 139H422.172V130.547H423.617V139ZM422.055 128.305C422.055 128.07 422.125 127.872 422.266 127.711C422.411 127.549 422.625 127.469 422.906 127.469C423.188 127.469 423.401 127.549 423.547 127.711C423.693 127.872 423.766 128.07 423.766 128.305C423.766 128.539 423.693 128.734 423.547 128.891C423.401 129.047 423.188 129.125 422.906 129.125C422.625 129.125 422.411 129.047 422.266 128.891C422.125 128.734 422.055 128.539 422.055 128.305ZM425.555 134.695C425.555 133.867 425.716 133.122 426.039 132.461C426.367 131.799 426.82 131.289 427.398 130.93C427.982 130.57 428.646 130.391 429.391 130.391C430.542 130.391 431.471 130.789 432.18 131.586C432.893 132.383 433.25 133.443 433.25 134.766V134.867C433.25 135.69 433.091 136.43 432.773 137.086C432.461 137.737 432.01 138.245 431.422 138.609C430.839 138.974 430.167 139.156 429.406 139.156C428.26 139.156 427.331 138.758 426.617 137.961C425.909 137.164 425.555 136.109 425.555 134.797V134.695ZM427.008 134.867C427.008 135.805 427.224 136.557 427.656 137.125C428.094 137.693 428.677 137.977 429.406 137.977C430.141 137.977 430.724 137.69 431.156 137.117C431.589 136.539 431.805 135.732 431.805 134.695C431.805 133.768 431.583 133.018 431.141 132.445C430.703 131.867 430.12 131.578 429.391 131.578C428.677 131.578 428.102 131.862 427.664 132.43C427.227 132.997 427.008 133.81 427.008 134.867ZM436.43 130.547L436.477 131.609C437.122 130.797 437.966 130.391 439.008 130.391C440.794 130.391 441.695 131.398 441.711 133.414V139H440.266V133.406C440.26 132.797 440.12 132.346 439.844 132.055C439.573 131.763 439.148 131.617 438.57 131.617C438.102 131.617 437.69 131.742 437.336 131.992C436.982 132.242 436.706 132.57 436.508 132.977V139H435.062V130.547H436.43ZM448.57 139V131.664H447.234V130.547H448.57V129.68C448.57 128.773 448.812 128.073 449.297 127.578C449.781 127.083 450.466 126.836 451.352 126.836C451.685 126.836 452.016 126.88 452.344 126.969L452.266 128.141C452.021 128.094 451.76 128.07 451.484 128.07C451.016 128.07 450.654 128.208 450.398 128.484C450.143 128.755 450.016 129.146 450.016 129.656V130.547H451.82V131.664H450.016V139H448.57ZM453.039 134.695C453.039 133.867 453.201 133.122 453.523 132.461C453.852 131.799 454.305 131.289 454.883 130.93C455.466 130.57 456.13 130.391 456.875 130.391C458.026 130.391 458.956 130.789 459.664 131.586C460.378 132.383 460.734 133.443 460.734 134.766V134.867C460.734 135.69 460.576 136.43 460.258 137.086C459.945 137.737 459.495 138.245 458.906 138.609C458.323 138.974 457.651 139.156 456.891 139.156C455.745 139.156 454.815 138.758 454.102 137.961C453.393 137.164 453.039 136.109 453.039 134.797V134.695ZM454.492 134.867C454.492 135.805 454.708 136.557 455.141 137.125C455.578 137.693 456.161 137.977 456.891 137.977C457.625 137.977 458.208 137.69 458.641 137.117C459.073 136.539 459.289 135.732 459.289 134.695C459.289 133.768 459.068 133.018 458.625 132.445C458.188 131.867 457.604 131.578 456.875 131.578C456.161 131.578 455.586 131.862 455.148 132.43C454.711 132.997 454.492 133.81 454.492 134.867ZM466.633 131.844C466.414 131.807 466.177 131.789 465.922 131.789C464.974 131.789 464.331 132.193 463.992 133V139H462.547V130.547H463.953L463.977 131.523C464.451 130.768 465.122 130.391 465.992 130.391C466.273 130.391 466.487 130.427 466.633 130.5V131.844ZM43.8594 166.883L45.8281 160.547H47.375L43.9766 170.305C43.4505 171.711 42.6146 172.414 41.4688 172.414L41.1953 172.391L40.6562 172.289V171.117L41.0469 171.148C41.5365 171.148 41.9167 171.049 42.1875 170.852C42.4635 170.654 42.6901 170.292 42.8672 169.766L43.1875 168.906L40.1719 160.547H41.75L43.8594 166.883ZM48.1641 164.695C48.1641 163.867 48.3255 163.122 48.6484 162.461C48.9766 161.799 49.4297 161.289 50.0078 160.93C50.5911 160.57 51.2552 160.391 52 160.391C53.151 160.391 54.0807 160.789 54.7891 161.586C55.5026 162.383 55.8594 163.443 55.8594 164.766V164.867C55.8594 165.69 55.7005 166.43 55.3828 167.086C55.0703 167.737 54.6198 168.245 54.0312 168.609C53.4479 168.974 52.776 169.156 52.0156 169.156C50.8698 169.156 49.9401 168.758 49.2266 167.961C48.5182 167.164 48.1641 166.109 48.1641 164.797V164.695ZM49.6172 164.867C49.6172 165.805 49.8333 166.557 50.2656 167.125C50.7031 167.693 51.2865 167.977 52.0156 167.977C52.75 167.977 53.3333 167.69 53.7656 167.117C54.1979 166.539 54.4141 165.732 54.4141 164.695C54.4141 163.768 54.1927 163.018 53.75 162.445C53.3125 161.867 52.7292 161.578 52 161.578C51.2865 161.578 50.7109 161.862 50.2734 162.43C49.8359 162.997 49.6172 163.81 49.6172 164.867ZM62.8906 168.164C62.3281 168.826 61.5026 169.156 60.4141 169.156C59.513 169.156 58.8255 168.896 58.3516 168.375C57.8828 167.849 57.6458 167.073 57.6406 166.047V160.547H59.0859V166.008C59.0859 167.289 59.6068 167.93 60.6484 167.93C61.7526 167.93 62.487 167.518 62.8516 166.695V160.547H64.2969V169H62.9219L62.8906 168.164ZM70.5859 161.844C70.3672 161.807 70.1302 161.789 69.875 161.789C68.9271 161.789 68.2839 162.193 67.9453 163V169H66.5V160.547H67.9062L67.9297 161.523C68.4036 160.768 69.0755 160.391 69.9453 160.391C70.2266 160.391 70.4401 160.427 70.5859 160.5V161.844ZM83.0469 164.867C83.0469 166.159 82.75 167.198 82.1562 167.984C81.5625 168.766 80.7656 169.156 79.7656 169.156C78.6979 169.156 77.8724 168.779 77.2891 168.023L77.2188 169H75.8906V157H77.3359V161.477C77.9193 160.753 78.724 160.391 79.75 160.391C80.776 160.391 81.5807 160.779 82.1641 161.555C82.7526 162.331 83.0469 163.393 83.0469 164.742V164.867ZM81.6016 164.703C81.6016 163.719 81.4115 162.958 81.0312 162.422C80.651 161.885 80.1042 161.617 79.3906 161.617C78.4375 161.617 77.7526 162.06 77.3359 162.945V166.602C77.7786 167.487 78.4688 167.93 79.4062 167.93C80.099 167.93 80.638 167.661 81.0234 167.125C81.4089 166.589 81.6016 165.781 81.6016 164.703ZM90.0938 168.164C89.5312 168.826 88.7057 169.156 87.6172 169.156C86.7161 169.156 86.0286 168.896 85.5547 168.375C85.0859 167.849 84.849 167.073 84.8438 166.047V160.547H86.2891V166.008C86.2891 167.289 86.8099 167.93 87.8516 167.93C88.9557 167.93 89.6901 167.518 90.0547 166.695V160.547H91.5V169H90.125L90.0938 168.164ZM98.625 166.758C98.625 166.367 98.4766 166.065 98.1797 165.852C97.888 165.633 97.375 165.445 96.6406 165.289C95.9115 165.133 95.3307 164.945 94.8984 164.727C94.4714 164.508 94.1536 164.247 93.9453 163.945C93.7422 163.643 93.6406 163.284 93.6406 162.867C93.6406 162.174 93.9323 161.589 94.5156 161.109C95.1042 160.63 95.8542 160.391 96.7656 160.391C97.724 160.391 98.5 160.638 99.0938 161.133C99.6927 161.628 99.9922 162.26 99.9922 163.031H98.5391C98.5391 162.635 98.3698 162.294 98.0312 162.008C97.6979 161.721 97.276 161.578 96.7656 161.578C96.2396 161.578 95.8281 161.693 95.5312 161.922C95.2344 162.151 95.0859 162.451 95.0859 162.82C95.0859 163.169 95.224 163.432 95.5 163.609C95.776 163.786 96.2734 163.956 96.9922 164.117C97.7161 164.279 98.3021 164.471 98.75 164.695C99.1979 164.919 99.5286 165.19 99.7422 165.508C99.9609 165.82 100.07 166.203 100.07 166.656C100.07 167.411 99.7682 168.018 99.1641 168.477C98.5599 168.93 97.776 169.156 96.8125 169.156C96.1354 169.156 95.5365 169.036 95.0156 168.797C94.4948 168.557 94.0859 168.224 93.7891 167.797C93.4974 167.365 93.3516 166.898 93.3516 166.398H94.7969C94.8229 166.883 95.0156 167.268 95.375 167.555C95.7396 167.836 96.2188 167.977 96.8125 167.977C97.3594 167.977 97.7969 167.867 98.125 167.648C98.4583 167.424 98.625 167.128 98.625 166.758ZM103.523 169H102.078V160.547H103.523V169ZM101.961 158.305C101.961 158.07 102.031 157.872 102.172 157.711C102.318 157.549 102.531 157.469 102.812 157.469C103.094 157.469 103.307 157.549 103.453 157.711C103.599 157.872 103.672 158.07 103.672 158.305C103.672 158.539 103.599 158.734 103.453 158.891C103.307 159.047 103.094 159.125 102.812 159.125C102.531 159.125 102.318 159.047 102.172 158.891C102.031 158.734 101.961 158.539 101.961 158.305ZM107.211 160.547L107.258 161.609C107.904 160.797 108.747 160.391 109.789 160.391C111.576 160.391 112.477 161.398 112.492 163.414V169H111.047V163.406C111.042 162.797 110.901 162.346 110.625 162.055C110.354 161.763 109.93 161.617 109.352 161.617C108.883 161.617 108.471 161.742 108.117 161.992C107.763 162.242 107.487 162.57 107.289 162.977V169H105.844V160.547H107.211ZM118.18 169.156C117.034 169.156 116.102 168.781 115.383 168.031C114.664 167.276 114.305 166.268 114.305 165.008V164.742C114.305 163.904 114.464 163.156 114.781 162.5C115.104 161.839 115.552 161.323 116.125 160.953C116.703 160.578 117.328 160.391 118 160.391C119.099 160.391 119.953 160.753 120.562 161.477C121.172 162.201 121.477 163.237 121.477 164.586V165.188H115.75C115.771 166.021 116.013 166.695 116.477 167.211C116.945 167.721 117.539 167.977 118.258 167.977C118.768 167.977 119.201 167.872 119.555 167.664C119.909 167.456 120.219 167.18 120.484 166.836L121.367 167.523C120.659 168.612 119.596 169.156 118.18 169.156ZM118 161.578C117.417 161.578 116.927 161.792 116.531 162.219C116.135 162.641 115.891 163.234 115.797 164H120.031V163.891C119.99 163.156 119.792 162.589 119.438 162.188C119.083 161.781 118.604 161.578 118 161.578ZM128.078 166.758C128.078 166.367 127.93 166.065 127.633 165.852C127.341 165.633 126.828 165.445 126.094 165.289C125.365 165.133 124.784 164.945 124.352 164.727C123.924 164.508 123.607 164.247 123.398 163.945C123.195 163.643 123.094 163.284 123.094 162.867C123.094 162.174 123.385 161.589 123.969 161.109C124.557 160.63 125.307 160.391 126.219 160.391C127.177 160.391 127.953 160.638 128.547 161.133C129.146 161.628 129.445 162.26 129.445 163.031H127.992C127.992 162.635 127.823 162.294 127.484 162.008C127.151 161.721 126.729 161.578 126.219 161.578C125.693 161.578 125.281 161.693 124.984 161.922C124.688 162.151 124.539 162.451 124.539 162.82C124.539 163.169 124.677 163.432 124.953 163.609C125.229 163.786 125.727 163.956 126.445 164.117C127.169 164.279 127.755 164.471 128.203 164.695C128.651 164.919 128.982 165.19 129.195 165.508C129.414 165.82 129.523 166.203 129.523 166.656C129.523 167.411 129.221 168.018 128.617 168.477C128.013 168.93 127.229 169.156 126.266 169.156C125.589 169.156 124.99 169.036 124.469 168.797C123.948 168.557 123.539 168.224 123.242 167.797C122.951 167.365 122.805 166.898 122.805 166.398H124.25C124.276 166.883 124.469 167.268 124.828 167.555C125.193 167.836 125.672 167.977 126.266 167.977C126.812 167.977 127.25 167.867 127.578 167.648C127.911 167.424 128.078 167.128 128.078 166.758ZM136.328 166.758C136.328 166.367 136.18 166.065 135.883 165.852C135.591 165.633 135.078 165.445 134.344 165.289C133.615 165.133 133.034 164.945 132.602 164.727C132.174 164.508 131.857 164.247 131.648 163.945C131.445 163.643 131.344 163.284 131.344 162.867C131.344 162.174 131.635 161.589 132.219 161.109C132.807 160.63 133.557 160.391 134.469 160.391C135.427 160.391 136.203 160.638 136.797 161.133C137.396 161.628 137.695 162.26 137.695 163.031H136.242C136.242 162.635 136.073 162.294 135.734 162.008C135.401 161.721 134.979 161.578 134.469 161.578C133.943 161.578 133.531 161.693 133.234 161.922C132.938 162.151 132.789 162.451 132.789 162.82C132.789 163.169 132.927 163.432 133.203 163.609C133.479 163.786 133.977 163.956 134.695 164.117C135.419 164.279 136.005 164.471 136.453 164.695C136.901 164.919 137.232 165.19 137.445 165.508C137.664 165.82 137.773 166.203 137.773 166.656C137.773 167.411 137.471 168.018 136.867 168.477C136.263 168.93 135.479 169.156 134.516 169.156C133.839 169.156 133.24 169.036 132.719 168.797C132.198 168.557 131.789 168.224 131.492 167.797C131.201 167.365 131.055 166.898 131.055 166.398H132.5C132.526 166.883 132.719 167.268 133.078 167.555C133.443 167.836 133.922 167.977 134.516 167.977C135.062 167.977 135.5 167.867 135.828 167.648C136.161 167.424 136.328 167.128 136.328 166.758ZM139.688 168.242C139.688 167.992 139.76 167.784 139.906 167.617C140.057 167.451 140.281 167.367 140.578 167.367C140.875 167.367 141.099 167.451 141.25 167.617C141.406 167.784 141.484 167.992 141.484 168.242C141.484 168.482 141.406 168.682 141.25 168.844C141.099 169.005 140.875 169.086 140.578 169.086C140.281 169.086 140.057 169.005 139.906 168.844C139.76 168.682 139.688 168.482 139.688 168.242Z" fill="#737373"/>
</svg>
