<svg width="560" height="220" viewBox="0 0 560 220" fill="none" xmlns="http://www.w3.org/2000/svg">
<path d="M0.5 0.5H559.5V219.5H0.5V0.5Z" stroke="#E8E8E8"/>
<path d="M48.3682 53.4634H50.2422V54.8643H48.3682V58H46.6426V54.8643H40.4917V53.853L46.5405 44.4922H48.3682V53.4634ZM42.4399 53.4634H46.6426V46.8394L46.4385 47.2104L42.4399 53.4634ZM52.0049 57.1001C52.0049 56.8032 52.0915 56.5558 52.2646 56.3579C52.444 56.16 52.71 56.061 53.0625 56.061C53.415 56.061 53.681 56.16 53.8604 56.3579C54.0459 56.5558 54.1387 56.8032 54.1387 57.1001C54.1387 57.3846 54.0459 57.6227 53.8604 57.8145C53.681 58.0062 53.415 58.1021 53.0625 58.1021C52.71 58.1021 52.444 58.0062 52.2646 57.8145C52.0915 57.6227 52.0049 57.3846 52.0049 57.1001ZM63.7407 52.7119V58H61.9595V44.4922H66.9414C68.4196 44.4922 69.5762 44.8695 70.4111 45.624C71.2523 46.3786 71.6729 47.3774 71.6729 48.6206C71.6729 49.9318 71.2616 50.943 70.439 51.6543C69.6226 52.3594 68.4505 52.7119 66.9229 52.7119H63.7407ZM63.7407 51.2554H66.9414C67.8939 51.2554 68.6237 51.0327 69.1309 50.5874C69.638 50.1359 69.8916 49.4865 69.8916 48.6392C69.8916 47.8351 69.638 47.1919 69.1309 46.7095C68.6237 46.2271 67.9279 45.9766 67.0435 45.958H63.7407V51.2554ZM78.5288 49.502C78.269 49.4587 77.9876 49.437 77.6846 49.437C76.5589 49.437 75.7951 49.9163 75.3931 50.875V58H73.6768V47.9619H75.3467L75.3745 49.1216C75.9373 48.2248 76.7352 47.7764 77.7681 47.7764C78.1021 47.7764 78.3556 47.8197 78.5288 47.9062V49.502ZM79.4751 52.8882C79.4751 51.9048 79.6668 51.0203 80.0503 50.2349C80.4399 49.4494 80.978 48.8433 81.6646 48.4165C82.3573 47.9897 83.1458 47.7764 84.0303 47.7764C85.3971 47.7764 86.5011 48.2495 87.3423 49.1958C88.1896 50.1421 88.6133 51.4007 88.6133 52.9717V53.0923C88.6133 54.0695 88.4246 54.9478 88.0474 55.7271C87.6763 56.5002 87.1413 57.1032 86.4424 57.5361C85.7497 57.9691 84.9518 58.1855 84.0488 58.1855C82.6882 58.1855 81.5841 57.7124 80.7368 56.7661C79.8957 55.8198 79.4751 54.5674 79.4751 53.0088V52.8882ZM81.2007 53.0923C81.2007 54.2056 81.4574 55.0993 81.9707 55.7734C82.4902 56.4476 83.1829 56.7847 84.0488 56.7847C84.9209 56.7847 85.6136 56.4445 86.127 55.7642C86.6403 55.0776 86.897 54.119 86.897 52.8882C86.897 51.7873 86.6341 50.8966 86.1084 50.2163C85.5889 49.5298 84.8962 49.1865 84.0303 49.1865C83.1829 49.1865 82.4995 49.5236 81.98 50.1978C81.4604 50.8719 81.2007 51.8368 81.2007 53.0923ZM93.0942 45.5312V47.9619H94.9683V49.2886H93.0942V55.5137C93.0942 55.9157 93.1777 56.2188 93.3447 56.4229C93.5117 56.6208 93.7962 56.7197 94.1982 56.7197C94.3962 56.7197 94.6683 56.6826 95.0146 56.6084V58C94.5632 58.1237 94.124 58.1855 93.6973 58.1855C92.9303 58.1855 92.3521 57.9536 91.9624 57.4897C91.5728 57.0259 91.3779 56.3672 91.3779 55.5137V49.2886H89.5503V47.9619H91.3779V45.5312H93.0942ZM96.3413 52.8882C96.3413 51.9048 96.533 51.0203 96.9165 50.2349C97.3062 49.4494 97.8442 48.8433 98.5308 48.4165C99.2235 47.9897 100.012 47.7764 100.896 47.7764C102.263 47.7764 103.367 48.2495 104.208 49.1958C105.056 50.1421 105.479 51.4007 105.479 52.9717V53.0923C105.479 54.0695 105.291 54.9478 104.914 55.7271C104.542 56.5002 104.007 57.1032 103.309 57.5361C102.616 57.9691 101.818 58.1855 100.915 58.1855C99.5544 58.1855 98.4504 57.7124 97.603 56.7661C96.7619 55.8198 96.3413 54.5674 96.3413 53.0088V52.8882ZM98.0669 53.0923C98.0669 54.2056 98.3236 55.0993 98.8369 55.7734C99.3564 56.4476 100.049 56.7847 100.915 56.7847C101.787 56.7847 102.48 56.4445 102.993 55.7642C103.507 55.0776 103.763 54.119 103.763 52.8882C103.763 51.7873 103.5 50.8966 102.975 50.2163C102.455 49.5298 101.762 49.1865 100.896 49.1865C100.049 49.1865 99.3657 49.5236 98.8462 50.1978C98.3267 50.8719 98.0669 51.8368 98.0669 53.0923ZM109.96 45.5312V47.9619H111.834V49.2886H109.96V55.5137C109.96 55.9157 110.044 56.2188 110.211 56.4229C110.378 56.6208 110.662 56.7197 111.064 56.7197C111.262 56.7197 111.535 56.6826 111.881 56.6084V58C111.429 58.1237 110.99 58.1855 110.563 58.1855C109.797 58.1855 109.218 57.9536 108.829 57.4897C108.439 57.0259 108.244 56.3672 108.244 55.5137V49.2886H106.417V47.9619H108.244V45.5312H109.96ZM117.132 55.4858L119.47 47.9619H121.307L117.271 59.5493C116.646 61.2192 115.654 62.0542 114.293 62.0542L113.968 62.0264L113.328 61.9058V60.5142L113.792 60.5513C114.373 60.5513 114.825 60.4338 115.146 60.1987C115.474 59.9637 115.743 59.5339 115.954 58.9092L116.334 57.8887L112.753 47.9619H114.627L117.132 55.4858ZM131.326 53.0923C131.326 54.62 130.977 55.8507 130.278 56.7847C129.579 57.7186 128.633 58.1855 127.439 58.1855C126.221 58.1855 125.262 57.799 124.563 57.0259V61.8594H122.847V47.9619H124.415L124.498 49.0752C125.197 48.2093 126.168 47.7764 127.411 47.7764C128.617 47.7764 129.57 48.231 130.269 49.1401C130.974 50.0493 131.326 51.3141 131.326 52.9346V53.0923ZM129.61 52.8975C129.61 51.7656 129.369 50.8719 128.886 50.2163C128.404 49.5607 127.742 49.2329 126.901 49.2329C125.862 49.2329 125.083 49.6937 124.563 50.6152V55.4116C125.076 56.327 125.862 56.7847 126.919 56.7847C127.742 56.7847 128.395 56.46 128.877 55.8105C129.366 55.1549 129.61 54.1839 129.61 52.8975ZM135.38 58H133.664V47.9619H135.38V58ZM133.525 45.2993C133.525 45.021 133.608 44.786 133.775 44.5942C133.949 44.4025 134.202 44.3066 134.536 44.3066C134.87 44.3066 135.124 44.4025 135.297 44.5942C135.47 44.786 135.557 45.021 135.557 45.2993C135.557 45.5776 135.47 45.8096 135.297 45.9951C135.124 46.1807 134.87 46.2734 134.536 46.2734C134.202 46.2734 133.949 46.1807 133.775 45.9951C133.608 45.8096 133.525 45.5776 133.525 45.2993ZM139.759 47.9619L139.815 49.2236C140.582 48.2588 141.584 47.7764 142.821 47.7764C144.942 47.7764 146.012 48.9731 146.031 51.3667V58H144.314V51.3574C144.308 50.6338 144.141 50.0988 143.813 49.7524C143.492 49.4061 142.988 49.2329 142.301 49.2329C141.745 49.2329 141.256 49.3813 140.835 49.6782C140.415 49.9751 140.087 50.3647 139.852 50.8472V58H138.136V47.9619H139.759ZM148.211 52.8975C148.211 51.3327 148.573 50.0895 149.296 49.168C150.02 48.2402 150.979 47.7764 152.172 47.7764C153.397 47.7764 154.353 48.2093 155.039 49.0752L155.123 47.9619H156.69V57.7588C156.69 59.0576 156.304 60.0812 155.531 60.8296C154.764 61.578 153.731 61.9521 152.432 61.9521C151.708 61.9521 151 61.7975 150.308 61.4883C149.615 61.179 149.086 60.7554 148.721 60.2173L149.612 59.1875C150.348 60.0967 151.248 60.5513 152.312 60.5513C153.146 60.5513 153.796 60.3162 154.26 59.8462C154.73 59.3761 154.965 58.7144 154.965 57.8608V56.998C154.278 57.7897 153.341 58.1855 152.154 58.1855C150.979 58.1855 150.026 57.7124 149.296 56.7661C148.573 55.8198 148.211 54.5303 148.211 52.8975ZM149.937 53.0923C149.937 54.2241 150.168 55.1147 150.632 55.7642C151.096 56.4074 151.746 56.729 152.581 56.729C153.663 56.729 154.458 56.2373 154.965 55.2539V50.6709C154.439 49.7122 153.651 49.2329 152.599 49.2329C151.764 49.2329 151.112 49.5576 150.642 50.207C150.172 50.8564 149.937 51.8182 149.937 53.0923Z" fill="black"/>
<path d="M43.7734 105.414L43.9922 106.914L44.3125 105.562L46.5625 97.625H47.8281L50.0234 105.562L50.3359 106.938L50.5781 105.406L52.3438 97.625H53.8516L51.0938 109H49.7266L47.3828 100.711L47.2031 99.8438L47.0234 100.711L44.5938 109H43.2266L40.4766 97.625H41.9766L43.7734 105.414ZM58.5547 109.156C57.4089 109.156 56.4766 108.781 55.7578 108.031C55.0391 107.276 54.6797 106.268 54.6797 105.008V104.742C54.6797 103.904 54.8385 103.156 55.1562 102.5C55.4792 101.839 55.9271 101.323 56.5 100.953C57.0781 100.578 57.7031 100.391 58.375 100.391C59.474 100.391 60.3281 100.753 60.9375 101.477C61.5469 102.201 61.8516 103.237 61.8516 104.586V105.188H56.125C56.1458 106.021 56.388 106.695 56.8516 107.211C57.3203 107.721 57.9141 107.977 58.6328 107.977C59.1432 107.977 59.5755 107.872 59.9297 107.664C60.2839 107.456 60.5938 107.18 60.8594 106.836L61.7422 107.523C61.0339 108.612 59.9714 109.156 58.5547 109.156ZM58.375 101.578C57.7917 101.578 57.3021 101.792 56.9062 102.219C56.5104 102.641 56.2656 103.234 56.1719 104H60.4062V103.891C60.3646 103.156 60.1667 102.589 59.8125 102.188C59.4583 101.781 58.9792 101.578 58.375 101.578ZM70.8906 107.977C71.4062 107.977 71.8568 107.82 72.2422 107.508C72.6276 107.195 72.8411 106.805 72.8828 106.336H74.25C74.224 106.82 74.0573 107.281 73.75 107.719C73.4427 108.156 73.0312 108.505 72.5156 108.766C72.0052 109.026 71.4635 109.156 70.8906 109.156C69.7396 109.156 68.8229 108.773 68.1406 108.008C67.4635 107.237 67.125 106.185 67.125 104.852V104.609C67.125 103.786 67.276 103.055 67.5781 102.414C67.8802 101.773 68.3125 101.276 68.875 100.922C69.4427 100.568 70.112 100.391 70.8828 100.391C71.8307 100.391 72.6172 100.674 73.2422 101.242C73.8724 101.81 74.2083 102.547 74.25 103.453H72.8828C72.8411 102.906 72.6328 102.458 72.2578 102.109C71.888 101.755 71.4297 101.578 70.8828 101.578C70.1484 101.578 69.5781 101.844 69.1719 102.375C68.7708 102.901 68.5703 103.664 68.5703 104.664V104.938C68.5703 105.911 68.7708 106.661 69.1719 107.188C69.5729 107.714 70.1458 107.977 70.8906 107.977ZM81.0938 109C81.0104 108.833 80.9427 108.536 80.8906 108.109C80.2188 108.807 79.4167 109.156 78.4844 109.156C77.651 109.156 76.9661 108.922 76.4297 108.453C75.8984 107.979 75.6328 107.38 75.6328 106.656C75.6328 105.776 75.9661 105.094 76.6328 104.609C77.3047 104.12 78.2474 103.875 79.4609 103.875H80.8672V103.211C80.8672 102.706 80.7161 102.305 80.4141 102.008C80.112 101.706 79.6667 101.555 79.0781 101.555C78.5625 101.555 78.1302 101.685 77.7812 101.945C77.4323 102.206 77.2578 102.521 77.2578 102.891H75.8047C75.8047 102.469 75.9531 102.062 76.25 101.672C76.5521 101.276 76.9583 100.964 77.4688 100.734C77.9844 100.505 78.5495 100.391 79.1641 100.391C80.138 100.391 80.901 100.635 81.4531 101.125C82.0052 101.609 82.2917 102.279 82.3125 103.133V107.023C82.3125 107.799 82.4115 108.417 82.6094 108.875V109H81.0938ZM78.6953 107.898C79.1484 107.898 79.5781 107.781 79.9844 107.547C80.3906 107.312 80.6849 107.008 80.8672 106.633V104.898H79.7344C77.9635 104.898 77.0781 105.417 77.0781 106.453C77.0781 106.906 77.2292 107.26 77.5312 107.516C77.8333 107.771 78.2214 107.898 78.6953 107.898ZM85.9453 100.547L85.9922 101.609C86.638 100.797 87.4818 100.391 88.5234 100.391C90.3099 100.391 91.2109 101.398 91.2266 103.414V109H89.7812V103.406C89.776 102.797 89.6354 102.346 89.3594 102.055C89.0885 101.763 88.6641 101.617 88.0859 101.617C87.6172 101.617 87.2057 101.742 86.8516 101.992C86.4974 102.242 86.2214 102.57 86.0234 102.977V109H84.5781V100.547H85.9453ZM104.516 104.867C104.516 106.154 104.221 107.19 103.633 107.977C103.044 108.763 102.247 109.156 101.242 109.156C100.216 109.156 99.4089 108.831 98.8203 108.18V112.25H97.375V100.547H98.6953L98.7656 101.484C99.3542 100.755 100.172 100.391 101.219 100.391C102.234 100.391 103.036 100.773 103.625 101.539C104.219 102.305 104.516 103.37 104.516 104.734V104.867ZM103.07 104.703C103.07 103.75 102.867 102.997 102.461 102.445C102.055 101.893 101.497 101.617 100.789 101.617C99.9141 101.617 99.2578 102.005 98.8203 102.781V106.82C99.2526 107.591 99.9141 107.977 100.805 107.977C101.497 107.977 102.047 107.703 102.453 107.156C102.865 106.604 103.07 105.786 103.07 104.703ZM110.445 101.844C110.227 101.807 109.99 101.789 109.734 101.789C108.786 101.789 108.143 102.193 107.805 103V109H106.359V100.547H107.766L107.789 101.523C108.263 100.768 108.935 100.391 109.805 100.391C110.086 100.391 110.299 100.427 110.445 100.5V101.844ZM111.242 104.695C111.242 103.867 111.404 103.122 111.727 102.461C112.055 101.799 112.508 101.289 113.086 100.93C113.669 100.57 114.333 100.391 115.078 100.391C116.229 100.391 117.159 100.789 117.867 101.586C118.581 102.383 118.938 103.443 118.938 104.766V104.867C118.938 105.69 118.779 106.43 118.461 107.086C118.148 107.737 117.698 108.245 117.109 108.609C116.526 108.974 115.854 109.156 115.094 109.156C113.948 109.156 113.018 108.758 112.305 107.961C111.596 107.164 111.242 106.109 111.242 104.797V104.695ZM112.695 104.867C112.695 105.805 112.911 106.557 113.344 107.125C113.781 107.693 114.365 107.977 115.094 107.977C115.828 107.977 116.411 107.69 116.844 107.117C117.276 106.539 117.492 105.732 117.492 104.695C117.492 103.768 117.271 103.018 116.828 102.445C116.391 101.867 115.807 101.578 115.078 101.578C114.365 101.578 113.789 101.862 113.352 102.43C112.914 102.997 112.695 103.81 112.695 104.867ZM123.414 107.039L125.508 100.547H126.984L123.953 109H122.852L119.789 100.547H121.266L123.414 107.039ZM129.945 109H128.5V100.547H129.945V109ZM128.383 98.3047C128.383 98.0703 128.453 97.8724 128.594 97.7109C128.74 97.5495 128.953 97.4688 129.234 97.4688C129.516 97.4688 129.729 97.5495 129.875 97.7109C130.021 97.8724 130.094 98.0703 130.094 98.3047C130.094 98.5391 130.021 98.7344 129.875 98.8906C129.729 99.0469 129.516 99.125 129.234 99.125C128.953 99.125 128.74 99.0469 128.594 98.8906C128.453 98.7344 128.383 98.5391 128.383 98.3047ZM131.914 104.703C131.914 103.406 132.221 102.365 132.836 101.578C133.451 100.786 134.255 100.391 135.25 100.391C136.24 100.391 137.023 100.729 137.602 101.406V97H139.047V109H137.719L137.648 108.094C137.07 108.802 136.266 109.156 135.234 109.156C134.255 109.156 133.456 108.755 132.836 107.953C132.221 107.151 131.914 106.104 131.914 104.812V104.703ZM133.359 104.867C133.359 105.826 133.557 106.576 133.953 107.117C134.349 107.659 134.896 107.93 135.594 107.93C136.51 107.93 137.18 107.518 137.602 106.695V102.812C137.169 102.016 136.505 101.617 135.609 101.617C134.901 101.617 134.349 101.891 133.953 102.438C133.557 102.984 133.359 103.794 133.359 104.867ZM144.805 109.156C143.659 109.156 142.727 108.781 142.008 108.031C141.289 107.276 140.93 106.268 140.93 105.008V104.742C140.93 103.904 141.089 103.156 141.406 102.5C141.729 101.839 142.177 101.323 142.75 100.953C143.328 100.578 143.953 100.391 144.625 100.391C145.724 100.391 146.578 100.753 147.188 101.477C147.797 102.201 148.102 103.237 148.102 104.586V105.188H142.375C142.396 106.021 142.638 106.695 143.102 107.211C143.57 107.721 144.164 107.977 144.883 107.977C145.393 107.977 145.826 107.872 146.18 107.664C146.534 107.456 146.844 107.18 147.109 106.836L147.992 107.523C147.284 108.612 146.221 109.156 144.805 109.156ZM144.625 101.578C144.042 101.578 143.552 101.792 143.156 102.219C142.76 102.641 142.516 103.234 142.422 104H146.656V103.891C146.615 103.156 146.417 102.589 146.062 102.188C145.708 101.781 145.229 101.578 144.625 101.578ZM156.516 106.883L158.484 100.547H160.031L156.633 110.305C156.107 111.711 155.271 112.414 154.125 112.414L153.852 112.391L153.312 112.289V111.117L153.703 111.148C154.193 111.148 154.573 111.049 154.844 110.852C155.12 110.654 155.346 110.292 155.523 109.766L155.844 108.906L152.828 100.547H154.406L156.516 106.883ZM160.82 104.695C160.82 103.867 160.982 103.122 161.305 102.461C161.633 101.799 162.086 101.289 162.664 100.93C163.247 100.57 163.911 100.391 164.656 100.391C165.807 100.391 166.737 100.789 167.445 101.586C168.159 102.383 168.516 103.443 168.516 104.766V104.867C168.516 105.69 168.357 106.43 168.039 107.086C167.727 107.737 167.276 108.245 166.688 108.609C166.104 108.974 165.432 109.156 164.672 109.156C163.526 109.156 162.596 108.758 161.883 107.961C161.174 107.164 160.82 106.109 160.82 104.797V104.695ZM162.273 104.867C162.273 105.805 162.49 106.557 162.922 107.125C163.359 107.693 163.943 107.977 164.672 107.977C165.406 107.977 165.99 107.69 166.422 107.117C166.854 106.539 167.07 105.732 167.07 104.695C167.07 103.768 166.849 103.018 166.406 102.445C165.969 101.867 165.385 101.578 164.656 101.578C163.943 101.578 163.367 101.862 162.93 102.43C162.492 102.997 162.273 103.81 162.273 104.867ZM175.547 108.164C174.984 108.826 174.159 109.156 173.07 109.156C172.169 109.156 171.482 108.896 171.008 108.375C170.539 107.849 170.302 107.073 170.297 106.047V100.547H171.742V106.008C171.742 107.289 172.263 107.93 173.305 107.93C174.409 107.93 175.143 107.518 175.508 106.695V100.547H176.953V109H175.578L175.547 108.164ZM190.609 107.008L192.234 100.547H193.68L191.219 109H190.047L187.992 102.594L185.992 109H184.82L182.367 100.547H183.805L185.469 106.875L187.438 100.547H188.602L190.609 107.008ZM196.727 109H195.281V100.547H196.727V109ZM195.164 98.3047C195.164 98.0703 195.234 97.8724 195.375 97.7109C195.521 97.5495 195.734 97.4688 196.016 97.4688C196.297 97.4688 196.51 97.5495 196.656 97.7109C196.802 97.8724 196.875 98.0703 196.875 98.3047C196.875 98.5391 196.802 98.7344 196.656 98.8906C196.51 99.0469 196.297 99.125 196.016 99.125C195.734 99.125 195.521 99.0469 195.375 98.8906C195.234 98.7344 195.164 98.5391 195.164 98.3047ZM201.008 98.5V100.547H202.586V101.664H201.008V106.906C201.008 107.245 201.078 107.5 201.219 107.672C201.359 107.839 201.599 107.922 201.938 107.922C202.104 107.922 202.333 107.891 202.625 107.828V109C202.245 109.104 201.875 109.156 201.516 109.156C200.87 109.156 200.383 108.961 200.055 108.57C199.727 108.18 199.562 107.625 199.562 106.906V101.664H198.023V100.547H199.562V98.5H201.008ZM205.727 101.57C206.367 100.784 207.201 100.391 208.227 100.391C210.013 100.391 210.914 101.398 210.93 103.414V109H209.484V103.406C209.479 102.797 209.339 102.346 209.062 102.055C208.792 101.763 208.367 101.617 207.789 101.617C207.32 101.617 206.909 101.742 206.555 101.992C206.201 102.242 205.924 102.57 205.727 102.977V109H204.281V97H205.727V101.57ZM222.281 109C222.198 108.833 222.13 108.536 222.078 108.109C221.406 108.807 220.604 109.156 219.672 109.156C218.839 109.156 218.154 108.922 217.617 108.453C217.086 107.979 216.82 107.38 216.82 106.656C216.82 105.776 217.154 105.094 217.82 104.609C218.492 104.12 219.435 103.875 220.648 103.875H222.055V103.211C222.055 102.706 221.904 102.305 221.602 102.008C221.299 101.706 220.854 101.555 220.266 101.555C219.75 101.555 219.318 101.685 218.969 101.945C218.62 102.206 218.445 102.521 218.445 102.891H216.992C216.992 102.469 217.141 102.062 217.438 101.672C217.74 101.276 218.146 100.964 218.656 100.734C219.172 100.505 219.737 100.391 220.352 100.391C221.326 100.391 222.089 100.635 222.641 101.125C223.193 101.609 223.479 102.279 223.5 103.133V107.023C223.5 107.799 223.599 108.417 223.797 108.875V109H222.281ZM219.883 107.898C220.336 107.898 220.766 107.781 221.172 107.547C221.578 107.312 221.872 107.008 222.055 106.633V104.898H220.922C219.151 104.898 218.266 105.417 218.266 106.453C218.266 106.906 218.417 107.26 218.719 107.516C219.021 107.771 219.409 107.898 219.883 107.898ZM233.125 107.977C233.641 107.977 234.091 107.82 234.477 107.508C234.862 107.195 235.076 106.805 235.117 106.336H236.484C236.458 106.82 236.292 107.281 235.984 107.719C235.677 108.156 235.266 108.505 234.75 108.766C234.24 109.026 233.698 109.156 233.125 109.156C231.974 109.156 231.057 108.773 230.375 108.008C229.698 107.237 229.359 106.185 229.359 104.852V104.609C229.359 103.786 229.51 103.055 229.812 102.414C230.115 101.773 230.547 101.276 231.109 100.922C231.677 100.568 232.346 100.391 233.117 100.391C234.065 100.391 234.852 100.674 235.477 101.242C236.107 101.81 236.443 102.547 236.484 103.453H235.117C235.076 102.906 234.867 102.458 234.492 102.109C234.122 101.755 233.664 101.578 233.117 101.578C232.383 101.578 231.812 101.844 231.406 102.375C231.005 102.901 230.805 103.664 230.805 104.664V104.938C230.805 105.911 231.005 106.661 231.406 107.188C231.807 107.714 232.38 107.977 233.125 107.977ZM239.68 109H238.234V97H239.68V109ZM243.57 109H242.125V100.547H243.57V109ZM242.008 98.3047C242.008 98.0703 242.078 97.8724 242.219 97.7109C242.365 97.5495 242.578 97.4688 242.859 97.4688C243.141 97.4688 243.354 97.5495 243.5 97.7109C243.646 97.8724 243.719 98.0703 243.719 98.3047C243.719 98.5391 243.646 98.7344 243.5 98.8906C243.354 99.0469 243.141 99.125 242.859 99.125C242.578 99.125 242.365 99.0469 242.219 98.8906C242.078 98.7344 242.008 98.5391 242.008 98.3047ZM249.281 107.977C249.797 107.977 250.247 107.82 250.633 107.508C251.018 107.195 251.232 106.805 251.273 106.336H252.641C252.615 106.82 252.448 107.281 252.141 107.719C251.833 108.156 251.422 108.505 250.906 108.766C250.396 109.026 249.854 109.156 249.281 109.156C248.13 109.156 247.214 108.773 246.531 108.008C245.854 107.237 245.516 106.185 245.516 104.852V104.609C245.516 103.786 245.667 103.055 245.969 102.414C246.271 101.773 246.703 101.276 247.266 100.922C247.833 100.568 248.503 100.391 249.273 100.391C250.221 100.391 251.008 100.674 251.633 101.242C252.263 101.81 252.599 102.547 252.641 103.453H251.273C251.232 102.906 251.023 102.458 250.648 102.109C250.279 101.755 249.82 101.578 249.273 101.578C248.539 101.578 247.969 101.844 247.562 102.375C247.161 102.901 246.961 103.664 246.961 104.664V104.938C246.961 105.911 247.161 106.661 247.562 107.188C247.964 107.714 248.536 107.977 249.281 107.977ZM256.625 105.086L255.719 106.031V109H254.273V97H255.719V104.258L256.492 103.328L259.125 100.547H260.883L257.594 104.078L261.266 109H259.57L256.625 105.086ZM267.594 109C267.51 108.833 267.443 108.536 267.391 108.109C266.719 108.807 265.917 109.156 264.984 109.156C264.151 109.156 263.466 108.922 262.93 108.453C262.398 107.979 262.133 107.38 262.133 106.656C262.133 105.776 262.466 105.094 263.133 104.609C263.805 104.12 264.747 103.875 265.961 103.875H267.367V103.211C267.367 102.706 267.216 102.305 266.914 102.008C266.612 101.706 266.167 101.555 265.578 101.555C265.062 101.555 264.63 101.685 264.281 101.945C263.932 102.206 263.758 102.521 263.758 102.891H262.305C262.305 102.469 262.453 102.062 262.75 101.672C263.052 101.276 263.458 100.964 263.969 100.734C264.484 100.505 265.049 100.391 265.664 100.391C266.638 100.391 267.401 100.635 267.953 101.125C268.505 101.609 268.792 102.279 268.812 103.133V107.023C268.812 107.799 268.911 108.417 269.109 108.875V109H267.594ZM265.195 107.898C265.648 107.898 266.078 107.781 266.484 107.547C266.891 107.312 267.185 107.008 267.367 106.633V104.898H266.234C264.464 104.898 263.578 105.417 263.578 106.453C263.578 106.906 263.729 107.26 264.031 107.516C264.333 107.771 264.721 107.898 265.195 107.898ZM278.234 104.867C278.234 106.159 277.938 107.198 277.344 107.984C276.75 108.766 275.953 109.156 274.953 109.156C273.885 109.156 273.06 108.779 272.477 108.023L272.406 109H271.078V97H272.523V101.477C273.107 100.753 273.911 100.391 274.938 100.391C275.964 100.391 276.768 100.779 277.352 101.555C277.94 102.331 278.234 103.393 278.234 104.742V104.867ZM276.789 104.703C276.789 103.719 276.599 102.958 276.219 102.422C275.839 101.885 275.292 101.617 274.578 101.617C273.625 101.617 272.94 102.06 272.523 102.945V106.602C272.966 107.487 273.656 107.93 274.594 107.93C275.286 107.93 275.826 107.661 276.211 107.125C276.596 106.589 276.789 105.781 276.789 104.703ZM281.633 109H280.188V97H281.633V109ZM287.461 109.156C286.315 109.156 285.383 108.781 284.664 108.031C283.945 107.276 283.586 106.268 283.586 105.008V104.742C283.586 103.904 283.745 103.156 284.062 102.5C284.385 101.839 284.833 101.323 285.406 100.953C285.984 100.578 286.609 100.391 287.281 100.391C288.38 100.391 289.234 100.753 289.844 101.477C290.453 102.201 290.758 103.237 290.758 104.586V105.188H285.031C285.052 106.021 285.294 106.695 285.758 107.211C286.227 107.721 286.82 107.977 287.539 107.977C288.049 107.977 288.482 107.872 288.836 107.664C289.19 107.456 289.5 107.18 289.766 106.836L290.648 107.523C289.94 108.612 288.878 109.156 287.461 109.156ZM287.281 101.578C286.698 101.578 286.208 101.792 285.812 102.219C285.417 102.641 285.172 103.234 285.078 104H289.312V103.891C289.271 103.156 289.073 102.589 288.719 102.188C288.365 101.781 287.885 101.578 287.281 101.578ZM303.547 104.867C303.547 106.154 303.253 107.19 302.664 107.977C302.076 108.763 301.279 109.156 300.273 109.156C299.247 109.156 298.44 108.831 297.852 108.18V112.25H296.406V100.547H297.727L297.797 101.484C298.385 100.755 299.203 100.391 300.25 100.391C301.266 100.391 302.068 100.773 302.656 101.539C303.25 102.305 303.547 103.37 303.547 104.734V104.867ZM302.102 104.703C302.102 103.75 301.898 102.997 301.492 102.445C301.086 101.893 300.529 101.617 299.82 101.617C298.945 101.617 298.289 102.005 297.852 102.781V106.82C298.284 107.591 298.945 107.977 299.836 107.977C300.529 107.977 301.078 107.703 301.484 107.156C301.896 106.604 302.102 105.786 302.102 104.703ZM309.477 101.844C309.258 101.807 309.021 101.789 308.766 101.789C307.818 101.789 307.174 102.193 306.836 103V109H305.391V100.547H306.797L306.82 101.523C307.294 100.768 307.966 100.391 308.836 100.391C309.117 100.391 309.331 100.427 309.477 100.5V101.844ZM310.273 104.695C310.273 103.867 310.435 103.122 310.758 102.461C311.086 101.799 311.539 101.289 312.117 100.93C312.701 100.57 313.365 100.391 314.109 100.391C315.26 100.391 316.19 100.789 316.898 101.586C317.612 102.383 317.969 103.443 317.969 104.766V104.867C317.969 105.69 317.81 106.43 317.492 107.086C317.18 107.737 316.729 108.245 316.141 108.609C315.557 108.974 314.885 109.156 314.125 109.156C312.979 109.156 312.049 108.758 311.336 107.961C310.628 107.164 310.273 106.109 310.273 104.797V104.695ZM311.727 104.867C311.727 105.805 311.943 106.557 312.375 107.125C312.812 107.693 313.396 107.977 314.125 107.977C314.859 107.977 315.443 107.69 315.875 107.117C316.307 106.539 316.523 105.732 316.523 104.695C316.523 103.768 316.302 103.018 315.859 102.445C315.422 101.867 314.839 101.578 314.109 101.578C313.396 101.578 312.82 101.862 312.383 102.43C311.945 102.997 311.727 103.81 311.727 104.867ZM321.742 98.5V100.547H323.32V101.664H321.742V106.906C321.742 107.245 321.812 107.5 321.953 107.672C322.094 107.839 322.333 107.922 322.672 107.922C322.839 107.922 323.068 107.891 323.359 107.828V109C322.979 109.104 322.609 109.156 322.25 109.156C321.604 109.156 321.117 108.961 320.789 108.57C320.461 108.18 320.297 107.625 320.297 106.906V101.664H318.758V100.547H320.297V98.5H321.742ZM324.477 104.695C324.477 103.867 324.638 103.122 324.961 102.461C325.289 101.799 325.742 101.289 326.32 100.93C326.904 100.57 327.568 100.391 328.312 100.391C329.464 100.391 330.393 100.789 331.102 101.586C331.815 102.383 332.172 103.443 332.172 104.766V104.867C332.172 105.69 332.013 106.43 331.695 107.086C331.383 107.737 330.932 108.245 330.344 108.609C329.76 108.974 329.089 109.156 328.328 109.156C327.182 109.156 326.253 108.758 325.539 107.961C324.831 107.164 324.477 106.109 324.477 104.797V104.695ZM325.93 104.867C325.93 105.805 326.146 106.557 326.578 107.125C327.016 107.693 327.599 107.977 328.328 107.977C329.062 107.977 329.646 107.69 330.078 107.117C330.51 106.539 330.727 105.732 330.727 104.695C330.727 103.768 330.505 103.018 330.062 102.445C329.625 101.867 329.042 101.578 328.312 101.578C327.599 101.578 327.023 101.862 326.586 102.43C326.148 102.997 325.93 103.81 325.93 104.867ZM335.945 98.5V100.547H337.523V101.664H335.945V106.906C335.945 107.245 336.016 107.5 336.156 107.672C336.297 107.839 336.536 107.922 336.875 107.922C337.042 107.922 337.271 107.891 337.562 107.828V109C337.182 109.104 336.812 109.156 336.453 109.156C335.807 109.156 335.32 108.961 334.992 108.57C334.664 108.18 334.5 107.625 334.5 106.906V101.664H332.961V100.547H334.5V98.5H335.945ZM341.984 106.883L343.953 100.547H345.5L342.102 110.305C341.576 111.711 340.74 112.414 339.594 112.414L339.32 112.391L338.781 112.289V111.117L339.172 111.148C339.661 111.148 340.042 111.049 340.312 110.852C340.589 110.654 340.815 110.292 340.992 109.766L341.312 108.906L338.297 100.547H339.875L341.984 106.883ZM353.938 104.867C353.938 106.154 353.643 107.19 353.055 107.977C352.466 108.763 351.669 109.156 350.664 109.156C349.638 109.156 348.831 108.831 348.242 108.18V112.25H346.797V100.547H348.117L348.188 101.484C348.776 100.755 349.594 100.391 350.641 100.391C351.656 100.391 352.458 100.773 353.047 101.539C353.641 102.305 353.938 103.37 353.938 104.734V104.867ZM352.492 104.703C352.492 103.75 352.289 102.997 351.883 102.445C351.477 101.893 350.919 101.617 350.211 101.617C349.336 101.617 348.68 102.005 348.242 102.781V106.82C348.674 107.591 349.336 107.977 350.227 107.977C350.919 107.977 351.469 107.703 351.875 107.156C352.286 106.604 352.492 105.786 352.492 104.703ZM359.289 109.156C358.143 109.156 357.211 108.781 356.492 108.031C355.773 107.276 355.414 106.268 355.414 105.008V104.742C355.414 103.904 355.573 103.156 355.891 102.5C356.214 101.839 356.661 101.323 357.234 100.953C357.812 100.578 358.438 100.391 359.109 100.391C360.208 100.391 361.062 100.753 361.672 101.477C362.281 102.201 362.586 103.237 362.586 104.586V105.188H356.859C356.88 106.021 357.122 106.695 357.586 107.211C358.055 107.721 358.648 107.977 359.367 107.977C359.878 107.977 360.31 107.872 360.664 107.664C361.018 107.456 361.328 107.18 361.594 106.836L362.477 107.523C361.768 108.612 360.706 109.156 359.289 109.156ZM359.109 101.578C358.526 101.578 358.036 101.792 357.641 102.219C357.245 102.641 357 103.234 356.906 104H361.141V103.891C361.099 103.156 360.901 102.589 360.547 102.188C360.193 101.781 359.714 101.578 359.109 101.578ZM373.156 106.758C373.156 106.367 373.008 106.065 372.711 105.852C372.419 105.633 371.906 105.445 371.172 105.289C370.443 105.133 369.862 104.945 369.43 104.727C369.003 104.508 368.685 104.247 368.477 103.945C368.273 103.643 368.172 103.284 368.172 102.867C368.172 102.174 368.464 101.589 369.047 101.109C369.635 100.63 370.385 100.391 371.297 100.391C372.255 100.391 373.031 100.638 373.625 101.133C374.224 101.628 374.523 102.26 374.523 103.031H373.07C373.07 102.635 372.901 102.294 372.562 102.008C372.229 101.721 371.807 101.578 371.297 101.578C370.771 101.578 370.359 101.693 370.062 101.922C369.766 102.151 369.617 102.451 369.617 102.82C369.617 103.169 369.755 103.432 370.031 103.609C370.307 103.786 370.805 103.956 371.523 104.117C372.247 104.279 372.833 104.471 373.281 104.695C373.729 104.919 374.06 105.19 374.273 105.508C374.492 105.82 374.602 106.203 374.602 106.656C374.602 107.411 374.299 108.018 373.695 108.477C373.091 108.93 372.307 109.156 371.344 109.156C370.667 109.156 370.068 109.036 369.547 108.797C369.026 108.557 368.617 108.224 368.32 107.797C368.029 107.365 367.883 106.898 367.883 106.398H369.328C369.354 106.883 369.547 107.268 369.906 107.555C370.271 107.836 370.75 107.977 371.344 107.977C371.891 107.977 372.328 107.867 372.656 107.648C372.99 107.424 373.156 107.128 373.156 106.758ZM376.102 104.695C376.102 103.867 376.263 103.122 376.586 102.461C376.914 101.799 377.367 101.289 377.945 100.93C378.529 100.57 379.193 100.391 379.938 100.391C381.089 100.391 382.018 100.789 382.727 101.586C383.44 102.383 383.797 103.443 383.797 104.766V104.867C383.797 105.69 383.638 106.43 383.32 107.086C383.008 107.737 382.557 108.245 381.969 108.609C381.385 108.974 380.714 109.156 379.953 109.156C378.807 109.156 377.878 108.758 377.164 107.961C376.456 107.164 376.102 106.109 376.102 104.797V104.695ZM377.555 104.867C377.555 105.805 377.771 106.557 378.203 107.125C378.641 107.693 379.224 107.977 379.953 107.977C380.688 107.977 381.271 107.69 381.703 107.117C382.135 106.539 382.352 105.732 382.352 104.695C382.352 103.768 382.13 103.018 381.688 102.445C381.25 101.867 380.667 101.578 379.938 101.578C379.224 101.578 378.648 101.862 378.211 102.43C377.773 102.997 377.555 103.81 377.555 104.867ZM392.344 106.883L394.312 100.547H395.859L392.461 110.305C391.935 111.711 391.099 112.414 389.953 112.414L389.68 112.391L389.141 112.289V111.117L389.531 111.148C390.021 111.148 390.401 111.049 390.672 110.852C390.948 110.654 391.174 110.292 391.352 109.766L391.672 108.906L388.656 100.547H390.234L392.344 106.883ZM396.648 104.695C396.648 103.867 396.81 103.122 397.133 102.461C397.461 101.799 397.914 101.289 398.492 100.93C399.076 100.57 399.74 100.391 400.484 100.391C401.635 100.391 402.565 100.789 403.273 101.586C403.987 102.383 404.344 103.443 404.344 104.766V104.867C404.344 105.69 404.185 106.43 403.867 107.086C403.555 107.737 403.104 108.245 402.516 108.609C401.932 108.974 401.26 109.156 400.5 109.156C399.354 109.156 398.424 108.758 397.711 107.961C397.003 107.164 396.648 106.109 396.648 104.797V104.695ZM398.102 104.867C398.102 105.805 398.318 106.557 398.75 107.125C399.188 107.693 399.771 107.977 400.5 107.977C401.234 107.977 401.818 107.69 402.25 107.117C402.682 106.539 402.898 105.732 402.898 104.695C402.898 103.768 402.677 103.018 402.234 102.445C401.797 101.867 401.214 101.578 400.484 101.578C399.771 101.578 399.195 101.862 398.758 102.43C398.32 102.997 398.102 103.81 398.102 104.867ZM411.375 108.164C410.812 108.826 409.987 109.156 408.898 109.156C407.997 109.156 407.31 108.896 406.836 108.375C406.367 107.849 406.13 107.073 406.125 106.047V100.547H407.57V106.008C407.57 107.289 408.091 107.93 409.133 107.93C410.237 107.93 410.971 107.518 411.336 106.695V100.547H412.781V109H411.406L411.375 108.164ZM422.344 107.977C422.859 107.977 423.31 107.82 423.695 107.508C424.081 107.195 424.294 106.805 424.336 106.336H425.703C425.677 106.82 425.51 107.281 425.203 107.719C424.896 108.156 424.484 108.505 423.969 108.766C423.458 109.026 422.917 109.156 422.344 109.156C421.193 109.156 420.276 108.773 419.594 108.008C418.917 107.237 418.578 106.185 418.578 104.852V104.609C418.578 103.786 418.729 103.055 419.031 102.414C419.333 101.773 419.766 101.276 420.328 100.922C420.896 100.568 421.565 100.391 422.336 100.391C423.284 100.391 424.07 100.674 424.695 101.242C425.326 101.81 425.661 102.547 425.703 103.453H424.336C424.294 102.906 424.086 102.458 423.711 102.109C423.341 101.755 422.883 101.578 422.336 101.578C421.602 101.578 421.031 101.844 420.625 102.375C420.224 102.901 420.023 103.664 420.023 104.664V104.938C420.023 105.911 420.224 106.661 420.625 107.188C421.026 107.714 421.599 107.977 422.344 107.977ZM432.547 109C432.464 108.833 432.396 108.536 432.344 108.109C431.672 108.807 430.87 109.156 429.938 109.156C429.104 109.156 428.419 108.922 427.883 108.453C427.352 107.979 427.086 107.38 427.086 106.656C427.086 105.776 427.419 105.094 428.086 104.609C428.758 104.12 429.701 103.875 430.914 103.875H432.32V103.211C432.32 102.706 432.169 102.305 431.867 102.008C431.565 101.706 431.12 101.555 430.531 101.555C430.016 101.555 429.583 101.685 429.234 101.945C428.885 102.206 428.711 102.521 428.711 102.891H427.258C427.258 102.469 427.406 102.062 427.703 101.672C428.005 101.276 428.411 100.964 428.922 100.734C429.438 100.505 430.003 100.391 430.617 100.391C431.591 100.391 432.354 100.635 432.906 101.125C433.458 101.609 433.745 102.279 433.766 103.133V107.023C433.766 107.799 433.865 108.417 434.062 108.875V109H432.547ZM430.148 107.898C430.602 107.898 431.031 107.781 431.438 107.547C431.844 107.312 432.138 107.008 432.32 106.633V104.898H431.188C429.417 104.898 428.531 105.417 428.531 106.453C428.531 106.906 428.682 107.26 428.984 107.516C429.286 107.771 429.674 107.898 430.148 107.898ZM437.398 100.547L437.445 101.609C438.091 100.797 438.935 100.391 439.977 100.391C441.763 100.391 442.664 101.398 442.68 103.414V109H441.234V103.406C441.229 102.797 441.089 102.346 440.812 102.055C440.542 101.763 440.117 101.617 439.539 101.617C439.07 101.617 438.659 101.742 438.305 101.992C437.951 102.242 437.674 102.57 437.477 102.977V109H436.031V100.547H437.398ZM450.789 98.5V100.547H452.367V101.664H450.789V106.906C450.789 107.245 450.859 107.5 451 107.672C451.141 107.839 451.38 107.922 451.719 107.922C451.885 107.922 452.115 107.891 452.406 107.828V109C452.026 109.104 451.656 109.156 451.297 109.156C450.651 109.156 450.164 108.961 449.836 108.57C449.508 108.18 449.344 107.625 449.344 106.906V101.664H447.805V100.547H449.344V98.5H450.789ZM457.57 109.156C456.424 109.156 455.492 108.781 454.773 108.031C454.055 107.276 453.695 106.268 453.695 105.008V104.742C453.695 103.904 453.854 103.156 454.172 102.5C454.495 101.839 454.943 101.323 455.516 100.953C456.094 100.578 456.719 100.391 457.391 100.391C458.49 100.391 459.344 100.753 459.953 101.477C460.562 102.201 460.867 103.237 460.867 104.586V105.188H455.141C455.161 106.021 455.404 106.695 455.867 107.211C456.336 107.721 456.93 107.977 457.648 107.977C458.159 107.977 458.591 107.872 458.945 107.664C459.299 107.456 459.609 107.18 459.875 106.836L460.758 107.523C460.049 108.612 458.987 109.156 457.57 109.156ZM457.391 101.578C456.807 101.578 456.318 101.792 455.922 102.219C455.526 102.641 455.281 103.234 455.188 104H459.422V103.891C459.38 103.156 459.182 102.589 458.828 102.188C458.474 101.781 457.995 101.578 457.391 101.578ZM467.469 106.758C467.469 106.367 467.32 106.065 467.023 105.852C466.732 105.633 466.219 105.445 465.484 105.289C464.755 105.133 464.174 104.945 463.742 104.727C463.315 104.508 462.997 104.247 462.789 103.945C462.586 103.643 462.484 103.284 462.484 102.867C462.484 102.174 462.776 101.589 463.359 101.109C463.948 100.63 464.698 100.391 465.609 100.391C466.568 100.391 467.344 100.638 467.938 101.133C468.536 101.628 468.836 102.26 468.836 103.031H467.383C467.383 102.635 467.214 102.294 466.875 102.008C466.542 101.721 466.12 101.578 465.609 101.578C465.083 101.578 464.672 101.693 464.375 101.922C464.078 102.151 463.93 102.451 463.93 102.82C463.93 103.169 464.068 103.432 464.344 103.609C464.62 103.786 465.117 103.956 465.836 104.117C466.56 104.279 467.146 104.471 467.594 104.695C468.042 104.919 468.372 105.19 468.586 105.508C468.805 105.82 468.914 106.203 468.914 106.656C468.914 107.411 468.612 108.018 468.008 108.477C467.404 108.93 466.62 109.156 465.656 109.156C464.979 109.156 464.38 109.036 463.859 108.797C463.339 108.557 462.93 108.224 462.633 107.797C462.341 107.365 462.195 106.898 462.195 106.398H463.641C463.667 106.883 463.859 107.268 464.219 107.555C464.583 107.836 465.062 107.977 465.656 107.977C466.203 107.977 466.641 107.867 466.969 107.648C467.302 107.424 467.469 107.128 467.469 106.758ZM472.758 98.5V100.547H474.336V101.664H472.758V106.906C472.758 107.245 472.828 107.5 472.969 107.672C473.109 107.839 473.349 107.922 473.688 107.922C473.854 107.922 474.083 107.891 474.375 107.828V109C473.995 109.104 473.625 109.156 473.266 109.156C472.62 109.156 472.133 108.961 471.805 108.57C471.477 108.18 471.312 107.625 471.312 106.906V101.664H469.773V100.547H471.312V98.5H472.758ZM46.3125 139C46.2292 138.833 46.1615 138.536 46.1094 138.109C45.4375 138.807 44.6354 139.156 43.7031 139.156C42.8698 139.156 42.1849 138.922 41.6484 138.453C41.1172 137.979 40.8516 137.38 40.8516 136.656C40.8516 135.776 41.1849 135.094 41.8516 134.609C42.5234 134.12 43.4661 133.875 44.6797 133.875H46.0859V133.211C46.0859 132.706 45.9349 132.305 45.6328 132.008C45.3307 131.706 44.8854 131.555 44.2969 131.555C43.7812 131.555 43.349 131.685 43 131.945C42.651 132.206 42.4766 132.521 42.4766 132.891H41.0234C41.0234 132.469 41.1719 132.062 41.4688 131.672C41.7708 131.276 42.1771 130.964 42.6875 130.734C43.2031 130.505 43.7682 130.391 44.3828 130.391C45.3568 130.391 46.1198 130.635 46.6719 131.125C47.224 131.609 47.5104 132.279 47.5312 133.133V137.023C47.5312 137.799 47.6302 138.417 47.8281 138.875V139H46.3125ZM43.9141 137.898C44.3672 137.898 44.7969 137.781 45.2031 137.547C45.6094 137.312 45.9036 137.008 46.0859 136.633V134.898H44.9531C43.1823 134.898 42.2969 135.417 42.2969 136.453C42.2969 136.906 42.4479 137.26 42.75 137.516C43.0521 137.771 43.4401 137.898 43.9141 137.898ZM51.1641 130.547L51.2109 131.609C51.8568 130.797 52.7005 130.391 53.7422 130.391C55.5286 130.391 56.4297 131.398 56.4453 133.414V139H55V133.406C54.9948 132.797 54.8542 132.346 54.5781 132.055C54.3073 131.763 53.8828 131.617 53.3047 131.617C52.8359 131.617 52.4245 131.742 52.0703 131.992C51.7161 132.242 51.4401 132.57 51.2422 132.977V139H49.7969V130.547H51.1641ZM58.2734 134.703C58.2734 133.406 58.5807 132.365 59.1953 131.578C59.8099 130.786 60.6146 130.391 61.6094 130.391C62.599 130.391 63.3828 130.729 63.9609 131.406V127H65.4062V139H64.0781L64.0078 138.094C63.4297 138.802 62.625 139.156 61.5938 139.156C60.6146 139.156 59.8151 138.755 59.1953 137.953C58.5807 137.151 58.2734 136.104 58.2734 134.812V134.703ZM59.7188 134.867C59.7188 135.826 59.9167 136.576 60.3125 137.117C60.7083 137.659 61.2552 137.93 61.9531 137.93C62.8698 137.93 63.5391 137.518 63.9609 136.695V132.812C63.5286 132.016 62.8646 131.617 61.9688 131.617C61.2604 131.617 60.7083 131.891 60.3125 132.438C59.9167 132.984 59.7188 133.794 59.7188 134.867ZM78.7656 134.867C78.7656 136.154 78.4714 137.19 77.8828 137.977C77.2943 138.763 76.4974 139.156 75.4922 139.156C74.4661 139.156 73.6589 138.831 73.0703 138.18V142.25H71.625V130.547H72.9453L73.0156 131.484C73.6042 130.755 74.4219 130.391 75.4688 130.391C76.4844 130.391 77.2865 130.773 77.875 131.539C78.4688 132.305 78.7656 133.37 78.7656 134.734V134.867ZM77.3203 134.703C77.3203 133.75 77.1172 132.997 76.7109 132.445C76.3047 131.893 75.7474 131.617 75.0391 131.617C74.1641 131.617 73.5078 132.005 73.0703 132.781V136.82C73.5026 137.591 74.1641 137.977 75.0547 137.977C75.7474 137.977 76.2969 137.703 76.7031 137.156C77.1146 136.604 77.3203 135.786 77.3203 134.703ZM82.1797 139H80.7344V127H82.1797V139ZM89.7188 139C89.6354 138.833 89.5677 138.536 89.5156 138.109C88.8438 138.807 88.0417 139.156 87.1094 139.156C86.276 139.156 85.5911 138.922 85.0547 138.453C84.5234 137.979 84.2578 137.38 84.2578 136.656C84.2578 135.776 84.5911 135.094 85.2578 134.609C85.9297 134.12 86.8724 133.875 88.0859 133.875H89.4922V133.211C89.4922 132.706 89.3411 132.305 89.0391 132.008C88.737 131.706 88.2917 131.555 87.7031 131.555C87.1875 131.555 86.7552 131.685 86.4062 131.945C86.0573 132.206 85.8828 132.521 85.8828 132.891H84.4297C84.4297 132.469 84.5781 132.062 84.875 131.672C85.1771 131.276 85.5833 130.964 86.0938 130.734C86.6094 130.505 87.1745 130.391 87.7891 130.391C88.763 130.391 89.526 130.635 90.0781 131.125C90.6302 131.609 90.9167 132.279 90.9375 133.133V137.023C90.9375 137.799 91.0365 138.417 91.2344 138.875V139H89.7188ZM87.3203 137.898C87.7734 137.898 88.2031 137.781 88.6094 137.547C89.0156 137.312 89.3099 137.008 89.4922 136.633V134.898H88.3594C86.5885 134.898 85.7031 135.417 85.7031 136.453C85.7031 136.906 85.8542 137.26 86.1562 137.516C86.4583 137.771 86.8464 137.898 87.3203 137.898ZM95.8438 136.883L97.8125 130.547H99.3594L95.9609 140.305C95.4349 141.711 94.599 142.414 93.4531 142.414L93.1797 142.391L92.6406 142.289V141.117L93.0312 141.148C93.5208 141.148 93.901 141.049 94.1719 140.852C94.4479 140.654 94.6745 140.292 94.8516 139.766L95.1719 138.906L92.1562 130.547H93.7344L95.8438 136.883ZM112.109 137.008L113.734 130.547H115.18L112.719 139H111.547L109.492 132.594L107.492 139H106.32L103.867 130.547H105.305L106.969 136.875L108.938 130.547H110.102L112.109 137.008ZM118.227 139H116.781V130.547H118.227V139ZM116.664 128.305C116.664 128.07 116.734 127.872 116.875 127.711C117.021 127.549 117.234 127.469 117.516 127.469C117.797 127.469 118.01 127.549 118.156 127.711C118.302 127.872 118.375 128.07 118.375 128.305C118.375 128.539 118.302 128.734 118.156 128.891C118.01 129.047 117.797 129.125 117.516 129.125C117.234 129.125 117.021 129.047 116.875 128.891C116.734 128.734 116.664 128.539 116.664 128.305ZM122.508 128.5V130.547H124.086V131.664H122.508V136.906C122.508 137.245 122.578 137.5 122.719 137.672C122.859 137.839 123.099 137.922 123.438 137.922C123.604 137.922 123.833 137.891 124.125 137.828V139C123.745 139.104 123.375 139.156 123.016 139.156C122.37 139.156 121.883 138.961 121.555 138.57C121.227 138.18 121.062 137.625 121.062 136.906V131.664H119.523V130.547H121.062V128.5H122.508ZM127.227 131.57C127.867 130.784 128.701 130.391 129.727 130.391C131.513 130.391 132.414 131.398 132.43 133.414V139H130.984V133.406C130.979 132.797 130.839 132.346 130.562 132.055C130.292 131.763 129.867 131.617 129.289 131.617C128.82 131.617 128.409 131.742 128.055 131.992C127.701 132.242 127.424 132.57 127.227 132.977V139H125.781V127H127.227V131.57ZM141.328 136.883L143.297 130.547H144.844L141.445 140.305C140.919 141.711 140.083 142.414 138.938 142.414L138.664 142.391L138.125 142.289V141.117L138.516 141.148C139.005 141.148 139.385 141.049 139.656 140.852C139.932 140.654 140.159 140.292 140.336 139.766L140.656 138.906L137.641 130.547H139.219L141.328 136.883ZM145.633 134.695C145.633 133.867 145.794 133.122 146.117 132.461C146.445 131.799 146.898 131.289 147.477 130.93C148.06 130.57 148.724 130.391 149.469 130.391C150.62 130.391 151.549 130.789 152.258 131.586C152.971 132.383 153.328 133.443 153.328 134.766V134.867C153.328 135.69 153.169 136.43 152.852 137.086C152.539 137.737 152.089 138.245 151.5 138.609C150.917 138.974 150.245 139.156 149.484 139.156C148.339 139.156 147.409 138.758 146.695 137.961C145.987 137.164 145.633 136.109 145.633 134.797V134.695ZM147.086 134.867C147.086 135.805 147.302 136.557 147.734 137.125C148.172 137.693 148.755 137.977 149.484 137.977C150.219 137.977 150.802 137.69 151.234 137.117C151.667 136.539 151.883 135.732 151.883 134.695C151.883 133.768 151.661 133.018 151.219 132.445C150.781 131.867 150.198 131.578 149.469 131.578C148.755 131.578 148.18 131.862 147.742 132.43C147.305 132.997 147.086 133.81 147.086 134.867ZM160.359 138.164C159.797 138.826 158.971 139.156 157.883 139.156C156.982 139.156 156.294 138.896 155.82 138.375C155.352 137.849 155.115 137.073 155.109 136.047V130.547H156.555V136.008C156.555 137.289 157.076 137.93 158.117 137.93C159.221 137.93 159.956 137.518 160.32 136.695V130.547H161.766V139H160.391L160.359 138.164ZM168.055 131.844C167.836 131.807 167.599 131.789 167.344 131.789C166.396 131.789 165.753 132.193 165.414 133V139H163.969V130.547H165.375L165.398 131.523C165.872 130.768 166.544 130.391 167.414 130.391C167.695 130.391 167.909 130.427 168.055 130.5V131.844ZM180.5 134.867C180.5 136.154 180.206 137.19 179.617 137.977C179.029 138.763 178.232 139.156 177.227 139.156C176.201 139.156 175.393 138.831 174.805 138.18V142.25H173.359V130.547H174.68L174.75 131.484C175.339 130.755 176.156 130.391 177.203 130.391C178.219 130.391 179.021 130.773 179.609 131.539C180.203 132.305 180.5 133.37 180.5 134.734V134.867ZM179.055 134.703C179.055 133.75 178.852 132.997 178.445 132.445C178.039 131.893 177.482 131.617 176.773 131.617C175.898 131.617 175.242 132.005 174.805 132.781V136.82C175.237 137.591 175.898 137.977 176.789 137.977C177.482 137.977 178.031 137.703 178.438 137.156C178.849 136.604 179.055 135.786 179.055 134.703ZM186.43 131.844C186.211 131.807 185.974 131.789 185.719 131.789C184.771 131.789 184.128 132.193 183.789 133V139H182.344V130.547H183.75L183.773 131.523C184.247 130.768 184.919 130.391 185.789 130.391C186.07 130.391 186.284 130.427 186.43 130.5V131.844ZM187.227 134.695C187.227 133.867 187.388 133.122 187.711 132.461C188.039 131.799 188.492 131.289 189.07 130.93C189.654 130.57 190.318 130.391 191.062 130.391C192.214 130.391 193.143 130.789 193.852 131.586C194.565 132.383 194.922 133.443 194.922 134.766V134.867C194.922 135.69 194.763 136.43 194.445 137.086C194.133 137.737 193.682 138.245 193.094 138.609C192.51 138.974 191.839 139.156 191.078 139.156C189.932 139.156 189.003 138.758 188.289 137.961C187.581 137.164 187.227 136.109 187.227 134.797V134.695ZM188.68 134.867C188.68 135.805 188.896 136.557 189.328 137.125C189.766 137.693 190.349 137.977 191.078 137.977C191.812 137.977 192.396 137.69 192.828 137.117C193.26 136.539 193.477 135.732 193.477 134.695C193.477 133.768 193.255 133.018 192.812 132.445C192.375 131.867 191.792 131.578 191.062 131.578C190.349 131.578 189.773 131.862 189.336 132.43C188.898 132.997 188.68 133.81 188.68 134.867ZM196.383 134.703C196.383 133.406 196.69 132.365 197.305 131.578C197.919 130.786 198.724 130.391 199.719 130.391C200.708 130.391 201.492 130.729 202.07 131.406V127H203.516V139H202.188L202.117 138.094C201.539 138.802 200.734 139.156 199.703 139.156C198.724 139.156 197.924 138.755 197.305 137.953C196.69 137.151 196.383 136.104 196.383 134.812V134.703ZM197.828 134.867C197.828 135.826 198.026 136.576 198.422 137.117C198.818 137.659 199.365 137.93 200.062 137.93C200.979 137.93 201.648 137.518 202.07 136.695V132.812C201.638 132.016 200.974 131.617 200.078 131.617C199.37 131.617 198.818 131.891 198.422 132.438C198.026 132.984 197.828 133.794 197.828 134.867ZM210.984 138.164C210.422 138.826 209.596 139.156 208.508 139.156C207.607 139.156 206.919 138.896 206.445 138.375C205.977 137.849 205.74 137.073 205.734 136.047V130.547H207.18V136.008C207.18 137.289 207.701 137.93 208.742 137.93C209.846 137.93 210.581 137.518 210.945 136.695V130.547H212.391V139H211.016L210.984 138.164ZM217.984 137.977C218.5 137.977 218.951 137.82 219.336 137.508C219.721 137.195 219.935 136.805 219.977 136.336H221.344C221.318 136.82 221.151 137.281 220.844 137.719C220.536 138.156 220.125 138.505 219.609 138.766C219.099 139.026 218.557 139.156 217.984 139.156C216.833 139.156 215.917 138.773 215.234 138.008C214.557 137.237 214.219 136.185 214.219 134.852V134.609C214.219 133.786 214.37 133.055 214.672 132.414C214.974 131.773 215.406 131.276 215.969 130.922C216.536 130.568 217.206 130.391 217.977 130.391C218.924 130.391 219.711 130.674 220.336 131.242C220.966 131.81 221.302 132.547 221.344 133.453H219.977C219.935 132.906 219.727 132.458 219.352 132.109C218.982 131.755 218.523 131.578 217.977 131.578C217.242 131.578 216.672 131.844 216.266 132.375C215.865 132.901 215.664 133.664 215.664 134.664V134.938C215.664 135.911 215.865 136.661 216.266 137.188C216.667 137.714 217.24 137.977 217.984 137.977ZM224.93 128.5V130.547H226.508V131.664H224.93V136.906C224.93 137.245 225 137.5 225.141 137.672C225.281 137.839 225.521 137.922 225.859 137.922C226.026 137.922 226.255 137.891 226.547 137.828V139C226.167 139.104 225.797 139.156 225.438 139.156C224.792 139.156 224.305 138.961 223.977 138.57C223.648 138.18 223.484 137.625 223.484 136.906V131.664H221.945V130.547H223.484V128.5H224.93ZM227.977 131.344C227.977 131.094 228.049 130.885 228.195 130.719C228.346 130.552 228.57 130.469 228.867 130.469C229.164 130.469 229.388 130.552 229.539 130.719C229.695 130.885 229.773 131.094 229.773 131.344C229.773 131.583 229.695 131.784 229.539 131.945C229.388 132.107 229.164 132.188 228.867 132.188C228.57 132.188 228.346 132.107 228.195 131.945C228.049 131.784 227.977 131.583 227.977 131.344ZM228.25 141.266L227.43 140.703C227.919 140.021 228.174 139.318 228.195 138.594V137.289H229.609V138.422C229.609 138.948 229.479 139.474 229.219 140C228.964 140.526 228.641 140.948 228.25 141.266ZM240.781 139C240.698 138.833 240.63 138.536 240.578 138.109C239.906 138.807 239.104 139.156 238.172 139.156C237.339 139.156 236.654 138.922 236.117 138.453C235.586 137.979 235.32 137.38 235.32 136.656C235.32 135.776 235.654 135.094 236.32 134.609C236.992 134.12 237.935 133.875 239.148 133.875H240.555V133.211C240.555 132.706 240.404 132.305 240.102 132.008C239.799 131.706 239.354 131.555 238.766 131.555C238.25 131.555 237.818 131.685 237.469 131.945C237.12 132.206 236.945 132.521 236.945 132.891H235.492C235.492 132.469 235.641 132.062 235.938 131.672C236.24 131.276 236.646 130.964 237.156 130.734C237.672 130.505 238.237 130.391 238.852 130.391C239.826 130.391 240.589 130.635 241.141 131.125C241.693 131.609 241.979 132.279 242 133.133V137.023C242 137.799 242.099 138.417 242.297 138.875V139H240.781ZM238.383 137.898C238.836 137.898 239.266 137.781 239.672 137.547C240.078 137.312 240.372 137.008 240.555 136.633V134.898H239.422C237.651 134.898 236.766 135.417 236.766 136.453C236.766 136.906 236.917 137.26 237.219 137.516C237.521 137.771 237.909 137.898 238.383 137.898ZM245.836 139H244.391V127H245.836V139ZM249.727 139H248.281V127H249.727V139ZM251.664 134.695C251.664 133.867 251.826 133.122 252.148 132.461C252.477 131.799 252.93 131.289 253.508 130.93C254.091 130.57 254.755 130.391 255.5 130.391C256.651 130.391 257.581 130.789 258.289 131.586C259.003 132.383 259.359 133.443 259.359 134.766V134.867C259.359 135.69 259.201 136.43 258.883 137.086C258.57 137.737 258.12 138.245 257.531 138.609C256.948 138.974 256.276 139.156 255.516 139.156C254.37 139.156 253.44 138.758 252.727 137.961C252.018 137.164 251.664 136.109 251.664 134.797V134.695ZM253.117 134.867C253.117 135.805 253.333 136.557 253.766 137.125C254.203 137.693 254.786 137.977 255.516 137.977C256.25 137.977 256.833 137.69 257.266 137.117C257.698 136.539 257.914 135.732 257.914 134.695C257.914 133.768 257.693 133.018 257.25 132.445C256.812 131.867 256.229 131.578 255.5 131.578C254.786 131.578 254.211 131.862 253.773 132.43C253.336 132.997 253.117 133.81 253.117 134.867ZM268.656 137.008L270.281 130.547H271.727L269.266 139H268.094L266.039 132.594L264.039 139H262.867L260.414 130.547H261.852L263.516 136.875L265.484 130.547H266.648L268.656 137.008ZM274.773 139H273.328V130.547H274.773V139ZM273.211 128.305C273.211 128.07 273.281 127.872 273.422 127.711C273.568 127.549 273.781 127.469 274.062 127.469C274.344 127.469 274.557 127.549 274.703 127.711C274.849 127.872 274.922 128.07 274.922 128.305C274.922 128.539 274.849 128.734 274.703 128.891C274.557 129.047 274.344 129.125 274.062 129.125C273.781 129.125 273.568 129.047 273.422 128.891C273.281 128.734 273.211 128.539 273.211 128.305ZM278.461 130.547L278.508 131.609C279.154 130.797 279.997 130.391 281.039 130.391C282.826 130.391 283.727 131.398 283.742 133.414V139H282.297V133.406C282.292 132.797 282.151 132.346 281.875 132.055C281.604 131.763 281.18 131.617 280.602 131.617C280.133 131.617 279.721 131.742 279.367 131.992C279.013 132.242 278.737 132.57 278.539 132.977V139H277.094V130.547H278.461ZM285.578 134.703C285.578 133.385 285.883 132.339 286.492 131.562C287.102 130.781 287.909 130.391 288.914 130.391C289.945 130.391 290.75 130.755 291.328 131.484L291.398 130.547H292.719V138.797C292.719 139.891 292.393 140.753 291.742 141.383C291.096 142.013 290.227 142.328 289.133 142.328C288.523 142.328 287.927 142.198 287.344 141.938C286.76 141.677 286.315 141.32 286.008 140.867L286.758 140C287.378 140.766 288.135 141.148 289.031 141.148C289.734 141.148 290.281 140.951 290.672 140.555C291.068 140.159 291.266 139.602 291.266 138.883V138.156C290.688 138.823 289.898 139.156 288.898 139.156C287.909 139.156 287.107 138.758 286.492 137.961C285.883 137.164 285.578 136.078 285.578 134.703ZM287.031 134.867C287.031 135.82 287.227 136.57 287.617 137.117C288.008 137.659 288.555 137.93 289.258 137.93C290.169 137.93 290.839 137.516 291.266 136.688V132.828C290.823 132.021 290.159 131.617 289.273 131.617C288.57 131.617 288.021 131.891 287.625 132.438C287.229 132.984 287.031 133.794 287.031 134.867ZM301.641 136.883L303.609 130.547H305.156L301.758 140.305C301.232 141.711 300.396 142.414 299.25 142.414L298.977 142.391L298.438 142.289V141.117L298.828 141.148C299.318 141.148 299.698 141.049 299.969 140.852C300.245 140.654 300.471 140.292 300.648 139.766L300.969 138.906L297.953 130.547H299.531L301.641 136.883ZM305.945 134.695C305.945 133.867 306.107 133.122 306.43 132.461C306.758 131.799 307.211 131.289 307.789 130.93C308.372 130.57 309.036 130.391 309.781 130.391C310.932 130.391 311.862 130.789 312.57 131.586C313.284 132.383 313.641 133.443 313.641 134.766V134.867C313.641 135.69 313.482 136.43 313.164 137.086C312.852 137.737 312.401 138.245 311.812 138.609C311.229 138.974 310.557 139.156 309.797 139.156C308.651 139.156 307.721 138.758 307.008 137.961C306.299 137.164 305.945 136.109 305.945 134.797V134.695ZM307.398 134.867C307.398 135.805 307.615 136.557 308.047 137.125C308.484 137.693 309.068 137.977 309.797 137.977C310.531 137.977 311.115 137.69 311.547 137.117C311.979 136.539 312.195 135.732 312.195 134.695C312.195 133.768 311.974 133.018 311.531 132.445C311.094 131.867 310.51 131.578 309.781 131.578C309.068 131.578 308.492 131.862 308.055 132.43C307.617 132.997 307.398 133.81 307.398 134.867ZM320.672 138.164C320.109 138.826 319.284 139.156 318.195 139.156C317.294 139.156 316.607 138.896 316.133 138.375C315.664 137.849 315.427 137.073 315.422 136.047V130.547H316.867V136.008C316.867 137.289 317.388 137.93 318.43 137.93C319.534 137.93 320.268 137.518 320.633 136.695V130.547H322.078V139H320.703L320.672 138.164ZM330.211 128.5V130.547H331.789V131.664H330.211V136.906C330.211 137.245 330.281 137.5 330.422 137.672C330.562 137.839 330.802 137.922 331.141 137.922C331.307 137.922 331.536 137.891 331.828 137.828V139C331.448 139.104 331.078 139.156 330.719 139.156C330.073 139.156 329.586 138.961 329.258 138.57C328.93 138.18 328.766 137.625 328.766 136.906V131.664H327.227V130.547H328.766V128.5H330.211ZM332.945 134.695C332.945 133.867 333.107 133.122 333.43 132.461C333.758 131.799 334.211 131.289 334.789 130.93C335.372 130.57 336.036 130.391 336.781 130.391C337.932 130.391 338.862 130.789 339.57 131.586C340.284 132.383 340.641 133.443 340.641 134.766V134.867C340.641 135.69 340.482 136.43 340.164 137.086C339.852 137.737 339.401 138.245 338.812 138.609C338.229 138.974 337.557 139.156 336.797 139.156C335.651 139.156 334.721 138.758 334.008 137.961C333.299 137.164 332.945 136.109 332.945 134.797V134.695ZM334.398 134.867C334.398 135.805 334.615 136.557 335.047 137.125C335.484 137.693 336.068 137.977 336.797 137.977C337.531 137.977 338.115 137.69 338.547 137.117C338.979 136.539 339.195 135.732 339.195 134.695C339.195 133.768 338.974 133.018 338.531 132.445C338.094 131.867 337.51 131.578 336.781 131.578C336.068 131.578 335.492 131.862 335.055 132.43C334.617 132.997 334.398 133.81 334.398 134.867ZM346.078 134.703C346.078 133.385 346.383 132.339 346.992 131.562C347.602 130.781 348.409 130.391 349.414 130.391C350.445 130.391 351.25 130.755 351.828 131.484L351.898 130.547H353.219V138.797C353.219 139.891 352.893 140.753 352.242 141.383C351.596 142.013 350.727 142.328 349.633 142.328C349.023 142.328 348.427 142.198 347.844 141.938C347.26 141.677 346.815 141.32 346.508 140.867L347.258 140C347.878 140.766 348.635 141.148 349.531 141.148C350.234 141.148 350.781 140.951 351.172 140.555C351.568 140.159 351.766 139.602 351.766 138.883V138.156C351.188 138.823 350.398 139.156 349.398 139.156C348.409 139.156 347.607 138.758 346.992 137.961C346.383 137.164 346.078 136.078 346.078 134.703ZM347.531 134.867C347.531 135.82 347.727 136.57 348.117 137.117C348.508 137.659 349.055 137.93 349.758 137.93C350.669 137.93 351.339 137.516 351.766 136.688V132.828C351.323 132.021 350.659 131.617 349.773 131.617C349.07 131.617 348.521 131.891 348.125 132.438C347.729 132.984 347.531 133.794 347.531 134.867ZM358.914 139.156C357.768 139.156 356.836 138.781 356.117 138.031C355.398 137.276 355.039 136.268 355.039 135.008V134.742C355.039 133.904 355.198 133.156 355.516 132.5C355.839 131.839 356.286 131.323 356.859 130.953C357.438 130.578 358.062 130.391 358.734 130.391C359.833 130.391 360.688 130.753 361.297 131.477C361.906 132.201 362.211 133.237 362.211 134.586V135.188H356.484C356.505 136.021 356.747 136.695 357.211 137.211C357.68 137.721 358.273 137.977 358.992 137.977C359.503 137.977 359.935 137.872 360.289 137.664C360.643 137.456 360.953 137.18 361.219 136.836L362.102 137.523C361.393 138.612 360.331 139.156 358.914 139.156ZM358.734 131.578C358.151 131.578 357.661 131.792 357.266 132.219C356.87 132.641 356.625 133.234 356.531 134H360.766V133.891C360.724 133.156 360.526 132.589 360.172 132.188C359.818 131.781 359.339 131.578 358.734 131.578ZM365.852 128.5V130.547H367.43V131.664H365.852V136.906C365.852 137.245 365.922 137.5 366.062 137.672C366.203 137.839 366.443 137.922 366.781 137.922C366.948 137.922 367.177 137.891 367.469 137.828V139C367.089 139.104 366.719 139.156 366.359 139.156C365.714 139.156 365.227 138.961 364.898 138.57C364.57 138.18 364.406 137.625 364.406 136.906V131.664H362.867V130.547H364.406V128.5H365.852ZM378.312 139C378.229 138.833 378.161 138.536 378.109 138.109C377.438 138.807 376.635 139.156 375.703 139.156C374.87 139.156 374.185 138.922 373.648 138.453C373.117 137.979 372.852 137.38 372.852 136.656C372.852 135.776 373.185 135.094 373.852 134.609C374.523 134.12 375.466 133.875 376.68 133.875H378.086V133.211C378.086 132.706 377.935 132.305 377.633 132.008C377.331 131.706 376.885 131.555 376.297 131.555C375.781 131.555 375.349 131.685 375 131.945C374.651 132.206 374.477 132.521 374.477 132.891H373.023C373.023 132.469 373.172 132.062 373.469 131.672C373.771 131.276 374.177 130.964 374.688 130.734C375.203 130.505 375.768 130.391 376.383 130.391C377.357 130.391 378.12 130.635 378.672 131.125C379.224 131.609 379.51 132.279 379.531 133.133V137.023C379.531 137.799 379.63 138.417 379.828 138.875V139H378.312ZM375.914 137.898C376.367 137.898 376.797 137.781 377.203 137.547C377.609 137.312 377.904 137.008 378.086 136.633V134.898H376.953C375.182 134.898 374.297 135.417 374.297 136.453C374.297 136.906 374.448 137.26 374.75 137.516C375.052 137.771 375.44 137.898 375.914 137.898ZM392.922 134.867C392.922 136.159 392.625 137.198 392.031 137.984C391.438 138.766 390.641 139.156 389.641 139.156C388.573 139.156 387.747 138.779 387.164 138.023L387.094 139H385.766V127H387.211V131.477C387.794 130.753 388.599 130.391 389.625 130.391C390.651 130.391 391.456 130.779 392.039 131.555C392.628 132.331 392.922 133.393 392.922 134.742V134.867ZM391.477 134.703C391.477 133.719 391.286 132.958 390.906 132.422C390.526 131.885 389.979 131.617 389.266 131.617C388.312 131.617 387.628 132.06 387.211 132.945V136.602C387.654 137.487 388.344 137.93 389.281 137.93C389.974 137.93 390.513 137.661 390.898 137.125C391.284 136.589 391.477 135.781 391.477 134.703ZM398.258 139.156C397.112 139.156 396.18 138.781 395.461 138.031C394.742 137.276 394.383 136.268 394.383 135.008V134.742C394.383 133.904 394.542 133.156 394.859 132.5C395.182 131.839 395.63 131.323 396.203 130.953C396.781 130.578 397.406 130.391 398.078 130.391C399.177 130.391 400.031 130.753 400.641 131.477C401.25 132.201 401.555 133.237 401.555 134.586V135.188H395.828C395.849 136.021 396.091 136.695 396.555 137.211C397.023 137.721 397.617 137.977 398.336 137.977C398.846 137.977 399.279 137.872 399.633 137.664C399.987 137.456 400.297 137.18 400.562 136.836L401.445 137.523C400.737 138.612 399.674 139.156 398.258 139.156ZM398.078 131.578C397.495 131.578 397.005 131.792 396.609 132.219C396.214 132.641 395.969 133.234 395.875 134H400.109V133.891C400.068 133.156 399.87 132.589 399.516 132.188C399.161 131.781 398.682 131.578 398.078 131.578ZM405.195 128.5V130.547H406.773V131.664H405.195V136.906C405.195 137.245 405.266 137.5 405.406 137.672C405.547 137.839 405.786 137.922 406.125 137.922C406.292 137.922 406.521 137.891 406.812 137.828V139C406.432 139.104 406.062 139.156 405.703 139.156C405.057 139.156 404.57 138.961 404.242 138.57C403.914 138.18 403.75 137.625 403.75 136.906V131.664H402.211V130.547H403.75V128.5H405.195ZM410.43 128.5V130.547H412.008V131.664H410.43V136.906C410.43 137.245 410.5 137.5 410.641 137.672C410.781 137.839 411.021 137.922 411.359 137.922C411.526 137.922 411.755 137.891 412.047 137.828V139C411.667 139.104 411.297 139.156 410.938 139.156C410.292 139.156 409.805 138.961 409.477 138.57C409.148 138.18 408.984 137.625 408.984 136.906V131.664H407.445V130.547H408.984V128.5H410.43ZM417.211 139.156C416.065 139.156 415.133 138.781 414.414 138.031C413.695 137.276 413.336 136.268 413.336 135.008V134.742C413.336 133.904 413.495 133.156 413.812 132.5C414.135 131.839 414.583 131.323 415.156 130.953C415.734 130.578 416.359 130.391 417.031 130.391C418.13 130.391 418.984 130.753 419.594 131.477C420.203 132.201 420.508 133.237 420.508 134.586V135.188H414.781C414.802 136.021 415.044 136.695 415.508 137.211C415.977 137.721 416.57 137.977 417.289 137.977C417.799 137.977 418.232 137.872 418.586 137.664C418.94 137.456 419.25 137.18 419.516 136.836L420.398 137.523C419.69 138.612 418.628 139.156 417.211 139.156ZM417.031 131.578C416.448 131.578 415.958 131.792 415.562 132.219C415.167 132.641 414.922 133.234 414.828 134H419.062V133.891C419.021 133.156 418.823 132.589 418.469 132.188C418.115 131.781 417.635 131.578 417.031 131.578ZM426.273 131.844C426.055 131.807 425.818 131.789 425.562 131.789C424.615 131.789 423.971 132.193 423.633 133V139H422.188V130.547H423.594L423.617 131.523C424.091 130.768 424.763 130.391 425.633 130.391C425.914 130.391 426.128 130.427 426.273 130.5V131.844ZM432.289 139V131.664H430.953V130.547H432.289V129.68C432.289 128.773 432.531 128.073 433.016 127.578C433.5 127.083 434.185 126.836 435.07 126.836C435.404 126.836 435.734 126.88 436.062 126.969L435.984 128.141C435.74 128.094 435.479 128.07 435.203 128.07C434.734 128.07 434.372 128.208 434.117 128.484C433.862 128.755 433.734 129.146 433.734 129.656V130.547H435.539V131.664H433.734V139H432.289ZM440.461 139.156C439.315 139.156 438.383 138.781 437.664 138.031C436.945 137.276 436.586 136.268 436.586 135.008V134.742C436.586 133.904 436.745 133.156 437.062 132.5C437.385 131.839 437.833 131.323 438.406 130.953C438.984 130.578 439.609 130.391 440.281 130.391C441.38 130.391 442.234 130.753 442.844 131.477C443.453 132.201 443.758 133.237 443.758 134.586V135.188H438.031C438.052 136.021 438.294 136.695 438.758 137.211C439.227 137.721 439.82 137.977 440.539 137.977C441.049 137.977 441.482 137.872 441.836 137.664C442.19 137.456 442.5 137.18 442.766 136.836L443.648 137.523C442.94 138.612 441.878 139.156 440.461 139.156ZM440.281 131.578C439.698 131.578 439.208 131.792 438.812 132.219C438.417 132.641 438.172 133.234 438.078 134H442.312V133.891C442.271 133.156 442.073 132.589 441.719 132.188C441.365 131.781 440.885 131.578 440.281 131.578ZM448.945 139.156C447.799 139.156 446.867 138.781 446.148 138.031C445.43 137.276 445.07 136.268 445.07 135.008V134.742C445.07 133.904 445.229 133.156 445.547 132.5C445.87 131.839 446.318 131.323 446.891 130.953C447.469 130.578 448.094 130.391 448.766 130.391C449.865 130.391 450.719 130.753 451.328 131.477C451.938 132.201 452.242 133.237 452.242 134.586V135.188H446.516C446.536 136.021 446.779 136.695 447.242 137.211C447.711 137.721 448.305 137.977 449.023 137.977C449.534 137.977 449.966 137.872 450.32 137.664C450.674 137.456 450.984 137.18 451.25 136.836L452.133 137.523C451.424 138.612 450.362 139.156 448.945 139.156ZM448.766 131.578C448.182 131.578 447.693 131.792 447.297 132.219C446.901 132.641 446.656 133.234 446.562 134H450.797V133.891C450.755 133.156 450.557 132.589 450.203 132.188C449.849 131.781 449.37 131.578 448.766 131.578ZM455.492 139H454.047V127H455.492V139ZM41.8047 169V161.664H40.4688V160.547H41.8047V159.68C41.8047 158.773 42.0469 158.073 42.5312 157.578C43.0156 157.083 43.7005 156.836 44.5859 156.836C44.9193 156.836 45.25 156.88 45.5781 156.969L45.5 158.141C45.2552 158.094 44.9948 158.07 44.7188 158.07C44.25 158.07 43.888 158.208 43.6328 158.484C43.3776 158.755 43.25 159.146 43.25 159.656V160.547H45.0547V161.664H43.25V169H41.8047ZM46.2734 164.695C46.2734 163.867 46.4349 163.122 46.7578 162.461C47.0859 161.799 47.5391 161.289 48.1172 160.93C48.7005 160.57 49.3646 160.391 50.1094 160.391C51.2604 160.391 52.1901 160.789 52.8984 161.586C53.612 162.383 53.9688 163.443 53.9688 164.766V164.867C53.9688 165.69 53.8099 166.43 53.4922 167.086C53.1797 167.737 52.7292 168.245 52.1406 168.609C51.5573 168.974 50.8854 169.156 50.125 169.156C48.9792 169.156 48.0495 168.758 47.3359 167.961C46.6276 167.164 46.2734 166.109 46.2734 164.797V164.695ZM47.7266 164.867C47.7266 165.805 47.9427 166.557 48.375 167.125C48.8125 167.693 49.3958 167.977 50.125 167.977C50.8594 167.977 51.4427 167.69 51.875 167.117C52.3073 166.539 52.5234 165.732 52.5234 164.695C52.5234 163.768 52.3021 163.018 51.8594 162.445C51.4219 161.867 50.8385 161.578 50.1094 161.578C49.3958 161.578 48.8203 161.862 48.3828 162.43C47.9453 162.997 47.7266 163.81 47.7266 164.867ZM59.8672 161.844C59.6484 161.807 59.4115 161.789 59.1562 161.789C58.2083 161.789 57.5651 162.193 57.2266 163V169H55.7812V160.547H57.1875L57.2109 161.523C57.6849 160.768 58.3568 160.391 59.2266 160.391C59.5078 160.391 59.7214 160.427 59.8672 160.5V161.844ZM67.1328 158.5V160.547H68.7109V161.664H67.1328V166.906C67.1328 167.245 67.2031 167.5 67.3438 167.672C67.4844 167.839 67.724 167.922 68.0625 167.922C68.2292 167.922 68.4583 167.891 68.75 167.828V169C68.3698 169.104 68 169.156 67.6406 169.156C66.9948 169.156 66.5078 168.961 66.1797 168.57C65.8516 168.18 65.6875 167.625 65.6875 166.906V161.664H64.1484V160.547H65.6875V158.5H67.1328ZM71.8516 161.57C72.4922 160.784 73.3255 160.391 74.3516 160.391C76.138 160.391 77.0391 161.398 77.0547 163.414V169H75.6094V163.406C75.6042 162.797 75.4635 162.346 75.1875 162.055C74.9167 161.763 74.4922 161.617 73.9141 161.617C73.4453 161.617 73.0339 161.742 72.6797 161.992C72.3255 162.242 72.0495 162.57 71.8516 162.977V169H70.4062V157H71.8516V161.57ZM82.7266 169.156C81.5807 169.156 80.6484 168.781 79.9297 168.031C79.2109 167.276 78.8516 166.268 78.8516 165.008V164.742C78.8516 163.904 79.0104 163.156 79.3281 162.5C79.651 161.839 80.099 161.323 80.6719 160.953C81.25 160.578 81.875 160.391 82.5469 160.391C83.6458 160.391 84.5 160.753 85.1094 161.477C85.7188 162.201 86.0234 163.237 86.0234 164.586V165.188H80.2969C80.3177 166.021 80.5599 166.695 81.0234 167.211C81.4922 167.721 82.0859 167.977 82.8047 167.977C83.3151 167.977 83.7474 167.872 84.1016 167.664C84.4557 167.456 84.7656 167.18 85.0312 166.836L85.9141 167.523C85.2057 168.612 84.1432 169.156 82.7266 169.156ZM82.5469 161.578C81.9635 161.578 81.474 161.792 81.0781 162.219C80.6823 162.641 80.4375 163.234 80.3438 164H84.5781V163.891C84.5365 163.156 84.3385 162.589 83.9844 162.188C83.6302 161.781 83.151 161.578 82.5469 161.578ZM96.8906 168.164C96.3281 168.826 95.5026 169.156 94.4141 169.156C93.513 169.156 92.8255 168.896 92.3516 168.375C91.8828 167.849 91.6458 167.073 91.6406 166.047V160.547H93.0859V166.008C93.0859 167.289 93.6068 167.93 94.6484 167.93C95.7526 167.93 96.487 167.518 96.8516 166.695V160.547H98.2969V169H96.9219L96.8906 168.164ZM105.422 166.758C105.422 166.367 105.273 166.065 104.977 165.852C104.685 165.633 104.172 165.445 103.438 165.289C102.708 165.133 102.128 164.945 101.695 164.727C101.268 164.508 100.951 164.247 100.742 163.945C100.539 163.643 100.438 163.284 100.438 162.867C100.438 162.174 100.729 161.589 101.312 161.109C101.901 160.63 102.651 160.391 103.562 160.391C104.521 160.391 105.297 160.638 105.891 161.133C106.49 161.628 106.789 162.26 106.789 163.031H105.336C105.336 162.635 105.167 162.294 104.828 162.008C104.495 161.721 104.073 161.578 103.562 161.578C103.036 161.578 102.625 161.693 102.328 161.922C102.031 162.151 101.883 162.451 101.883 162.82C101.883 163.169 102.021 163.432 102.297 163.609C102.573 163.786 103.07 163.956 103.789 164.117C104.513 164.279 105.099 164.471 105.547 164.695C105.995 164.919 106.326 165.19 106.539 165.508C106.758 165.82 106.867 166.203 106.867 166.656C106.867 167.411 106.565 168.018 105.961 168.477C105.357 168.93 104.573 169.156 103.609 169.156C102.932 169.156 102.333 169.036 101.812 168.797C101.292 168.557 100.883 168.224 100.586 167.797C100.294 167.365 100.148 166.898 100.148 166.398H101.594C101.62 166.883 101.812 167.268 102.172 167.555C102.536 167.836 103.016 167.977 103.609 167.977C104.156 167.977 104.594 167.867 104.922 167.648C105.255 167.424 105.422 167.128 105.422 166.758ZM112.258 169.156C111.112 169.156 110.18 168.781 109.461 168.031C108.742 167.276 108.383 166.268 108.383 165.008V164.742C108.383 163.904 108.542 163.156 108.859 162.5C109.182 161.839 109.63 161.323 110.203 160.953C110.781 160.578 111.406 160.391 112.078 160.391C113.177 160.391 114.031 160.753 114.641 161.477C115.25 162.201 115.555 163.237 115.555 164.586V165.188H109.828C109.849 166.021 110.091 166.695 110.555 167.211C111.023 167.721 111.617 167.977 112.336 167.977C112.846 167.977 113.279 167.872 113.633 167.664C113.987 167.456 114.297 167.18 114.562 166.836L115.445 167.523C114.737 168.612 113.674 169.156 112.258 169.156ZM112.078 161.578C111.495 161.578 111.005 161.792 110.609 162.219C110.214 162.641 109.969 163.234 109.875 164H114.109V163.891C114.068 163.156 113.87 162.589 113.516 162.188C113.161 161.781 112.682 161.578 112.078 161.578ZM121.32 161.844C121.102 161.807 120.865 161.789 120.609 161.789C119.661 161.789 119.018 162.193 118.68 163V169H117.234V160.547H118.641L118.664 161.523C119.138 160.768 119.81 160.391 120.68 160.391C120.961 160.391 121.174 160.427 121.32 160.5V161.844ZM130.133 169.156C128.987 169.156 128.055 168.781 127.336 168.031C126.617 167.276 126.258 166.268 126.258 165.008V164.742C126.258 163.904 126.417 163.156 126.734 162.5C127.057 161.839 127.505 161.323 128.078 160.953C128.656 160.578 129.281 160.391 129.953 160.391C131.052 160.391 131.906 160.753 132.516 161.477C133.125 162.201 133.43 163.237 133.43 164.586V165.188H127.703C127.724 166.021 127.966 166.695 128.43 167.211C128.898 167.721 129.492 167.977 130.211 167.977C130.721 167.977 131.154 167.872 131.508 167.664C131.862 167.456 132.172 167.18 132.438 166.836L133.32 167.523C132.612 168.612 131.549 169.156 130.133 169.156ZM129.953 161.578C129.37 161.578 128.88 161.792 128.484 162.219C128.089 162.641 127.844 163.234 127.75 164H131.984V163.891C131.943 163.156 131.745 162.589 131.391 162.188C131.036 161.781 130.557 161.578 129.953 161.578ZM137.945 163.633L139.82 160.547H141.508L138.742 164.727L141.594 169H139.922L137.969 165.836L136.016 169H134.336L137.188 164.727L134.422 160.547H136.094L137.945 163.633ZM150.188 164.867C150.188 166.154 149.893 167.19 149.305 167.977C148.716 168.763 147.919 169.156 146.914 169.156C145.888 169.156 145.081 168.831 144.492 168.18V172.25H143.047V160.547H144.367L144.438 161.484C145.026 160.755 145.844 160.391 146.891 160.391C147.906 160.391 148.708 160.773 149.297 161.539C149.891 162.305 150.188 163.37 150.188 164.734V164.867ZM148.742 164.703C148.742 163.75 148.539 162.997 148.133 162.445C147.727 161.893 147.169 161.617 146.461 161.617C145.586 161.617 144.93 162.005 144.492 162.781V166.82C144.924 167.591 145.586 167.977 146.477 167.977C147.169 167.977 147.719 167.703 148.125 167.156C148.536 166.604 148.742 165.786 148.742 164.703ZM155.539 169.156C154.393 169.156 153.461 168.781 152.742 168.031C152.023 167.276 151.664 166.268 151.664 165.008V164.742C151.664 163.904 151.823 163.156 152.141 162.5C152.464 161.839 152.911 161.323 153.484 160.953C154.062 160.578 154.688 160.391 155.359 160.391C156.458 160.391 157.312 160.753 157.922 161.477C158.531 162.201 158.836 163.237 158.836 164.586V165.188H153.109C153.13 166.021 153.372 166.695 153.836 167.211C154.305 167.721 154.898 167.977 155.617 167.977C156.128 167.977 156.56 167.872 156.914 167.664C157.268 167.456 157.578 167.18 157.844 166.836L158.727 167.523C158.018 168.612 156.956 169.156 155.539 169.156ZM155.359 161.578C154.776 161.578 154.286 161.792 153.891 162.219C153.495 162.641 153.25 163.234 153.156 164H157.391V163.891C157.349 163.156 157.151 162.589 156.797 162.188C156.443 161.781 155.964 161.578 155.359 161.578ZM164.602 161.844C164.383 161.807 164.146 161.789 163.891 161.789C162.943 161.789 162.299 162.193 161.961 163V169H160.516V160.547H161.922L161.945 161.523C162.419 160.768 163.091 160.391 163.961 160.391C164.242 160.391 164.456 160.427 164.602 160.5V161.844ZM167.508 169H166.062V160.547H167.508V169ZM165.945 158.305C165.945 158.07 166.016 157.872 166.156 157.711C166.302 157.549 166.516 157.469 166.797 157.469C167.078 157.469 167.292 157.549 167.438 157.711C167.583 157.872 167.656 158.07 167.656 158.305C167.656 158.539 167.583 158.734 167.438 158.891C167.292 159.047 167.078 159.125 166.797 159.125C166.516 159.125 166.302 159.047 166.156 158.891C166.016 158.734 165.945 158.539 165.945 158.305ZM173.336 169.156C172.19 169.156 171.258 168.781 170.539 168.031C169.82 167.276 169.461 166.268 169.461 165.008V164.742C169.461 163.904 169.62 163.156 169.938 162.5C170.26 161.839 170.708 161.323 171.281 160.953C171.859 160.578 172.484 160.391 173.156 160.391C174.255 160.391 175.109 160.753 175.719 161.477C176.328 162.201 176.633 163.237 176.633 164.586V165.188H170.906C170.927 166.021 171.169 166.695 171.633 167.211C172.102 167.721 172.695 167.977 173.414 167.977C173.924 167.977 174.357 167.872 174.711 167.664C175.065 167.456 175.375 167.18 175.641 166.836L176.523 167.523C175.815 168.612 174.753 169.156 173.336 169.156ZM173.156 161.578C172.573 161.578 172.083 161.792 171.688 162.219C171.292 162.641 171.047 163.234 170.953 164H175.188V163.891C175.146 163.156 174.948 162.589 174.594 162.188C174.24 161.781 173.76 161.578 173.156 161.578ZM179.68 160.547L179.727 161.609C180.372 160.797 181.216 160.391 182.258 160.391C184.044 160.391 184.945 161.398 184.961 163.414V169H183.516V163.406C183.51 162.797 183.37 162.346 183.094 162.055C182.823 161.763 182.398 161.617 181.82 161.617C181.352 161.617 180.94 161.742 180.586 161.992C180.232 162.242 179.956 162.57 179.758 162.977V169H178.312V160.547H179.68ZM190.531 167.977C191.047 167.977 191.497 167.82 191.883 167.508C192.268 167.195 192.482 166.805 192.523 166.336H193.891C193.865 166.82 193.698 167.281 193.391 167.719C193.083 168.156 192.672 168.505 192.156 168.766C191.646 169.026 191.104 169.156 190.531 169.156C189.38 169.156 188.464 168.773 187.781 168.008C187.104 167.237 186.766 166.185 186.766 164.852V164.609C186.766 163.786 186.917 163.055 187.219 162.414C187.521 161.773 187.953 161.276 188.516 160.922C189.083 160.568 189.753 160.391 190.523 160.391C191.471 160.391 192.258 160.674 192.883 161.242C193.513 161.81 193.849 162.547 193.891 163.453H192.523C192.482 162.906 192.273 162.458 191.898 162.109C191.529 161.755 191.07 161.578 190.523 161.578C189.789 161.578 189.219 161.844 188.812 162.375C188.411 162.901 188.211 163.664 188.211 164.664V164.938C188.211 165.911 188.411 166.661 188.812 167.188C189.214 167.714 189.786 167.977 190.531 167.977ZM199.023 169.156C197.878 169.156 196.945 168.781 196.227 168.031C195.508 167.276 195.148 166.268 195.148 165.008V164.742C195.148 163.904 195.307 163.156 195.625 162.5C195.948 161.839 196.396 161.323 196.969 160.953C197.547 160.578 198.172 160.391 198.844 160.391C199.943 160.391 200.797 160.753 201.406 161.477C202.016 162.201 202.32 163.237 202.32 164.586V165.188H196.594C196.615 166.021 196.857 166.695 197.32 167.211C197.789 167.721 198.383 167.977 199.102 167.977C199.612 167.977 200.044 167.872 200.398 167.664C200.753 167.456 201.062 167.18 201.328 166.836L202.211 167.523C201.503 168.612 200.44 169.156 199.023 169.156ZM198.844 161.578C198.26 161.578 197.771 161.792 197.375 162.219C196.979 162.641 196.734 163.234 196.641 164H200.875V163.891C200.833 163.156 200.635 162.589 200.281 162.188C199.927 161.781 199.448 161.578 198.844 161.578ZM204.031 168.242C204.031 167.992 204.104 167.784 204.25 167.617C204.401 167.451 204.625 167.367 204.922 167.367C205.219 167.367 205.443 167.451 205.594 167.617C205.75 167.784 205.828 167.992 205.828 168.242C205.828 168.482 205.75 168.682 205.594 168.844C205.443 169.005 205.219 169.086 204.922 169.086C204.625 169.086 204.401 169.005 204.25 168.844C204.104 168.682 204.031 168.482 204.031 168.242Z" fill="#737373"/>
</svg>
