<svg width="560" height="220" viewBox="0 0 560 220" fill="none" xmlns="http://www.w3.org/2000/svg">
<path d="M0.5 0.5H559.5V219.5H0.5V0.5Z" stroke="#E8E8E8"/>
<path d="M43.6182 50.4111H44.9077C45.7179 50.3988 46.355 50.1854 46.8188 49.771C47.2827 49.3566 47.5146 48.7969 47.5146 48.0918C47.5146 46.5085 46.7261 45.7168 45.1489 45.7168C44.4067 45.7168 43.813 45.9302 43.3677 46.3569C42.9285 46.7775 42.709 47.3372 42.709 48.0361H40.9927C40.9927 46.9661 41.3823 46.0786 42.1616 45.3735C42.9471 44.6623 43.9429 44.3066 45.1489 44.3066C46.423 44.3066 47.4219 44.6437 48.1455 45.3179C48.8691 45.992 49.231 46.929 49.231 48.1289C49.231 48.7165 49.0392 49.2855 48.6558 49.8359C48.2785 50.3864 47.762 50.7977 47.1064 51.0698C47.8486 51.3049 48.4207 51.6945 48.8228 52.2388C49.231 52.783 49.4351 53.4479 49.4351 54.2334C49.4351 55.4456 49.0392 56.4074 48.2476 57.1187C47.4559 57.8299 46.4261 58.1855 45.1582 58.1855C43.8903 58.1855 42.8574 57.8423 42.0596 57.1558C41.2679 56.4692 40.8721 55.5632 40.8721 54.4375H42.5977C42.5977 55.1488 42.8296 55.7178 43.2935 56.1445C43.7573 56.5713 44.3789 56.7847 45.1582 56.7847C45.987 56.7847 46.6209 56.5682 47.0601 56.1353C47.4992 55.7023 47.7188 55.0807 47.7188 54.2705C47.7188 53.485 47.4775 52.882 46.9951 52.4614C46.5127 52.0409 45.8169 51.8244 44.9077 51.812H43.6182V50.4111ZM52.0049 57.1001C52.0049 56.8032 52.0915 56.5558 52.2646 56.3579C52.444 56.16 52.71 56.061 53.0625 56.061C53.415 56.061 53.681 56.16 53.8604 56.3579C54.0459 56.5558 54.1387 56.8032 54.1387 57.1001C54.1387 57.3846 54.0459 57.6227 53.8604 57.8145C53.681 58.0062 53.415 58.1021 53.0625 58.1021C52.71 58.1021 52.444 58.0062 52.2646 57.8145C52.0915 57.6227 52.0049 57.3846 52.0049 57.1001ZM71.4688 44.4922V53.6768C71.4626 54.9508 71.0605 55.993 70.2627 56.8032C69.471 57.6134 68.3949 58.068 67.0342 58.167L66.561 58.1855C65.0828 58.1855 63.9046 57.7866 63.0264 56.9888C62.1481 56.1909 61.7028 55.0931 61.6904 53.6953V44.4922H63.4531V53.6396C63.4531 54.6169 63.7222 55.3776 64.2603 55.9219C64.7983 56.46 65.5653 56.729 66.561 56.729C67.5692 56.729 68.3392 56.46 68.8711 55.9219C69.4092 55.3838 69.6782 54.6261 69.6782 53.6489V44.4922H71.4688ZM76.1909 58H74.4097V44.4922H76.1909V58ZM84.1694 58V44.4922H87.9824C89.1576 44.4922 90.1966 44.752 91.0996 45.2715C92.0026 45.791 92.6984 46.5301 93.187 47.4888C93.6818 48.4474 93.9323 49.5483 93.9385 50.7915V51.6543C93.9385 52.9284 93.6911 54.0448 93.1963 55.0034C92.7077 55.9621 92.0057 56.6981 91.0903 57.2114C90.1812 57.7248 89.1204 57.9876 87.9082 58H84.1694ZM85.9507 45.958V56.5435H87.8247C89.1978 56.5435 90.2646 56.1167 91.0254 55.2632C91.7923 54.4097 92.1758 53.1943 92.1758 51.6172V50.8286C92.1758 49.2948 91.814 48.1042 91.0903 47.2568C90.3729 46.4033 89.3524 45.9704 88.0288 45.958H85.9507ZM100.535 58.1855C99.174 58.1855 98.0669 57.7402 97.2134 56.8496C96.3599 55.9528 95.9331 54.756 95.9331 53.2593V52.9438C95.9331 51.9481 96.1217 51.0605 96.499 50.2812C96.8825 49.4958 97.4144 48.8835 98.0947 48.4443C98.7812 47.999 99.5234 47.7764 100.321 47.7764C101.626 47.7764 102.641 48.2062 103.364 49.0659C104.088 49.9256 104.45 51.1564 104.45 52.7583V53.4727H97.6494C97.6742 54.4622 97.9618 55.2632 98.5122 55.8755C99.0688 56.4816 99.7739 56.7847 100.627 56.7847C101.234 56.7847 101.747 56.661 102.167 56.4136C102.588 56.1662 102.956 55.8384 103.271 55.4302L104.32 56.2466C103.479 57.5392 102.217 58.1855 100.535 58.1855ZM100.321 49.1865C99.6286 49.1865 99.0472 49.4401 98.5771 49.9473C98.1071 50.4482 97.8164 51.1533 97.7051 52.0625H102.733V51.9326C102.684 51.0605 102.449 50.3864 102.028 49.9102C101.608 49.4277 101.039 49.1865 100.321 49.1865ZM112.289 55.3374C112.289 54.8735 112.113 54.5148 111.76 54.2612C111.414 54.0015 110.805 53.7788 109.933 53.5933C109.067 53.4077 108.377 53.1851 107.864 52.9253C107.357 52.6655 106.979 52.3563 106.732 51.9976C106.491 51.6388 106.37 51.2121 106.37 50.7173C106.37 49.8947 106.716 49.1989 107.409 48.6299C108.108 48.0609 108.999 47.7764 110.081 47.7764C111.219 47.7764 112.141 48.0701 112.846 48.6577C113.557 49.2453 113.913 49.9967 113.913 50.9121H112.187C112.187 50.4421 111.986 50.0369 111.584 49.6968C111.188 49.3566 110.687 49.1865 110.081 49.1865C109.456 49.1865 108.968 49.3226 108.615 49.5947C108.263 49.8669 108.086 50.2225 108.086 50.6616C108.086 51.076 108.25 51.3883 108.578 51.5986C108.906 51.8089 109.497 52.0099 110.35 52.2017C111.21 52.3934 111.906 52.6222 112.438 52.8882C112.969 53.1541 113.362 53.4757 113.616 53.853C113.875 54.2241 114.005 54.6787 114.005 55.2168C114.005 56.1136 113.647 56.8341 112.929 57.3784C112.212 57.9165 111.281 58.1855 110.137 58.1855C109.333 58.1855 108.621 58.0433 108.003 57.7588C107.384 57.4743 106.899 57.0785 106.546 56.5713C106.2 56.0579 106.027 55.5044 106.027 54.9106H107.743C107.774 55.4858 108.003 55.9435 108.43 56.2837C108.863 56.6177 109.432 56.7847 110.137 56.7847C110.786 56.7847 111.306 56.6548 111.695 56.395C112.091 56.1291 112.289 55.7765 112.289 55.3374ZM118.106 58H116.39V47.9619H118.106V58ZM116.25 45.2993C116.25 45.021 116.334 44.786 116.501 44.5942C116.674 44.4025 116.928 44.3066 117.262 44.3066C117.596 44.3066 117.849 44.4025 118.022 44.5942C118.196 44.786 118.282 45.021 118.282 45.2993C118.282 45.5776 118.196 45.8096 118.022 45.9951C117.849 46.1807 117.596 46.2734 117.262 46.2734C116.928 46.2734 116.674 46.1807 116.501 45.9951C116.334 45.8096 116.25 45.5776 116.25 45.2993ZM120.453 52.8975C120.453 51.3327 120.815 50.0895 121.539 49.168C122.262 48.2402 123.221 47.7764 124.415 47.7764C125.639 47.7764 126.595 48.2093 127.281 49.0752L127.365 47.9619H128.933V57.7588C128.933 59.0576 128.546 60.0812 127.773 60.8296C127.006 61.578 125.973 61.9521 124.674 61.9521C123.951 61.9521 123.243 61.7975 122.55 61.4883C121.857 61.179 121.328 60.7554 120.963 60.2173L121.854 59.1875C122.59 60.0967 123.49 60.5513 124.554 60.5513C125.389 60.5513 126.038 60.3162 126.502 59.8462C126.972 59.3761 127.207 58.7144 127.207 57.8608V56.998C126.521 57.7897 125.583 58.1855 124.396 58.1855C123.221 58.1855 122.268 57.7124 121.539 56.7661C120.815 55.8198 120.453 54.5303 120.453 52.8975ZM122.179 53.0923C122.179 54.2241 122.411 55.1147 122.875 55.7642C123.338 56.4074 123.988 56.729 124.823 56.729C125.905 56.729 126.7 56.2373 127.207 55.2539V50.6709C126.681 49.7122 125.893 49.2329 124.841 49.2329C124.006 49.2329 123.354 49.5576 122.884 50.207C122.414 50.8564 122.179 51.8182 122.179 53.0923ZM133.154 47.9619L133.209 49.2236C133.976 48.2588 134.978 47.7764 136.215 47.7764C138.337 47.7764 139.407 48.9731 139.425 51.3667V58H137.709V51.3574C137.703 50.6338 137.536 50.0988 137.208 49.7524C136.886 49.4061 136.382 49.2329 135.696 49.2329C135.139 49.2329 134.651 49.3813 134.23 49.6782C133.809 49.9751 133.482 50.3647 133.247 50.8472V58H131.53V47.9619H133.154Z" fill="black"/>
<path d="M43.7734 105.414L43.9922 106.914L44.3125 105.562L46.5625 97.625H47.8281L50.0234 105.562L50.3359 106.938L50.5781 105.406L52.3438 97.625H53.8516L51.0938 109H49.7266L47.3828 100.711L47.2031 99.8438L47.0234 100.711L44.5938 109H43.2266L40.4766 97.625H41.9766L43.7734 105.414ZM58.5547 109.156C57.4089 109.156 56.4766 108.781 55.7578 108.031C55.0391 107.276 54.6797 106.268 54.6797 105.008V104.742C54.6797 103.904 54.8385 103.156 55.1562 102.5C55.4792 101.839 55.9271 101.323 56.5 100.953C57.0781 100.578 57.7031 100.391 58.375 100.391C59.474 100.391 60.3281 100.753 60.9375 101.477C61.5469 102.201 61.8516 103.237 61.8516 104.586V105.188H56.125C56.1458 106.021 56.388 106.695 56.8516 107.211C57.3203 107.721 57.9141 107.977 58.6328 107.977C59.1432 107.977 59.5755 107.872 59.9297 107.664C60.2839 107.456 60.5938 107.18 60.8594 106.836L61.7422 107.523C61.0339 108.612 59.9714 109.156 58.5547 109.156ZM58.375 101.578C57.7917 101.578 57.3021 101.792 56.9062 102.219C56.5104 102.641 56.2656 103.234 56.1719 104H60.4062V103.891C60.3646 103.156 60.1667 102.589 59.8125 102.188C59.4583 101.781 58.9792 101.578 58.375 101.578ZM63.0078 100.828L62.1875 100.266C62.6719 99.5885 62.9219 98.875 62.9375 98.125V97H64.3672V98.0156C64.362 98.5365 64.2318 99.0573 63.9766 99.5781C63.7266 100.094 63.4036 100.51 63.0078 100.828ZM70.1953 101.844C69.9766 101.807 69.7396 101.789 69.4844 101.789C68.5365 101.789 67.8932 102.193 67.5547 103V109H66.1094V100.547H67.5156L67.5391 101.523C68.013 100.768 68.6849 100.391 69.5547 100.391C69.8359 100.391 70.0495 100.427 70.1953 100.5V101.844ZM74.8828 109.156C73.737 109.156 72.8047 108.781 72.0859 108.031C71.3672 107.276 71.0078 106.268 71.0078 105.008V104.742C71.0078 103.904 71.1667 103.156 71.4844 102.5C71.8073 101.839 72.2552 101.323 72.8281 100.953C73.4062 100.578 74.0312 100.391 74.7031 100.391C75.8021 100.391 76.6562 100.753 77.2656 101.477C77.875 102.201 78.1797 103.237 78.1797 104.586V105.188H72.4531C72.474 106.021 72.7161 106.695 73.1797 107.211C73.6484 107.721 74.2422 107.977 74.9609 107.977C75.4714 107.977 75.9036 107.872 76.2578 107.664C76.612 107.456 76.9219 107.18 77.1875 106.836L78.0703 107.523C77.362 108.612 76.2995 109.156 74.8828 109.156ZM74.7031 101.578C74.1198 101.578 73.6302 101.792 73.2344 102.219C72.8385 102.641 72.5938 103.234 72.5 104H76.7344V103.891C76.6927 103.156 76.4948 102.589 76.1406 102.188C75.7865 101.781 75.3073 101.578 74.7031 101.578ZM89.0469 109C88.9635 108.833 88.8958 108.536 88.8438 108.109C88.1719 108.807 87.3698 109.156 86.4375 109.156C85.6042 109.156 84.9193 108.922 84.3828 108.453C83.8516 107.979 83.5859 107.38 83.5859 106.656C83.5859 105.776 83.9193 105.094 84.5859 104.609C85.2578 104.12 86.2005 103.875 87.4141 103.875H88.8203V103.211C88.8203 102.706 88.6693 102.305 88.3672 102.008C88.0651 101.706 87.6198 101.555 87.0312 101.555C86.5156 101.555 86.0833 101.685 85.7344 101.945C85.3854 102.206 85.2109 102.521 85.2109 102.891H83.7578C83.7578 102.469 83.9062 102.062 84.2031 101.672C84.5052 101.276 84.9115 100.964 85.4219 100.734C85.9375 100.505 86.5026 100.391 87.1172 100.391C88.0911 100.391 88.8542 100.635 89.4062 101.125C89.9583 101.609 90.2448 102.279 90.2656 103.133V107.023C90.2656 107.799 90.3646 108.417 90.5625 108.875V109H89.0469ZM86.6484 107.898C87.1016 107.898 87.5312 107.781 87.9375 107.547C88.3438 107.312 88.638 107.008 88.8203 106.633V104.898H87.6875C85.9167 104.898 85.0312 105.417 85.0312 106.453C85.0312 106.906 85.1823 107.26 85.4844 107.516C85.7865 107.771 86.1745 107.898 86.6484 107.898ZM99.6875 104.867C99.6875 106.159 99.3906 107.198 98.7969 107.984C98.2031 108.766 97.4062 109.156 96.4062 109.156C95.3385 109.156 94.513 108.779 93.9297 108.023L93.8594 109H92.5312V97H93.9766V101.477C94.5599 100.753 95.3646 100.391 96.3906 100.391C97.4167 100.391 98.2214 100.779 98.8047 101.555C99.3932 102.331 99.6875 103.393 99.6875 104.742V104.867ZM98.2422 104.703C98.2422 103.719 98.0521 102.958 97.6719 102.422C97.2917 101.885 96.7448 101.617 96.0312 101.617C95.0781 101.617 94.3932 102.06 93.9766 102.945V106.602C94.4193 107.487 95.1094 107.93 96.0469 107.93C96.7396 107.93 97.2786 107.661 97.6641 107.125C98.0495 106.589 98.2422 105.781 98.2422 104.703ZM103.086 109H101.641V97H103.086V109ZM108.914 109.156C107.768 109.156 106.836 108.781 106.117 108.031C105.398 107.276 105.039 106.268 105.039 105.008V104.742C105.039 103.904 105.198 103.156 105.516 102.5C105.839 101.839 106.286 101.323 106.859 100.953C107.438 100.578 108.062 100.391 108.734 100.391C109.833 100.391 110.688 100.753 111.297 101.477C111.906 102.201 112.211 103.237 112.211 104.586V105.188H106.484C106.505 106.021 106.747 106.695 107.211 107.211C107.68 107.721 108.273 107.977 108.992 107.977C109.503 107.977 109.935 107.872 110.289 107.664C110.643 107.456 110.953 107.18 111.219 106.836L112.102 107.523C111.393 108.612 110.331 109.156 108.914 109.156ZM108.734 101.578C108.151 101.578 107.661 101.792 107.266 102.219C106.87 102.641 106.625 103.234 106.531 104H110.766V103.891C110.724 103.156 110.526 102.589 110.172 102.188C109.818 101.781 109.339 101.578 108.734 101.578ZM119.82 98.5V100.547H121.398V101.664H119.82V106.906C119.82 107.245 119.891 107.5 120.031 107.672C120.172 107.839 120.411 107.922 120.75 107.922C120.917 107.922 121.146 107.891 121.438 107.828V109C121.057 109.104 120.688 109.156 120.328 109.156C119.682 109.156 119.195 108.961 118.867 108.57C118.539 108.18 118.375 107.625 118.375 106.906V101.664H116.836V100.547H118.375V98.5H119.82ZM122.555 104.695C122.555 103.867 122.716 103.122 123.039 102.461C123.367 101.799 123.82 101.289 124.398 100.93C124.982 100.57 125.646 100.391 126.391 100.391C127.542 100.391 128.471 100.789 129.18 101.586C129.893 102.383 130.25 103.443 130.25 104.766V104.867C130.25 105.69 130.091 106.43 129.773 107.086C129.461 107.737 129.01 108.245 128.422 108.609C127.839 108.974 127.167 109.156 126.406 109.156C125.26 109.156 124.331 108.758 123.617 107.961C122.909 107.164 122.555 106.109 122.555 104.797V104.695ZM124.008 104.867C124.008 105.805 124.224 106.557 124.656 107.125C125.094 107.693 125.677 107.977 126.406 107.977C127.141 107.977 127.724 107.69 128.156 107.117C128.589 106.539 128.805 105.732 128.805 104.695C128.805 103.768 128.583 103.018 128.141 102.445C127.703 101.867 127.12 101.578 126.391 101.578C125.677 101.578 125.102 101.862 124.664 102.43C124.227 102.997 124.008 103.81 124.008 104.867ZM139.422 107.977C139.938 107.977 140.388 107.82 140.773 107.508C141.159 107.195 141.372 106.805 141.414 106.336H142.781C142.755 106.82 142.589 107.281 142.281 107.719C141.974 108.156 141.562 108.505 141.047 108.766C140.536 109.026 139.995 109.156 139.422 109.156C138.271 109.156 137.354 108.773 136.672 108.008C135.995 107.237 135.656 106.185 135.656 104.852V104.609C135.656 103.786 135.807 103.055 136.109 102.414C136.411 101.773 136.844 101.276 137.406 100.922C137.974 100.568 138.643 100.391 139.414 100.391C140.362 100.391 141.148 100.674 141.773 101.242C142.404 101.81 142.74 102.547 142.781 103.453H141.414C141.372 102.906 141.164 102.458 140.789 102.109C140.419 101.755 139.961 101.578 139.414 101.578C138.68 101.578 138.109 101.844 137.703 102.375C137.302 102.901 137.102 103.664 137.102 104.664V104.938C137.102 105.911 137.302 106.661 137.703 107.188C138.104 107.714 138.677 107.977 139.422 107.977ZM148.492 101.844C148.273 101.807 148.036 101.789 147.781 101.789C146.833 101.789 146.19 102.193 145.852 103V109H144.406V100.547H145.812L145.836 101.523C146.31 100.768 146.982 100.391 147.852 100.391C148.133 100.391 148.346 100.427 148.492 100.5V101.844ZM153.18 109.156C152.034 109.156 151.102 108.781 150.383 108.031C149.664 107.276 149.305 106.268 149.305 105.008V104.742C149.305 103.904 149.464 103.156 149.781 102.5C150.104 101.839 150.552 101.323 151.125 100.953C151.703 100.578 152.328 100.391 153 100.391C154.099 100.391 154.953 100.753 155.562 101.477C156.172 102.201 156.477 103.237 156.477 104.586V105.188H150.75C150.771 106.021 151.013 106.695 151.477 107.211C151.945 107.721 152.539 107.977 153.258 107.977C153.768 107.977 154.201 107.872 154.555 107.664C154.909 107.456 155.219 107.18 155.484 106.836L156.367 107.523C155.659 108.612 154.596 109.156 153.18 109.156ZM153 101.578C152.417 101.578 151.927 101.792 151.531 102.219C151.135 102.641 150.891 103.234 150.797 104H155.031V103.891C154.99 103.156 154.792 102.589 154.438 102.188C154.083 101.781 153.604 101.578 153 101.578ZM163.375 109C163.292 108.833 163.224 108.536 163.172 108.109C162.5 108.807 161.698 109.156 160.766 109.156C159.932 109.156 159.247 108.922 158.711 108.453C158.18 107.979 157.914 107.38 157.914 106.656C157.914 105.776 158.247 105.094 158.914 104.609C159.586 104.12 160.529 103.875 161.742 103.875H163.148V103.211C163.148 102.706 162.997 102.305 162.695 102.008C162.393 101.706 161.948 101.555 161.359 101.555C160.844 101.555 160.411 101.685 160.062 101.945C159.714 102.206 159.539 102.521 159.539 102.891H158.086C158.086 102.469 158.234 102.062 158.531 101.672C158.833 101.276 159.24 100.964 159.75 100.734C160.266 100.505 160.831 100.391 161.445 100.391C162.419 100.391 163.182 100.635 163.734 101.125C164.286 101.609 164.573 102.279 164.594 103.133V107.023C164.594 107.799 164.693 108.417 164.891 108.875V109H163.375ZM160.977 107.898C161.43 107.898 161.859 107.781 162.266 107.547C162.672 107.312 162.966 107.008 163.148 106.633V104.898H162.016C160.245 104.898 159.359 105.417 159.359 106.453C159.359 106.906 159.51 107.26 159.812 107.516C160.115 107.771 160.503 107.898 160.977 107.898ZM168.82 98.5V100.547H170.398V101.664H168.82V106.906C168.82 107.245 168.891 107.5 169.031 107.672C169.172 107.839 169.411 107.922 169.75 107.922C169.917 107.922 170.146 107.891 170.438 107.828V109C170.057 109.104 169.688 109.156 169.328 109.156C168.682 109.156 168.195 108.961 167.867 108.57C167.539 108.18 167.375 107.625 167.375 106.906V101.664H165.836V100.547H167.375V98.5H168.82ZM175.602 109.156C174.456 109.156 173.523 108.781 172.805 108.031C172.086 107.276 171.727 106.268 171.727 105.008V104.742C171.727 103.904 171.885 103.156 172.203 102.5C172.526 101.839 172.974 101.323 173.547 100.953C174.125 100.578 174.75 100.391 175.422 100.391C176.521 100.391 177.375 100.753 177.984 101.477C178.594 102.201 178.898 103.237 178.898 104.586V105.188H173.172C173.193 106.021 173.435 106.695 173.898 107.211C174.367 107.721 174.961 107.977 175.68 107.977C176.19 107.977 176.622 107.872 176.977 107.664C177.331 107.456 177.641 107.18 177.906 106.836L178.789 107.523C178.081 108.612 177.018 109.156 175.602 109.156ZM175.422 101.578C174.839 101.578 174.349 101.792 173.953 102.219C173.557 102.641 173.312 103.234 173.219 104H177.453V103.891C177.411 103.156 177.214 102.589 176.859 102.188C176.505 101.781 176.026 101.578 175.422 101.578ZM189.766 108.164C189.203 108.826 188.378 109.156 187.289 109.156C186.388 109.156 185.701 108.896 185.227 108.375C184.758 107.849 184.521 107.073 184.516 106.047V100.547H185.961V106.008C185.961 107.289 186.482 107.93 187.523 107.93C188.628 107.93 189.362 107.518 189.727 106.695V100.547H191.172V109H189.797L189.766 108.164ZM194.742 100.547L194.789 101.609C195.435 100.797 196.279 100.391 197.32 100.391C199.107 100.391 200.008 101.398 200.023 103.414V109H198.578V103.406C198.573 102.797 198.432 102.346 198.156 102.055C197.885 101.763 197.461 101.617 196.883 101.617C196.414 101.617 196.003 101.742 195.648 101.992C195.294 102.242 195.018 102.57 194.82 102.977V109H193.375V100.547H194.742ZM203.773 109H202.328V100.547H203.773V109ZM202.211 98.3047C202.211 98.0703 202.281 97.8724 202.422 97.7109C202.568 97.5495 202.781 97.4688 203.062 97.4688C203.344 97.4688 203.557 97.5495 203.703 97.7109C203.849 97.8724 203.922 98.0703 203.922 98.3047C203.922 98.5391 203.849 98.7344 203.703 98.8906C203.557 99.0469 203.344 99.125 203.062 99.125C202.781 99.125 202.568 99.0469 202.422 98.8906C202.281 98.7344 202.211 98.5391 202.211 98.3047ZM205.742 104.703C205.742 103.375 206.047 102.326 206.656 101.555C207.266 100.779 208.083 100.391 209.109 100.391C210.109 100.391 210.898 100.727 211.477 101.398L211.539 100.547H212.867V112.25H211.422V108.219C210.839 108.844 210.062 109.156 209.094 109.156C208.073 109.156 207.258 108.76 206.648 107.969C206.044 107.172 205.742 106.117 205.742 104.805V104.703ZM207.188 104.867C207.188 105.836 207.391 106.596 207.797 107.148C208.208 107.701 208.76 107.977 209.453 107.977C210.312 107.977 210.969 107.596 211.422 106.836V102.695C210.964 101.951 210.312 101.578 209.469 101.578C208.771 101.578 208.216 101.857 207.805 102.414C207.393 102.966 207.188 103.784 207.188 104.867ZM220.406 108.164C219.844 108.826 219.018 109.156 217.93 109.156C217.029 109.156 216.341 108.896 215.867 108.375C215.398 107.849 215.161 107.073 215.156 106.047V100.547H216.602V106.008C216.602 107.289 217.122 107.93 218.164 107.93C219.268 107.93 220.003 107.518 220.367 106.695V100.547H221.812V109H220.438L220.406 108.164ZM227.523 109.156C226.378 109.156 225.445 108.781 224.727 108.031C224.008 107.276 223.648 106.268 223.648 105.008V104.742C223.648 103.904 223.807 103.156 224.125 102.5C224.448 101.839 224.896 101.323 225.469 100.953C226.047 100.578 226.672 100.391 227.344 100.391C228.443 100.391 229.297 100.753 229.906 101.477C230.516 102.201 230.82 103.237 230.82 104.586V105.188H225.094C225.115 106.021 225.357 106.695 225.82 107.211C226.289 107.721 226.883 107.977 227.602 107.977C228.112 107.977 228.544 107.872 228.898 107.664C229.253 107.456 229.562 107.18 229.828 106.836L230.711 107.523C230.003 108.612 228.94 109.156 227.523 109.156ZM227.344 101.578C226.76 101.578 226.271 101.792 225.875 102.219C225.479 102.641 225.234 103.234 225.141 104H229.375V103.891C229.333 103.156 229.135 102.589 228.781 102.188C228.427 101.781 227.948 101.578 227.344 101.578ZM241.688 109C241.604 108.833 241.536 108.536 241.484 108.109C240.812 108.807 240.01 109.156 239.078 109.156C238.245 109.156 237.56 108.922 237.023 108.453C236.492 107.979 236.227 107.38 236.227 106.656C236.227 105.776 236.56 105.094 237.227 104.609C237.898 104.12 238.841 103.875 240.055 103.875H241.461V103.211C241.461 102.706 241.31 102.305 241.008 102.008C240.706 101.706 240.26 101.555 239.672 101.555C239.156 101.555 238.724 101.685 238.375 101.945C238.026 102.206 237.852 102.521 237.852 102.891H236.398C236.398 102.469 236.547 102.062 236.844 101.672C237.146 101.276 237.552 100.964 238.062 100.734C238.578 100.505 239.143 100.391 239.758 100.391C240.732 100.391 241.495 100.635 242.047 101.125C242.599 101.609 242.885 102.279 242.906 103.133V107.023C242.906 107.799 243.005 108.417 243.203 108.875V109H241.688ZM239.289 107.898C239.742 107.898 240.172 107.781 240.578 107.547C240.984 107.312 241.279 107.008 241.461 106.633V104.898H240.328C238.557 104.898 237.672 105.417 237.672 106.453C237.672 106.906 237.823 107.26 238.125 107.516C238.427 107.771 238.815 107.898 239.289 107.898ZM246.539 100.547L246.586 101.609C247.232 100.797 248.076 100.391 249.117 100.391C250.904 100.391 251.805 101.398 251.82 103.414V109H250.375V103.406C250.37 102.797 250.229 102.346 249.953 102.055C249.682 101.763 249.258 101.617 248.68 101.617C248.211 101.617 247.799 101.742 247.445 101.992C247.091 102.242 246.815 102.57 246.617 102.977V109H245.172V100.547H246.539ZM253.648 104.703C253.648 103.406 253.956 102.365 254.57 101.578C255.185 100.786 255.99 100.391 256.984 100.391C257.974 100.391 258.758 100.729 259.336 101.406V97H260.781V109H259.453L259.383 108.094C258.805 108.802 258 109.156 256.969 109.156C255.99 109.156 255.19 108.755 254.57 107.953C253.956 107.151 253.648 106.104 253.648 104.812V104.703ZM255.094 104.867C255.094 105.826 255.292 106.576 255.688 107.117C256.083 107.659 256.63 107.93 257.328 107.93C258.245 107.93 258.914 107.518 259.336 106.695V102.812C258.904 102.016 258.24 101.617 257.344 101.617C256.635 101.617 256.083 101.891 255.688 102.438C255.292 102.984 255.094 103.794 255.094 104.867ZM272.219 109C272.135 108.833 272.068 108.536 272.016 108.109C271.344 108.807 270.542 109.156 269.609 109.156C268.776 109.156 268.091 108.922 267.555 108.453C267.023 107.979 266.758 107.38 266.758 106.656C266.758 105.776 267.091 105.094 267.758 104.609C268.43 104.12 269.372 103.875 270.586 103.875H271.992V103.211C271.992 102.706 271.841 102.305 271.539 102.008C271.237 101.706 270.792 101.555 270.203 101.555C269.688 101.555 269.255 101.685 268.906 101.945C268.557 102.206 268.383 102.521 268.383 102.891H266.93C266.93 102.469 267.078 102.062 267.375 101.672C267.677 101.276 268.083 100.964 268.594 100.734C269.109 100.505 269.674 100.391 270.289 100.391C271.263 100.391 272.026 100.635 272.578 101.125C273.13 101.609 273.417 102.279 273.438 103.133V107.023C273.438 107.799 273.536 108.417 273.734 108.875V109H272.219ZM269.82 107.898C270.273 107.898 270.703 107.781 271.109 107.547C271.516 107.312 271.81 107.008 271.992 106.633V104.898H270.859C269.089 104.898 268.203 105.417 268.203 106.453C268.203 106.906 268.354 107.26 268.656 107.516C268.958 107.771 269.346 107.898 269.82 107.898ZM279.211 109.156C278.065 109.156 277.133 108.781 276.414 108.031C275.695 107.276 275.336 106.268 275.336 105.008V104.742C275.336 103.904 275.495 103.156 275.812 102.5C276.135 101.839 276.583 101.323 277.156 100.953C277.734 100.578 278.359 100.391 279.031 100.391C280.13 100.391 280.984 100.753 281.594 101.477C282.203 102.201 282.508 103.237 282.508 104.586V105.188H276.781C276.802 106.021 277.044 106.695 277.508 107.211C277.977 107.721 278.57 107.977 279.289 107.977C279.799 107.977 280.232 107.872 280.586 107.664C280.94 107.456 281.25 107.18 281.516 106.836L282.398 107.523C281.69 108.612 280.628 109.156 279.211 109.156ZM279.031 101.578C278.448 101.578 277.958 101.792 277.562 102.219C277.167 102.641 276.922 103.234 276.828 104H281.062V103.891C281.021 103.156 280.823 102.589 280.469 102.188C280.115 101.781 279.635 101.578 279.031 101.578ZM289.109 106.758C289.109 106.367 288.961 106.065 288.664 105.852C288.372 105.633 287.859 105.445 287.125 105.289C286.396 105.133 285.815 104.945 285.383 104.727C284.956 104.508 284.638 104.247 284.43 103.945C284.227 103.643 284.125 103.284 284.125 102.867C284.125 102.174 284.417 101.589 285 101.109C285.589 100.63 286.339 100.391 287.25 100.391C288.208 100.391 288.984 100.638 289.578 101.133C290.177 101.628 290.477 102.26 290.477 103.031H289.023C289.023 102.635 288.854 102.294 288.516 102.008C288.182 101.721 287.76 101.578 287.25 101.578C286.724 101.578 286.312 101.693 286.016 101.922C285.719 102.151 285.57 102.451 285.57 102.82C285.57 103.169 285.708 103.432 285.984 103.609C286.26 103.786 286.758 103.956 287.477 104.117C288.201 104.279 288.786 104.471 289.234 104.695C289.682 104.919 290.013 105.19 290.227 105.508C290.445 105.82 290.555 106.203 290.555 106.656C290.555 107.411 290.253 108.018 289.648 108.477C289.044 108.93 288.26 109.156 287.297 109.156C286.62 109.156 286.021 109.036 285.5 108.797C284.979 108.557 284.57 108.224 284.273 107.797C283.982 107.365 283.836 106.898 283.836 106.398H285.281C285.307 106.883 285.5 107.268 285.859 107.555C286.224 107.836 286.703 107.977 287.297 107.977C287.844 107.977 288.281 107.867 288.609 107.648C288.943 107.424 289.109 107.128 289.109 106.758ZM294.398 98.5V100.547H295.977V101.664H294.398V106.906C294.398 107.245 294.469 107.5 294.609 107.672C294.75 107.839 294.99 107.922 295.328 107.922C295.495 107.922 295.724 107.891 296.016 107.828V109C295.635 109.104 295.266 109.156 294.906 109.156C294.26 109.156 293.773 108.961 293.445 108.57C293.117 108.18 292.953 107.625 292.953 106.906V101.664H291.414V100.547H292.953V98.5H294.398ZM299.117 101.57C299.758 100.784 300.591 100.391 301.617 100.391C303.404 100.391 304.305 101.398 304.32 103.414V109H302.875V103.406C302.87 102.797 302.729 102.346 302.453 102.055C302.182 101.763 301.758 101.617 301.18 101.617C300.711 101.617 300.299 101.742 299.945 101.992C299.591 102.242 299.315 102.57 299.117 102.977V109H297.672V97H299.117V101.57ZM309.992 109.156C308.846 109.156 307.914 108.781 307.195 108.031C306.477 107.276 306.117 106.268 306.117 105.008V104.742C306.117 103.904 306.276 103.156 306.594 102.5C306.917 101.839 307.365 101.323 307.938 100.953C308.516 100.578 309.141 100.391 309.812 100.391C310.911 100.391 311.766 100.753 312.375 101.477C312.984 102.201 313.289 103.237 313.289 104.586V105.188H307.562C307.583 106.021 307.826 106.695 308.289 107.211C308.758 107.721 309.352 107.977 310.07 107.977C310.581 107.977 311.013 107.872 311.367 107.664C311.721 107.456 312.031 107.18 312.297 106.836L313.18 107.523C312.471 108.612 311.409 109.156 309.992 109.156ZM309.812 101.578C309.229 101.578 308.74 101.792 308.344 102.219C307.948 102.641 307.703 103.234 307.609 104H311.844V103.891C311.802 103.156 311.604 102.589 311.25 102.188C310.896 101.781 310.417 101.578 309.812 101.578ZM316.93 98.5V100.547H318.508V101.664H316.93V106.906C316.93 107.245 317 107.5 317.141 107.672C317.281 107.839 317.521 107.922 317.859 107.922C318.026 107.922 318.255 107.891 318.547 107.828V109C318.167 109.104 317.797 109.156 317.438 109.156C316.792 109.156 316.305 108.961 315.977 108.57C315.648 108.18 315.484 107.625 315.484 106.906V101.664H313.945V100.547H315.484V98.5H316.93ZM321.773 109H320.328V100.547H321.773V109ZM320.211 98.3047C320.211 98.0703 320.281 97.8724 320.422 97.7109C320.568 97.5495 320.781 97.4688 321.062 97.4688C321.344 97.4688 321.557 97.5495 321.703 97.7109C321.849 97.8724 321.922 98.0703 321.922 98.3047C321.922 98.5391 321.849 98.7344 321.703 98.8906C321.557 99.0469 321.344 99.125 321.062 99.125C320.781 99.125 320.568 99.0469 320.422 98.8906C320.281 98.7344 320.211 98.5391 320.211 98.3047ZM327.484 107.977C328 107.977 328.451 107.82 328.836 107.508C329.221 107.195 329.435 106.805 329.477 106.336H330.844C330.818 106.82 330.651 107.281 330.344 107.719C330.036 108.156 329.625 108.505 329.109 108.766C328.599 109.026 328.057 109.156 327.484 109.156C326.333 109.156 325.417 108.773 324.734 108.008C324.057 107.237 323.719 106.185 323.719 104.852V104.609C323.719 103.786 323.87 103.055 324.172 102.414C324.474 101.773 324.906 101.276 325.469 100.922C326.036 100.568 326.706 100.391 327.477 100.391C328.424 100.391 329.211 100.674 329.836 101.242C330.466 101.81 330.802 102.547 330.844 103.453H329.477C329.435 102.906 329.227 102.458 328.852 102.109C328.482 101.755 328.023 101.578 327.477 101.578C326.742 101.578 326.172 101.844 325.766 102.375C325.365 102.901 325.164 103.664 325.164 104.664V104.938C325.164 105.911 325.365 106.661 325.766 107.188C326.167 107.714 326.74 107.977 327.484 107.977ZM337.688 109C337.604 108.833 337.536 108.536 337.484 108.109C336.812 108.807 336.01 109.156 335.078 109.156C334.245 109.156 333.56 108.922 333.023 108.453C332.492 107.979 332.227 107.38 332.227 106.656C332.227 105.776 332.56 105.094 333.227 104.609C333.898 104.12 334.841 103.875 336.055 103.875H337.461V103.211C337.461 102.706 337.31 102.305 337.008 102.008C336.706 101.706 336.26 101.555 335.672 101.555C335.156 101.555 334.724 101.685 334.375 101.945C334.026 102.206 333.852 102.521 333.852 102.891H332.398C332.398 102.469 332.547 102.062 332.844 101.672C333.146 101.276 333.552 100.964 334.062 100.734C334.578 100.505 335.143 100.391 335.758 100.391C336.732 100.391 337.495 100.635 338.047 101.125C338.599 101.609 338.885 102.279 338.906 103.133V107.023C338.906 107.799 339.005 108.417 339.203 108.875V109H337.688ZM335.289 107.898C335.742 107.898 336.172 107.781 336.578 107.547C336.984 107.312 337.279 107.008 337.461 106.633V104.898H336.328C334.557 104.898 333.672 105.417 333.672 106.453C333.672 106.906 333.823 107.26 334.125 107.516C334.427 107.771 334.815 107.898 335.289 107.898ZM342.742 109H341.297V97H342.742V109ZM346.633 109H345.188V97H346.633V109ZM351.719 106.883L353.688 100.547H355.234L351.836 110.305C351.31 111.711 350.474 112.414 349.328 112.414L349.055 112.391L348.516 112.289V111.117L348.906 111.148C349.396 111.148 349.776 111.049 350.047 110.852C350.323 110.654 350.549 110.292 350.727 109.766L351.047 108.906L348.031 100.547H349.609L351.719 106.883ZM367.641 104.867C367.641 106.154 367.346 107.19 366.758 107.977C366.169 108.763 365.372 109.156 364.367 109.156C363.341 109.156 362.534 108.831 361.945 108.18V112.25H360.5V100.547H361.82L361.891 101.484C362.479 100.755 363.297 100.391 364.344 100.391C365.359 100.391 366.161 100.773 366.75 101.539C367.344 102.305 367.641 103.37 367.641 104.734V104.867ZM366.195 104.703C366.195 103.75 365.992 102.997 365.586 102.445C365.18 101.893 364.622 101.617 363.914 101.617C363.039 101.617 362.383 102.005 361.945 102.781V106.82C362.378 107.591 363.039 107.977 363.93 107.977C364.622 107.977 365.172 107.703 365.578 107.156C365.99 106.604 366.195 105.786 366.195 104.703ZM371.055 109H369.609V97H371.055V109ZM376.883 109.156C375.737 109.156 374.805 108.781 374.086 108.031C373.367 107.276 373.008 106.268 373.008 105.008V104.742C373.008 103.904 373.167 103.156 373.484 102.5C373.807 101.839 374.255 101.323 374.828 100.953C375.406 100.578 376.031 100.391 376.703 100.391C377.802 100.391 378.656 100.753 379.266 101.477C379.875 102.201 380.18 103.237 380.18 104.586V105.188H374.453C374.474 106.021 374.716 106.695 375.18 107.211C375.648 107.721 376.242 107.977 376.961 107.977C377.471 107.977 377.904 107.872 378.258 107.664C378.612 107.456 378.922 107.18 379.188 106.836L380.07 107.523C379.362 108.612 378.299 109.156 376.883 109.156ZM376.703 101.578C376.12 101.578 375.63 101.792 375.234 102.219C374.839 102.641 374.594 103.234 374.5 104H378.734V103.891C378.693 103.156 378.495 102.589 378.141 102.188C377.786 101.781 377.307 101.578 376.703 101.578ZM387.078 109C386.995 108.833 386.927 108.536 386.875 108.109C386.203 108.807 385.401 109.156 384.469 109.156C383.635 109.156 382.951 108.922 382.414 108.453C381.883 107.979 381.617 107.38 381.617 106.656C381.617 105.776 381.951 105.094 382.617 104.609C383.289 104.12 384.232 103.875 385.445 103.875H386.852V103.211C386.852 102.706 386.701 102.305 386.398 102.008C386.096 101.706 385.651 101.555 385.062 101.555C384.547 101.555 384.115 101.685 383.766 101.945C383.417 102.206 383.242 102.521 383.242 102.891H381.789C381.789 102.469 381.938 102.062 382.234 101.672C382.536 101.276 382.943 100.964 383.453 100.734C383.969 100.505 384.534 100.391 385.148 100.391C386.122 100.391 386.885 100.635 387.438 101.125C387.99 101.609 388.276 102.279 388.297 103.133V107.023C388.297 107.799 388.396 108.417 388.594 108.875V109H387.078ZM384.68 107.898C385.133 107.898 385.562 107.781 385.969 107.547C386.375 107.312 386.669 107.008 386.852 106.633V104.898H385.719C383.948 104.898 383.062 105.417 383.062 106.453C383.062 106.906 383.214 107.26 383.516 107.516C383.818 107.771 384.206 107.898 384.68 107.898ZM395.484 106.758C395.484 106.367 395.336 106.065 395.039 105.852C394.747 105.633 394.234 105.445 393.5 105.289C392.771 105.133 392.19 104.945 391.758 104.727C391.331 104.508 391.013 104.247 390.805 103.945C390.602 103.643 390.5 103.284 390.5 102.867C390.5 102.174 390.792 101.589 391.375 101.109C391.964 100.63 392.714 100.391 393.625 100.391C394.583 100.391 395.359 100.638 395.953 101.133C396.552 101.628 396.852 102.26 396.852 103.031H395.398C395.398 102.635 395.229 102.294 394.891 102.008C394.557 101.721 394.135 101.578 393.625 101.578C393.099 101.578 392.688 101.693 392.391 101.922C392.094 102.151 391.945 102.451 391.945 102.82C391.945 103.169 392.083 103.432 392.359 103.609C392.635 103.786 393.133 103.956 393.852 104.117C394.576 104.279 395.161 104.471 395.609 104.695C396.057 104.919 396.388 105.19 396.602 105.508C396.82 105.82 396.93 106.203 396.93 106.656C396.93 107.411 396.628 108.018 396.023 108.477C395.419 108.93 394.635 109.156 393.672 109.156C392.995 109.156 392.396 109.036 391.875 108.797C391.354 108.557 390.945 108.224 390.648 107.797C390.357 107.365 390.211 106.898 390.211 106.398H391.656C391.682 106.883 391.875 107.268 392.234 107.555C392.599 107.836 393.078 107.977 393.672 107.977C394.219 107.977 394.656 107.867 394.984 107.648C395.318 107.424 395.484 107.128 395.484 106.758ZM400.383 109H398.938V100.547H400.383V109ZM398.82 98.3047C398.82 98.0703 398.891 97.8724 399.031 97.7109C399.177 97.5495 399.391 97.4688 399.672 97.4688C399.953 97.4688 400.167 97.5495 400.312 97.7109C400.458 97.8724 400.531 98.0703 400.531 98.3047C400.531 98.5391 400.458 98.7344 400.312 98.8906C400.167 99.0469 399.953 99.125 399.672 99.125C399.391 99.125 399.177 99.0469 399.031 98.8906C398.891 98.7344 398.82 98.5391 398.82 98.3047ZM404.07 100.547L404.117 101.609C404.763 100.797 405.607 100.391 406.648 100.391C408.435 100.391 409.336 101.398 409.352 103.414V109H407.906V103.406C407.901 102.797 407.76 102.346 407.484 102.055C407.214 101.763 406.789 101.617 406.211 101.617C405.742 101.617 405.331 101.742 404.977 101.992C404.622 102.242 404.346 102.57 404.148 102.977V109H402.703V100.547H404.07ZM411.188 104.703C411.188 103.385 411.492 102.339 412.102 101.562C412.711 100.781 413.518 100.391 414.523 100.391C415.555 100.391 416.359 100.755 416.938 101.484L417.008 100.547H418.328V108.797C418.328 109.891 418.003 110.753 417.352 111.383C416.706 112.013 415.836 112.328 414.742 112.328C414.133 112.328 413.536 112.198 412.953 111.938C412.37 111.677 411.924 111.32 411.617 110.867L412.367 110C412.987 110.766 413.745 111.148 414.641 111.148C415.344 111.148 415.891 110.951 416.281 110.555C416.677 110.159 416.875 109.602 416.875 108.883V108.156C416.297 108.823 415.508 109.156 414.508 109.156C413.518 109.156 412.716 108.758 412.102 107.961C411.492 107.164 411.188 106.078 411.188 104.703ZM412.641 104.867C412.641 105.82 412.836 106.57 413.227 107.117C413.617 107.659 414.164 107.93 414.867 107.93C415.779 107.93 416.448 107.516 416.875 106.688V102.828C416.432 102.021 415.768 101.617 414.883 101.617C414.18 101.617 413.63 101.891 413.234 102.438C412.839 102.984 412.641 103.794 412.641 104.867ZM427.273 107.039L429.367 100.547H430.844L427.812 109H426.711L423.648 100.547H425.125L427.273 107.039ZM433.805 109H432.359V100.547H433.805V109ZM432.242 98.3047C432.242 98.0703 432.312 97.8724 432.453 97.7109C432.599 97.5495 432.812 97.4688 433.094 97.4688C433.375 97.4688 433.589 97.5495 433.734 97.7109C433.88 97.8724 433.953 98.0703 433.953 98.3047C433.953 98.5391 433.88 98.7344 433.734 98.8906C433.589 99.0469 433.375 99.125 433.094 99.125C432.812 99.125 432.599 99.0469 432.453 98.8906C432.312 98.7344 432.242 98.5391 432.242 98.3047ZM441.047 106.758C441.047 106.367 440.898 106.065 440.602 105.852C440.31 105.633 439.797 105.445 439.062 105.289C438.333 105.133 437.753 104.945 437.32 104.727C436.893 104.508 436.576 104.247 436.367 103.945C436.164 103.643 436.062 103.284 436.062 102.867C436.062 102.174 436.354 101.589 436.938 101.109C437.526 100.63 438.276 100.391 439.188 100.391C440.146 100.391 440.922 100.638 441.516 101.133C442.115 101.628 442.414 102.26 442.414 103.031H440.961C440.961 102.635 440.792 102.294 440.453 102.008C440.12 101.721 439.698 101.578 439.188 101.578C438.661 101.578 438.25 101.693 437.953 101.922C437.656 102.151 437.508 102.451 437.508 102.82C437.508 103.169 437.646 103.432 437.922 103.609C438.198 103.786 438.695 103.956 439.414 104.117C440.138 104.279 440.724 104.471 441.172 104.695C441.62 104.919 441.951 105.19 442.164 105.508C442.383 105.82 442.492 106.203 442.492 106.656C442.492 107.411 442.19 108.018 441.586 108.477C440.982 108.93 440.198 109.156 439.234 109.156C438.557 109.156 437.958 109.036 437.438 108.797C436.917 108.557 436.508 108.224 436.211 107.797C435.919 107.365 435.773 106.898 435.773 106.398H437.219C437.245 106.883 437.438 107.268 437.797 107.555C438.161 107.836 438.641 107.977 439.234 107.977C439.781 107.977 440.219 107.867 440.547 107.648C440.88 107.424 441.047 107.128 441.047 106.758ZM449.594 108.164C449.031 108.826 448.206 109.156 447.117 109.156C446.216 109.156 445.529 108.896 445.055 108.375C444.586 107.849 444.349 107.073 444.344 106.047V100.547H445.789V106.008C445.789 107.289 446.31 107.93 447.352 107.93C448.456 107.93 449.19 107.518 449.555 106.695V100.547H451V109H449.625L449.594 108.164ZM458.422 109C458.339 108.833 458.271 108.536 458.219 108.109C457.547 108.807 456.745 109.156 455.812 109.156C454.979 109.156 454.294 108.922 453.758 108.453C453.227 107.979 452.961 107.38 452.961 106.656C452.961 105.776 453.294 105.094 453.961 104.609C454.633 104.12 455.576 103.875 456.789 103.875H458.195V103.211C458.195 102.706 458.044 102.305 457.742 102.008C457.44 101.706 456.995 101.555 456.406 101.555C455.891 101.555 455.458 101.685 455.109 101.945C454.76 102.206 454.586 102.521 454.586 102.891H453.133C453.133 102.469 453.281 102.062 453.578 101.672C453.88 101.276 454.286 100.964 454.797 100.734C455.312 100.505 455.878 100.391 456.492 100.391C457.466 100.391 458.229 100.635 458.781 101.125C459.333 101.609 459.62 102.279 459.641 103.133V107.023C459.641 107.799 459.74 108.417 459.938 108.875V109H458.422ZM456.023 107.898C456.477 107.898 456.906 107.781 457.312 107.547C457.719 107.312 458.013 107.008 458.195 106.633V104.898H457.062C455.292 104.898 454.406 105.417 454.406 106.453C454.406 106.906 454.557 107.26 454.859 107.516C455.161 107.771 455.549 107.898 456.023 107.898ZM463.477 109H462.031V97H463.477V109ZM40.7422 134.703C40.7422 133.406 41.0495 132.365 41.6641 131.578C42.2786 130.786 43.0833 130.391 44.0781 130.391C45.0677 130.391 45.8516 130.729 46.4297 131.406V127H47.875V139H46.5469L46.4766 138.094C45.8984 138.802 45.0938 139.156 44.0625 139.156C43.0833 139.156 42.2839 138.755 41.6641 137.953C41.0495 137.151 40.7422 136.104 40.7422 134.812V134.703ZM42.1875 134.867C42.1875 135.826 42.3854 136.576 42.7812 137.117C43.1771 137.659 43.724 137.93 44.4219 137.93C45.3385 137.93 46.0078 137.518 46.4297 136.695V132.812C45.9974 132.016 45.3333 131.617 44.4375 131.617C43.7292 131.617 43.1771 131.891 42.7812 132.438C42.3854 132.984 42.1875 133.794 42.1875 134.867ZM53.6328 139.156C52.487 139.156 51.5547 138.781 50.8359 138.031C50.1172 137.276 49.7578 136.268 49.7578 135.008V134.742C49.7578 133.904 49.9167 133.156 50.2344 132.5C50.5573 131.839 51.0052 131.323 51.5781 130.953C52.1562 130.578 52.7812 130.391 53.4531 130.391C54.5521 130.391 55.4062 130.753 56.0156 131.477C56.625 132.201 56.9297 133.237 56.9297 134.586V135.188H51.2031C51.224 136.021 51.4661 136.695 51.9297 137.211C52.3984 137.721 52.9922 137.977 53.7109 137.977C54.2214 137.977 54.6536 137.872 55.0078 137.664C55.362 137.456 55.6719 137.18 55.9375 136.836L56.8203 137.523C56.112 138.612 55.0495 139.156 53.6328 139.156ZM53.4531 131.578C52.8698 131.578 52.3802 131.792 51.9844 132.219C51.5885 132.641 51.3438 133.234 51.25 134H55.4844V133.891C55.4427 133.156 55.2448 132.589 54.8906 132.188C54.5365 131.781 54.0573 131.578 53.4531 131.578ZM63.5312 136.758C63.5312 136.367 63.3828 136.065 63.0859 135.852C62.7943 135.633 62.2812 135.445 61.5469 135.289C60.8177 135.133 60.237 134.945 59.8047 134.727C59.3776 134.508 59.0599 134.247 58.8516 133.945C58.6484 133.643 58.5469 133.284 58.5469 132.867C58.5469 132.174 58.8385 131.589 59.4219 131.109C60.0104 130.63 60.7604 130.391 61.6719 130.391C62.6302 130.391 63.4062 130.638 64 131.133C64.599 131.628 64.8984 132.26 64.8984 133.031H63.4453C63.4453 132.635 63.276 132.294 62.9375 132.008C62.6042 131.721 62.1823 131.578 61.6719 131.578C61.1458 131.578 60.7344 131.693 60.4375 131.922C60.1406 132.151 59.9922 132.451 59.9922 132.82C59.9922 133.169 60.1302 133.432 60.4062 133.609C60.6823 133.786 61.1797 133.956 61.8984 134.117C62.6224 134.279 63.2083 134.471 63.6562 134.695C64.1042 134.919 64.4349 135.19 64.6484 135.508C64.8672 135.82 64.9766 136.203 64.9766 136.656C64.9766 137.411 64.6745 138.018 64.0703 138.477C63.4661 138.93 62.6823 139.156 61.7188 139.156C61.0417 139.156 60.4427 139.036 59.9219 138.797C59.401 138.557 58.9922 138.224 58.6953 137.797C58.4036 137.365 58.2578 136.898 58.2578 136.398H59.7031C59.7292 136.883 59.9219 137.268 60.2812 137.555C60.6458 137.836 61.125 137.977 61.7188 137.977C62.2656 137.977 62.7031 137.867 63.0312 137.648C63.3646 137.424 63.5312 137.128 63.5312 136.758ZM68.4297 139H66.9844V130.547H68.4297V139ZM66.8672 128.305C66.8672 128.07 66.9375 127.872 67.0781 127.711C67.224 127.549 67.4375 127.469 67.7188 127.469C68 127.469 68.2135 127.549 68.3594 127.711C68.5052 127.872 68.5781 128.07 68.5781 128.305C68.5781 128.539 68.5052 128.734 68.3594 128.891C68.2135 129.047 68 129.125 67.7188 129.125C67.4375 129.125 67.224 129.047 67.0781 128.891C66.9375 128.734 66.8672 128.539 66.8672 128.305ZM70.4062 134.703C70.4062 133.385 70.7109 132.339 71.3203 131.562C71.9297 130.781 72.737 130.391 73.7422 130.391C74.7734 130.391 75.5781 130.755 76.1562 131.484L76.2266 130.547H77.5469V138.797C77.5469 139.891 77.2214 140.753 76.5703 141.383C75.9245 142.013 75.0547 142.328 73.9609 142.328C73.3516 142.328 72.7552 142.198 72.1719 141.938C71.5885 141.677 71.1432 141.32 70.8359 140.867L71.5859 140C72.2057 140.766 72.9635 141.148 73.8594 141.148C74.5625 141.148 75.1094 140.951 75.5 140.555C75.8958 140.159 76.0938 139.602 76.0938 138.883V138.156C75.5156 138.823 74.7266 139.156 73.7266 139.156C72.737 139.156 71.9349 138.758 71.3203 137.961C70.7109 137.164 70.4062 136.078 70.4062 134.703ZM71.8594 134.867C71.8594 135.82 72.0547 136.57 72.4453 137.117C72.8359 137.659 73.3828 137.93 74.0859 137.93C74.9974 137.93 75.6667 137.516 76.0938 136.688V132.828C75.651 132.021 74.987 131.617 74.1016 131.617C73.3984 131.617 72.849 131.891 72.4531 132.438C72.0573 132.984 71.8594 133.794 71.8594 134.867ZM81.1016 130.547L81.1484 131.609C81.7943 130.797 82.638 130.391 83.6797 130.391C85.4661 130.391 86.3672 131.398 86.3828 133.414V139H84.9375V133.406C84.9323 132.797 84.7917 132.346 84.5156 132.055C84.2448 131.763 83.8203 131.617 83.2422 131.617C82.7734 131.617 82.362 131.742 82.0078 131.992C81.6536 132.242 81.3776 132.57 81.1797 132.977V139H79.7344V130.547H81.1016ZM97.4531 136.758C97.4531 136.367 97.3047 136.065 97.0078 135.852C96.7161 135.633 96.2031 135.445 95.4688 135.289C94.7396 135.133 94.1589 134.945 93.7266 134.727C93.2995 134.508 92.9818 134.247 92.7734 133.945C92.5703 133.643 92.4688 133.284 92.4688 132.867C92.4688 132.174 92.7604 131.589 93.3438 131.109C93.9323 130.63 94.6823 130.391 95.5938 130.391C96.5521 130.391 97.3281 130.638 97.9219 131.133C98.5208 131.628 98.8203 132.26 98.8203 133.031H97.3672C97.3672 132.635 97.1979 132.294 96.8594 132.008C96.526 131.721 96.1042 131.578 95.5938 131.578C95.0677 131.578 94.6562 131.693 94.3594 131.922C94.0625 132.151 93.9141 132.451 93.9141 132.82C93.9141 133.169 94.0521 133.432 94.3281 133.609C94.6042 133.786 95.1016 133.956 95.8203 134.117C96.5443 134.279 97.1302 134.471 97.5781 134.695C98.026 134.919 98.3568 135.19 98.5703 135.508C98.7891 135.82 98.8984 136.203 98.8984 136.656C98.8984 137.411 98.5964 138.018 97.9922 138.477C97.388 138.93 96.6042 139.156 95.6406 139.156C94.9635 139.156 94.3646 139.036 93.8438 138.797C93.3229 138.557 92.9141 138.224 92.6172 137.797C92.3255 137.365 92.1797 136.898 92.1797 136.398H93.625C93.651 136.883 93.8438 137.268 94.2031 137.555C94.5677 137.836 95.0469 137.977 95.6406 137.977C96.1875 137.977 96.625 137.867 96.9531 137.648C97.2865 137.424 97.4531 137.128 97.4531 136.758ZM100.398 134.695C100.398 133.867 100.56 133.122 100.883 132.461C101.211 131.799 101.664 131.289 102.242 130.93C102.826 130.57 103.49 130.391 104.234 130.391C105.385 130.391 106.315 130.789 107.023 131.586C107.737 132.383 108.094 133.443 108.094 134.766V134.867C108.094 135.69 107.935 136.43 107.617 137.086C107.305 137.737 106.854 138.245 106.266 138.609C105.682 138.974 105.01 139.156 104.25 139.156C103.104 139.156 102.174 138.758 101.461 137.961C100.753 137.164 100.398 136.109 100.398 134.797V134.695ZM101.852 134.867C101.852 135.805 102.068 136.557 102.5 137.125C102.938 137.693 103.521 137.977 104.25 137.977C104.984 137.977 105.568 137.69 106 137.117C106.432 136.539 106.648 135.732 106.648 134.695C106.648 133.768 106.427 133.018 105.984 132.445C105.547 131.867 104.964 131.578 104.234 131.578C103.521 131.578 102.945 131.862 102.508 132.43C102.07 132.997 101.852 133.81 101.852 134.867ZM111.477 139H110.031V127H111.477V139ZM119.016 138.164C118.453 138.826 117.628 139.156 116.539 139.156C115.638 139.156 114.951 138.896 114.477 138.375C114.008 137.849 113.771 137.073 113.766 136.047V130.547H115.211V136.008C115.211 137.289 115.732 137.93 116.773 137.93C117.878 137.93 118.612 137.518 118.977 136.695V130.547H120.422V139H119.047L119.016 138.164ZM124.586 128.5V130.547H126.164V131.664H124.586V136.906C124.586 137.245 124.656 137.5 124.797 137.672C124.938 137.839 125.177 137.922 125.516 137.922C125.682 137.922 125.911 137.891 126.203 137.828V139C125.823 139.104 125.453 139.156 125.094 139.156C124.448 139.156 123.961 138.961 123.633 138.57C123.305 138.18 123.141 137.625 123.141 136.906V131.664H121.602V130.547H123.141V128.5H124.586ZM129.43 139H127.984V130.547H129.43V139ZM127.867 128.305C127.867 128.07 127.938 127.872 128.078 127.711C128.224 127.549 128.438 127.469 128.719 127.469C129 127.469 129.214 127.549 129.359 127.711C129.505 127.872 129.578 128.07 129.578 128.305C129.578 128.539 129.505 128.734 129.359 128.891C129.214 129.047 129 129.125 128.719 129.125C128.438 129.125 128.224 129.047 128.078 128.891C127.938 128.734 127.867 128.539 127.867 128.305ZM131.367 134.695C131.367 133.867 131.529 133.122 131.852 132.461C132.18 131.799 132.633 131.289 133.211 130.93C133.794 130.57 134.458 130.391 135.203 130.391C136.354 130.391 137.284 130.789 137.992 131.586C138.706 132.383 139.062 133.443 139.062 134.766V134.867C139.062 135.69 138.904 136.43 138.586 137.086C138.273 137.737 137.823 138.245 137.234 138.609C136.651 138.974 135.979 139.156 135.219 139.156C134.073 139.156 133.143 138.758 132.43 137.961C131.721 137.164 131.367 136.109 131.367 134.797V134.695ZM132.82 134.867C132.82 135.805 133.036 136.557 133.469 137.125C133.906 137.693 134.49 137.977 135.219 137.977C135.953 137.977 136.536 137.69 136.969 137.117C137.401 136.539 137.617 135.732 137.617 134.695C137.617 133.768 137.396 133.018 136.953 132.445C136.516 131.867 135.932 131.578 135.203 131.578C134.49 131.578 133.914 131.862 133.477 132.43C133.039 132.997 132.82 133.81 132.82 134.867ZM142.242 130.547L142.289 131.609C142.935 130.797 143.779 130.391 144.82 130.391C146.607 130.391 147.508 131.398 147.523 133.414V139H146.078V133.406C146.073 132.797 145.932 132.346 145.656 132.055C145.385 131.763 144.961 131.617 144.383 131.617C143.914 131.617 143.503 131.742 143.148 131.992C142.794 132.242 142.518 132.57 142.32 132.977V139H140.875V130.547H142.242ZM154.625 136.758C154.625 136.367 154.477 136.065 154.18 135.852C153.888 135.633 153.375 135.445 152.641 135.289C151.911 135.133 151.331 134.945 150.898 134.727C150.471 134.508 150.154 134.247 149.945 133.945C149.742 133.643 149.641 133.284 149.641 132.867C149.641 132.174 149.932 131.589 150.516 131.109C151.104 130.63 151.854 130.391 152.766 130.391C153.724 130.391 154.5 130.638 155.094 131.133C155.693 131.628 155.992 132.26 155.992 133.031H154.539C154.539 132.635 154.37 132.294 154.031 132.008C153.698 131.721 153.276 131.578 152.766 131.578C152.24 131.578 151.828 131.693 151.531 131.922C151.234 132.151 151.086 132.451 151.086 132.82C151.086 133.169 151.224 133.432 151.5 133.609C151.776 133.786 152.273 133.956 152.992 134.117C153.716 134.279 154.302 134.471 154.75 134.695C155.198 134.919 155.529 135.19 155.742 135.508C155.961 135.82 156.07 136.203 156.07 136.656C156.07 137.411 155.768 138.018 155.164 138.477C154.56 138.93 153.776 139.156 152.812 139.156C152.135 139.156 151.536 139.036 151.016 138.797C150.495 138.557 150.086 138.224 149.789 137.797C149.497 137.365 149.352 136.898 149.352 136.398H150.797C150.823 136.883 151.016 137.268 151.375 137.555C151.74 137.836 152.219 137.977 152.812 137.977C153.359 137.977 153.797 137.867 154.125 137.648C154.458 137.424 154.625 137.128 154.625 136.758ZM163.883 128.5V130.547H165.461V131.664H163.883V136.906C163.883 137.245 163.953 137.5 164.094 137.672C164.234 137.839 164.474 137.922 164.812 137.922C164.979 137.922 165.208 137.891 165.5 137.828V139C165.12 139.104 164.75 139.156 164.391 139.156C163.745 139.156 163.258 138.961 162.93 138.57C162.602 138.18 162.438 137.625 162.438 136.906V131.664H160.898V130.547H162.438V128.5H163.883ZM168.602 131.57C169.242 130.784 170.076 130.391 171.102 130.391C172.888 130.391 173.789 131.398 173.805 133.414V139H172.359V133.406C172.354 132.797 172.214 132.346 171.938 132.055C171.667 131.763 171.242 131.617 170.664 131.617C170.195 131.617 169.784 131.742 169.43 131.992C169.076 132.242 168.799 132.57 168.602 132.977V139H167.156V127H168.602V131.57ZM181.188 139C181.104 138.833 181.036 138.536 180.984 138.109C180.312 138.807 179.51 139.156 178.578 139.156C177.745 139.156 177.06 138.922 176.523 138.453C175.992 137.979 175.727 137.38 175.727 136.656C175.727 135.776 176.06 135.094 176.727 134.609C177.398 134.12 178.341 133.875 179.555 133.875H180.961V133.211C180.961 132.706 180.81 132.305 180.508 132.008C180.206 131.706 179.76 131.555 179.172 131.555C178.656 131.555 178.224 131.685 177.875 131.945C177.526 132.206 177.352 132.521 177.352 132.891H175.898C175.898 132.469 176.047 132.062 176.344 131.672C176.646 131.276 177.052 130.964 177.562 130.734C178.078 130.505 178.643 130.391 179.258 130.391C180.232 130.391 180.995 130.635 181.547 131.125C182.099 131.609 182.385 132.279 182.406 133.133V137.023C182.406 137.799 182.505 138.417 182.703 138.875V139H181.188ZM178.789 137.898C179.242 137.898 179.672 137.781 180.078 137.547C180.484 137.312 180.779 137.008 180.961 136.633V134.898H179.828C178.057 134.898 177.172 135.417 177.172 136.453C177.172 136.906 177.323 137.26 177.625 137.516C177.927 137.771 178.315 137.898 178.789 137.898ZM186.633 128.5V130.547H188.211V131.664H186.633V136.906C186.633 137.245 186.703 137.5 186.844 137.672C186.984 137.839 187.224 137.922 187.562 137.922C187.729 137.922 187.958 137.891 188.25 137.828V139C187.87 139.104 187.5 139.156 187.141 139.156C186.495 139.156 186.008 138.961 185.68 138.57C185.352 138.18 185.188 137.625 185.188 136.906V131.664H183.648V130.547H185.188V128.5H186.633ZM194.586 139V131.664H193.25V130.547H194.586V129.68C194.586 128.773 194.828 128.073 195.312 127.578C195.797 127.083 196.482 126.836 197.367 126.836C197.701 126.836 198.031 126.88 198.359 126.969L198.281 128.141C198.036 128.094 197.776 128.07 197.5 128.07C197.031 128.07 196.669 128.208 196.414 128.484C196.159 128.755 196.031 129.146 196.031 129.656V130.547H197.836V131.664H196.031V139H194.586ZM204.656 138.164C204.094 138.826 203.268 139.156 202.18 139.156C201.279 139.156 200.591 138.896 200.117 138.375C199.648 137.849 199.411 137.073 199.406 136.047V130.547H200.852V136.008C200.852 137.289 201.372 137.93 202.414 137.93C203.518 137.93 204.253 137.518 204.617 136.695V130.547H206.062V139H204.688L204.656 138.164ZM209.836 139H208.391V127H209.836V139ZM212.641 139V131.664H211.305V130.547H212.641V129.828C212.641 128.885 212.909 128.151 213.445 127.625C213.987 127.099 214.75 126.836 215.734 126.836C216.318 126.836 217.055 126.995 217.945 127.312L217.703 128.531C217.052 128.271 216.432 128.141 215.844 128.141C215.224 128.141 214.776 128.281 214.5 128.562C214.229 128.839 214.094 129.255 214.094 129.812V130.547H215.82V131.664H214.094V139H212.641ZM218.664 139H217.211V130.547H218.664V139ZM222.586 139H221.141V127H222.586V139ZM236.031 134.867C236.031 136.159 235.734 137.198 235.141 137.984C234.547 138.766 233.75 139.156 232.75 139.156C231.682 139.156 230.857 138.779 230.273 138.023L230.203 139H228.875V127H230.32V131.477C230.904 130.753 231.708 130.391 232.734 130.391C233.76 130.391 234.565 130.779 235.148 131.555C235.737 132.331 236.031 133.393 236.031 134.742V134.867ZM234.586 134.703C234.586 133.719 234.396 132.958 234.016 132.422C233.635 131.885 233.089 131.617 232.375 131.617C231.422 131.617 230.737 132.06 230.32 132.945V136.602C230.763 137.487 231.453 137.93 232.391 137.93C233.083 137.93 233.622 137.661 234.008 137.125C234.393 136.589 234.586 135.781 234.586 134.703ZM237.477 134.695C237.477 133.867 237.638 133.122 237.961 132.461C238.289 131.799 238.742 131.289 239.32 130.93C239.904 130.57 240.568 130.391 241.312 130.391C242.464 130.391 243.393 130.789 244.102 131.586C244.815 132.383 245.172 133.443 245.172 134.766V134.867C245.172 135.69 245.013 136.43 244.695 137.086C244.383 137.737 243.932 138.245 243.344 138.609C242.76 138.974 242.089 139.156 241.328 139.156C240.182 139.156 239.253 138.758 238.539 137.961C237.831 137.164 237.477 136.109 237.477 134.797V134.695ZM238.93 134.867C238.93 135.805 239.146 136.557 239.578 137.125C240.016 137.693 240.599 137.977 241.328 137.977C242.062 137.977 242.646 137.69 243.078 137.117C243.51 136.539 243.727 135.732 243.727 134.695C243.727 133.768 243.505 133.018 243.062 132.445C242.625 131.867 242.042 131.578 241.312 131.578C240.599 131.578 240.023 131.862 239.586 132.43C239.148 132.997 238.93 133.81 238.93 134.867ZM248.945 128.5V130.547H250.523V131.664H248.945V136.906C248.945 137.245 249.016 137.5 249.156 137.672C249.297 137.839 249.536 137.922 249.875 137.922C250.042 137.922 250.271 137.891 250.562 137.828V139C250.182 139.104 249.812 139.156 249.453 139.156C248.807 139.156 248.32 138.961 247.992 138.57C247.664 138.18 247.5 137.625 247.5 136.906V131.664H245.961V130.547H247.5V128.5H248.945ZM253.664 131.57C254.305 130.784 255.138 130.391 256.164 130.391C257.951 130.391 258.852 131.398 258.867 133.414V139H257.422V133.406C257.417 132.797 257.276 132.346 257 132.055C256.729 131.763 256.305 131.617 255.727 131.617C255.258 131.617 254.846 131.742 254.492 131.992C254.138 132.242 253.862 132.57 253.664 132.977V139H252.219V127H253.664V131.57ZM267.766 136.883L269.734 130.547H271.281L267.883 140.305C267.357 141.711 266.521 142.414 265.375 142.414L265.102 142.391L264.562 142.289V141.117L264.953 141.148C265.443 141.148 265.823 141.049 266.094 140.852C266.37 140.654 266.596 140.292 266.773 139.766L267.094 138.906L264.078 130.547H265.656L267.766 136.883ZM272.07 134.695C272.07 133.867 272.232 133.122 272.555 132.461C272.883 131.799 273.336 131.289 273.914 130.93C274.497 130.57 275.161 130.391 275.906 130.391C277.057 130.391 277.987 130.789 278.695 131.586C279.409 132.383 279.766 133.443 279.766 134.766V134.867C279.766 135.69 279.607 136.43 279.289 137.086C278.977 137.737 278.526 138.245 277.938 138.609C277.354 138.974 276.682 139.156 275.922 139.156C274.776 139.156 273.846 138.758 273.133 137.961C272.424 137.164 272.07 136.109 272.07 134.797V134.695ZM273.523 134.867C273.523 135.805 273.74 136.557 274.172 137.125C274.609 137.693 275.193 137.977 275.922 137.977C276.656 137.977 277.24 137.69 277.672 137.117C278.104 136.539 278.32 135.732 278.32 134.695C278.32 133.768 278.099 133.018 277.656 132.445C277.219 131.867 276.635 131.578 275.906 131.578C275.193 131.578 274.617 131.862 274.18 132.43C273.742 132.997 273.523 133.81 273.523 134.867ZM286.797 138.164C286.234 138.826 285.409 139.156 284.32 139.156C283.419 139.156 282.732 138.896 282.258 138.375C281.789 137.849 281.552 137.073 281.547 136.047V130.547H282.992V136.008C282.992 137.289 283.513 137.93 284.555 137.93C285.659 137.93 286.393 137.518 286.758 136.695V130.547H288.203V139H286.828L286.797 138.164ZM294.492 131.844C294.273 131.807 294.036 131.789 293.781 131.789C292.833 131.789 292.19 132.193 291.852 133V139H290.406V130.547H291.812L291.836 131.523C292.31 130.768 292.982 130.391 293.852 130.391C294.133 130.391 294.346 130.427 294.492 130.5V131.844ZM305.016 138.164C304.453 138.826 303.628 139.156 302.539 139.156C301.638 139.156 300.951 138.896 300.477 138.375C300.008 137.849 299.771 137.073 299.766 136.047V130.547H301.211V136.008C301.211 137.289 301.732 137.93 302.773 137.93C303.878 137.93 304.612 137.518 304.977 136.695V130.547H306.422V139H305.047L305.016 138.164ZM313.547 136.758C313.547 136.367 313.398 136.065 313.102 135.852C312.81 135.633 312.297 135.445 311.562 135.289C310.833 135.133 310.253 134.945 309.82 134.727C309.393 134.508 309.076 134.247 308.867 133.945C308.664 133.643 308.562 133.284 308.562 132.867C308.562 132.174 308.854 131.589 309.438 131.109C310.026 130.63 310.776 130.391 311.688 130.391C312.646 130.391 313.422 130.638 314.016 131.133C314.615 131.628 314.914 132.26 314.914 133.031H313.461C313.461 132.635 313.292 132.294 312.953 132.008C312.62 131.721 312.198 131.578 311.688 131.578C311.161 131.578 310.75 131.693 310.453 131.922C310.156 132.151 310.008 132.451 310.008 132.82C310.008 133.169 310.146 133.432 310.422 133.609C310.698 133.786 311.195 133.956 311.914 134.117C312.638 134.279 313.224 134.471 313.672 134.695C314.12 134.919 314.451 135.19 314.664 135.508C314.883 135.82 314.992 136.203 314.992 136.656C314.992 137.411 314.69 138.018 314.086 138.477C313.482 138.93 312.698 139.156 311.734 139.156C311.057 139.156 310.458 139.036 309.938 138.797C309.417 138.557 309.008 138.224 308.711 137.797C308.419 137.365 308.273 136.898 308.273 136.398H309.719C309.745 136.883 309.938 137.268 310.297 137.555C310.661 137.836 311.141 137.977 311.734 137.977C312.281 137.977 312.719 137.867 313.047 137.648C313.38 137.424 313.547 137.128 313.547 136.758ZM320.383 139.156C319.237 139.156 318.305 138.781 317.586 138.031C316.867 137.276 316.508 136.268 316.508 135.008V134.742C316.508 133.904 316.667 133.156 316.984 132.5C317.307 131.839 317.755 131.323 318.328 130.953C318.906 130.578 319.531 130.391 320.203 130.391C321.302 130.391 322.156 130.753 322.766 131.477C323.375 132.201 323.68 133.237 323.68 134.586V135.188H317.953C317.974 136.021 318.216 136.695 318.68 137.211C319.148 137.721 319.742 137.977 320.461 137.977C320.971 137.977 321.404 137.872 321.758 137.664C322.112 137.456 322.422 137.18 322.688 136.836L323.57 137.523C322.862 138.612 321.799 139.156 320.383 139.156ZM320.203 131.578C319.62 131.578 319.13 131.792 318.734 132.219C318.339 132.641 318.094 133.234 318 134H322.234V133.891C322.193 133.156 321.995 132.589 321.641 132.188C321.286 131.781 320.807 131.578 320.203 131.578ZM329.445 131.844C329.227 131.807 328.99 131.789 328.734 131.789C327.786 131.789 327.143 132.193 326.805 133V139H325.359V130.547H326.766L326.789 131.523C327.263 130.768 327.935 130.391 328.805 130.391C329.086 130.391 329.299 130.427 329.445 130.5V131.844ZM336.117 130.547L336.164 131.609C336.81 130.797 337.654 130.391 338.695 130.391C340.482 130.391 341.383 131.398 341.398 133.414V139H339.953V133.406C339.948 132.797 339.807 132.346 339.531 132.055C339.26 131.763 338.836 131.617 338.258 131.617C337.789 131.617 337.378 131.742 337.023 131.992C336.669 132.242 336.393 132.57 336.195 132.977V139H334.75V130.547H336.117ZM347.086 139.156C345.94 139.156 345.008 138.781 344.289 138.031C343.57 137.276 343.211 136.268 343.211 135.008V134.742C343.211 133.904 343.37 133.156 343.688 132.5C344.01 131.839 344.458 131.323 345.031 130.953C345.609 130.578 346.234 130.391 346.906 130.391C348.005 130.391 348.859 130.753 349.469 131.477C350.078 132.201 350.383 133.237 350.383 134.586V135.188H344.656C344.677 136.021 344.919 136.695 345.383 137.211C345.852 137.721 346.445 137.977 347.164 137.977C347.674 137.977 348.107 137.872 348.461 137.664C348.815 137.456 349.125 137.18 349.391 136.836L350.273 137.523C349.565 138.612 348.503 139.156 347.086 139.156ZM346.906 131.578C346.323 131.578 345.833 131.792 345.438 132.219C345.042 132.641 344.797 133.234 344.703 134H348.938V133.891C348.896 133.156 348.698 132.589 348.344 132.188C347.99 131.781 347.51 131.578 346.906 131.578ZM355.57 139.156C354.424 139.156 353.492 138.781 352.773 138.031C352.055 137.276 351.695 136.268 351.695 135.008V134.742C351.695 133.904 351.854 133.156 352.172 132.5C352.495 131.839 352.943 131.323 353.516 130.953C354.094 130.578 354.719 130.391 355.391 130.391C356.49 130.391 357.344 130.753 357.953 131.477C358.562 132.201 358.867 133.237 358.867 134.586V135.188H353.141C353.161 136.021 353.404 136.695 353.867 137.211C354.336 137.721 354.93 137.977 355.648 137.977C356.159 137.977 356.591 137.872 356.945 137.664C357.299 137.456 357.609 137.18 357.875 136.836L358.758 137.523C358.049 138.612 356.987 139.156 355.57 139.156ZM355.391 131.578C354.807 131.578 354.318 131.792 353.922 132.219C353.526 132.641 353.281 133.234 353.188 134H357.422V133.891C357.38 133.156 357.182 132.589 356.828 132.188C356.474 131.781 355.995 131.578 355.391 131.578ZM360.195 134.703C360.195 133.406 360.503 132.365 361.117 131.578C361.732 130.786 362.536 130.391 363.531 130.391C364.521 130.391 365.305 130.729 365.883 131.406V127H367.328V139H366L365.93 138.094C365.352 138.802 364.547 139.156 363.516 139.156C362.536 139.156 361.737 138.755 361.117 137.953C360.503 137.151 360.195 136.104 360.195 134.812V134.703ZM361.641 134.867C361.641 135.826 361.839 136.576 362.234 137.117C362.63 137.659 363.177 137.93 363.875 137.93C364.792 137.93 365.461 137.518 365.883 136.695V132.812C365.451 132.016 364.786 131.617 363.891 131.617C363.182 131.617 362.63 131.891 362.234 132.438C361.839 132.984 361.641 133.794 361.641 134.867ZM374.5 136.758C374.5 136.367 374.352 136.065 374.055 135.852C373.763 135.633 373.25 135.445 372.516 135.289C371.786 135.133 371.206 134.945 370.773 134.727C370.346 134.508 370.029 134.247 369.82 133.945C369.617 133.643 369.516 133.284 369.516 132.867C369.516 132.174 369.807 131.589 370.391 131.109C370.979 130.63 371.729 130.391 372.641 130.391C373.599 130.391 374.375 130.638 374.969 131.133C375.568 131.628 375.867 132.26 375.867 133.031H374.414C374.414 132.635 374.245 132.294 373.906 132.008C373.573 131.721 373.151 131.578 372.641 131.578C372.115 131.578 371.703 131.693 371.406 131.922C371.109 132.151 370.961 132.451 370.961 132.82C370.961 133.169 371.099 133.432 371.375 133.609C371.651 133.786 372.148 133.956 372.867 134.117C373.591 134.279 374.177 134.471 374.625 134.695C375.073 134.919 375.404 135.19 375.617 135.508C375.836 135.82 375.945 136.203 375.945 136.656C375.945 137.411 375.643 138.018 375.039 138.477C374.435 138.93 373.651 139.156 372.688 139.156C372.01 139.156 371.411 139.036 370.891 138.797C370.37 138.557 369.961 138.224 369.664 137.797C369.372 137.365 369.227 136.898 369.227 136.398H370.672C370.698 136.883 370.891 137.268 371.25 137.555C371.615 137.836 372.094 137.977 372.688 137.977C373.234 137.977 373.672 137.867 374 137.648C374.333 137.424 374.5 137.128 374.5 136.758ZM387.016 139C386.932 138.833 386.865 138.536 386.812 138.109C386.141 138.807 385.339 139.156 384.406 139.156C383.573 139.156 382.888 138.922 382.352 138.453C381.82 137.979 381.555 137.38 381.555 136.656C381.555 135.776 381.888 135.094 382.555 134.609C383.227 134.12 384.169 133.875 385.383 133.875H386.789V133.211C386.789 132.706 386.638 132.305 386.336 132.008C386.034 131.706 385.589 131.555 385 131.555C384.484 131.555 384.052 131.685 383.703 131.945C383.354 132.206 383.18 132.521 383.18 132.891H381.727C381.727 132.469 381.875 132.062 382.172 131.672C382.474 131.276 382.88 130.964 383.391 130.734C383.906 130.505 384.471 130.391 385.086 130.391C386.06 130.391 386.823 130.635 387.375 131.125C387.927 131.609 388.214 132.279 388.234 133.133V137.023C388.234 137.799 388.333 138.417 388.531 138.875V139H387.016ZM384.617 137.898C385.07 137.898 385.5 137.781 385.906 137.547C386.312 137.312 386.607 137.008 386.789 136.633V134.898H385.656C383.885 134.898 383 135.417 383 136.453C383 136.906 383.151 137.26 383.453 137.516C383.755 137.771 384.143 137.898 384.617 137.898ZM391.867 130.547L391.914 131.609C392.56 130.797 393.404 130.391 394.445 130.391C396.232 130.391 397.133 131.398 397.148 133.414V139H395.703V133.406C395.698 132.797 395.557 132.346 395.281 132.055C395.01 131.763 394.586 131.617 394.008 131.617C393.539 131.617 393.128 131.742 392.773 131.992C392.419 132.242 392.143 132.57 391.945 132.977V139H390.5V130.547H391.867ZM398.977 134.703C398.977 133.406 399.284 132.365 399.898 131.578C400.513 130.786 401.318 130.391 402.312 130.391C403.302 130.391 404.086 130.729 404.664 131.406V127H406.109V139H404.781L404.711 138.094C404.133 138.802 403.328 139.156 402.297 139.156C401.318 139.156 400.518 138.755 399.898 137.953C399.284 137.151 398.977 136.104 398.977 134.812V134.703ZM400.422 134.867C400.422 135.826 400.62 136.576 401.016 137.117C401.411 137.659 401.958 137.93 402.656 137.93C403.573 137.93 404.242 137.518 404.664 136.695V132.812C404.232 132.016 403.568 131.617 402.672 131.617C401.964 131.617 401.411 131.891 401.016 132.438C400.62 132.984 400.422 133.794 400.422 134.867ZM48.25 164.867C48.25 166.159 47.9531 167.198 47.3594 167.984C46.7656 168.766 45.9688 169.156 44.9688 169.156C43.901 169.156 43.0755 168.779 42.4922 168.023L42.4219 169H41.0938V157H42.5391V161.477C43.1224 160.753 43.9271 160.391 44.9531 160.391C45.9792 160.391 46.7839 160.779 47.3672 161.555C47.9557 162.331 48.25 163.393 48.25 164.742V164.867ZM46.8047 164.703C46.8047 163.719 46.6146 162.958 46.2344 162.422C45.8542 161.885 45.3073 161.617 44.5938 161.617C43.6406 161.617 42.9557 162.06 42.5391 162.945V166.602C42.9818 167.487 43.6719 167.93 44.6094 167.93C45.3021 167.93 45.8411 167.661 46.2266 167.125C46.612 166.589 46.8047 165.781 46.8047 164.703ZM55.2969 168.164C54.7344 168.826 53.9089 169.156 52.8203 169.156C51.9193 169.156 51.2318 168.896 50.7578 168.375C50.2891 167.849 50.0521 167.073 50.0469 166.047V160.547H51.4922V166.008C51.4922 167.289 52.013 167.93 53.0547 167.93C54.1589 167.93 54.8932 167.518 55.2578 166.695V160.547H56.7031V169H55.3281L55.2969 168.164ZM63.8281 166.758C63.8281 166.367 63.6797 166.065 63.3828 165.852C63.0911 165.633 62.5781 165.445 61.8438 165.289C61.1146 165.133 60.5339 164.945 60.1016 164.727C59.6745 164.508 59.3568 164.247 59.1484 163.945C58.9453 163.643 58.8438 163.284 58.8438 162.867C58.8438 162.174 59.1354 161.589 59.7188 161.109C60.3073 160.63 61.0573 160.391 61.9688 160.391C62.9271 160.391 63.7031 160.638 64.2969 161.133C64.8958 161.628 65.1953 162.26 65.1953 163.031H63.7422C63.7422 162.635 63.5729 162.294 63.2344 162.008C62.901 161.721 62.4792 161.578 61.9688 161.578C61.4427 161.578 61.0312 161.693 60.7344 161.922C60.4375 162.151 60.2891 162.451 60.2891 162.82C60.2891 163.169 60.4271 163.432 60.7031 163.609C60.9792 163.786 61.4766 163.956 62.1953 164.117C62.9193 164.279 63.5052 164.471 63.9531 164.695C64.401 164.919 64.7318 165.19 64.9453 165.508C65.1641 165.82 65.2734 166.203 65.2734 166.656C65.2734 167.411 64.9714 168.018 64.3672 168.477C63.763 168.93 62.9792 169.156 62.0156 169.156C61.3385 169.156 60.7396 169.036 60.2188 168.797C59.6979 168.557 59.2891 168.224 58.9922 167.797C58.7005 167.365 58.5547 166.898 58.5547 166.398H60C60.026 166.883 60.2188 167.268 60.5781 167.555C60.9427 167.836 61.4219 167.977 62.0156 167.977C62.5625 167.977 63 167.867 63.3281 167.648C63.6615 167.424 63.8281 167.128 63.8281 166.758ZM68.7266 169H67.2812V160.547H68.7266V169ZM67.1641 158.305C67.1641 158.07 67.2344 157.872 67.375 157.711C67.5208 157.549 67.7344 157.469 68.0156 157.469C68.2969 157.469 68.5104 157.549 68.6562 157.711C68.8021 157.872 68.875 158.07 68.875 158.305C68.875 158.539 68.8021 158.734 68.6562 158.891C68.5104 159.047 68.2969 159.125 68.0156 159.125C67.7344 159.125 67.5208 159.047 67.375 158.891C67.2344 158.734 67.1641 158.539 67.1641 158.305ZM72.4141 160.547L72.4609 161.609C73.1068 160.797 73.9505 160.391 74.9922 160.391C76.7786 160.391 77.6797 161.398 77.6953 163.414V169H76.25V163.406C76.2448 162.797 76.1042 162.346 75.8281 162.055C75.5573 161.763 75.1328 161.617 74.5547 161.617C74.0859 161.617 73.6745 161.742 73.3203 161.992C72.9661 162.242 72.6901 162.57 72.4922 162.977V169H71.0469V160.547H72.4141ZM83.3828 169.156C82.237 169.156 81.3047 168.781 80.5859 168.031C79.8672 167.276 79.5078 166.268 79.5078 165.008V164.742C79.5078 163.904 79.6667 163.156 79.9844 162.5C80.3073 161.839 80.7552 161.323 81.3281 160.953C81.9062 160.578 82.5312 160.391 83.2031 160.391C84.3021 160.391 85.1562 160.753 85.7656 161.477C86.375 162.201 86.6797 163.237 86.6797 164.586V165.188H80.9531C80.974 166.021 81.2161 166.695 81.6797 167.211C82.1484 167.721 82.7422 167.977 83.4609 167.977C83.9714 167.977 84.4036 167.872 84.7578 167.664C85.112 167.456 85.4219 167.18 85.6875 166.836L86.5703 167.523C85.862 168.612 84.7995 169.156 83.3828 169.156ZM83.2031 161.578C82.6198 161.578 82.1302 161.792 81.7344 162.219C81.3385 162.641 81.0938 163.234 81 164H85.2344V163.891C85.1927 163.156 84.9948 162.589 84.6406 162.188C84.2865 161.781 83.8073 161.578 83.2031 161.578ZM93.2812 166.758C93.2812 166.367 93.1328 166.065 92.8359 165.852C92.5443 165.633 92.0312 165.445 91.2969 165.289C90.5677 165.133 89.987 164.945 89.5547 164.727C89.1276 164.508 88.8099 164.247 88.6016 163.945C88.3984 163.643 88.2969 163.284 88.2969 162.867C88.2969 162.174 88.5885 161.589 89.1719 161.109C89.7604 160.63 90.5104 160.391 91.4219 160.391C92.3802 160.391 93.1562 160.638 93.75 161.133C94.349 161.628 94.6484 162.26 94.6484 163.031H93.1953C93.1953 162.635 93.026 162.294 92.6875 162.008C92.3542 161.721 91.9323 161.578 91.4219 161.578C90.8958 161.578 90.4844 161.693 90.1875 161.922C89.8906 162.151 89.7422 162.451 89.7422 162.82C89.7422 163.169 89.8802 163.432 90.1562 163.609C90.4323 163.786 90.9297 163.956 91.6484 164.117C92.3724 164.279 92.9583 164.471 93.4062 164.695C93.8542 164.919 94.1849 165.19 94.3984 165.508C94.6172 165.82 94.7266 166.203 94.7266 166.656C94.7266 167.411 94.4245 168.018 93.8203 168.477C93.2161 168.93 92.4323 169.156 91.4688 169.156C90.7917 169.156 90.1927 169.036 89.6719 168.797C89.151 168.557 88.7422 168.224 88.4453 167.797C88.1536 167.365 88.0078 166.898 88.0078 166.398H89.4531C89.4792 166.883 89.6719 167.268 90.0312 167.555C90.3958 167.836 90.875 167.977 91.4688 167.977C92.0156 167.977 92.4531 167.867 92.7812 167.648C93.1146 167.424 93.2812 167.128 93.2812 166.758ZM101.531 166.758C101.531 166.367 101.383 166.065 101.086 165.852C100.794 165.633 100.281 165.445 99.5469 165.289C98.8177 165.133 98.237 164.945 97.8047 164.727C97.3776 164.508 97.0599 164.247 96.8516 163.945C96.6484 163.643 96.5469 163.284 96.5469 162.867C96.5469 162.174 96.8385 161.589 97.4219 161.109C98.0104 160.63 98.7604 160.391 99.6719 160.391C100.63 160.391 101.406 160.638 102 161.133C102.599 161.628 102.898 162.26 102.898 163.031H101.445C101.445 162.635 101.276 162.294 100.938 162.008C100.604 161.721 100.182 161.578 99.6719 161.578C99.1458 161.578 98.7344 161.693 98.4375 161.922C98.1406 162.151 97.9922 162.451 97.9922 162.82C97.9922 163.169 98.1302 163.432 98.4062 163.609C98.6823 163.786 99.1797 163.956 99.8984 164.117C100.622 164.279 101.208 164.471 101.656 164.695C102.104 164.919 102.435 165.19 102.648 165.508C102.867 165.82 102.977 166.203 102.977 166.656C102.977 167.411 102.674 168.018 102.07 168.477C101.466 168.93 100.682 169.156 99.7188 169.156C99.0417 169.156 98.4427 169.036 97.9219 168.797C97.401 168.557 96.9922 168.224 96.6953 167.797C96.4036 167.365 96.2578 166.898 96.2578 166.398H97.7031C97.7292 166.883 97.9219 167.268 98.2812 167.555C98.6458 167.836 99.125 167.977 99.7188 167.977C100.266 167.977 100.703 167.867 101.031 167.648C101.365 167.424 101.531 167.128 101.531 166.758ZM108.484 164.703C108.484 163.385 108.789 162.339 109.398 161.562C110.008 160.781 110.815 160.391 111.82 160.391C112.852 160.391 113.656 160.755 114.234 161.484L114.305 160.547H115.625V168.797C115.625 169.891 115.299 170.753 114.648 171.383C114.003 172.013 113.133 172.328 112.039 172.328C111.43 172.328 110.833 172.198 110.25 171.938C109.667 171.677 109.221 171.32 108.914 170.867L109.664 170C110.284 170.766 111.042 171.148 111.938 171.148C112.641 171.148 113.188 170.951 113.578 170.555C113.974 170.159 114.172 169.602 114.172 168.883V168.156C113.594 168.823 112.805 169.156 111.805 169.156C110.815 169.156 110.013 168.758 109.398 167.961C108.789 167.164 108.484 166.078 108.484 164.703ZM109.938 164.867C109.938 165.82 110.133 166.57 110.523 167.117C110.914 167.659 111.461 167.93 112.164 167.93C113.076 167.93 113.745 167.516 114.172 166.688V162.828C113.729 162.021 113.065 161.617 112.18 161.617C111.477 161.617 110.927 161.891 110.531 162.438C110.135 162.984 109.938 163.794 109.938 164.867ZM117.43 164.695C117.43 163.867 117.591 163.122 117.914 162.461C118.242 161.799 118.695 161.289 119.273 160.93C119.857 160.57 120.521 160.391 121.266 160.391C122.417 160.391 123.346 160.789 124.055 161.586C124.768 162.383 125.125 163.443 125.125 164.766V164.867C125.125 165.69 124.966 166.43 124.648 167.086C124.336 167.737 123.885 168.245 123.297 168.609C122.714 168.974 122.042 169.156 121.281 169.156C120.135 169.156 119.206 168.758 118.492 167.961C117.784 167.164 117.43 166.109 117.43 164.797V164.695ZM118.883 164.867C118.883 165.805 119.099 166.557 119.531 167.125C119.969 167.693 120.552 167.977 121.281 167.977C122.016 167.977 122.599 167.69 123.031 167.117C123.464 166.539 123.68 165.732 123.68 164.695C123.68 163.768 123.458 163.018 123.016 162.445C122.578 161.867 121.995 161.578 121.266 161.578C120.552 161.578 119.977 161.862 119.539 162.43C119.102 162.997 118.883 163.81 118.883 164.867ZM132.156 169C132.073 168.833 132.005 168.536 131.953 168.109C131.281 168.807 130.479 169.156 129.547 169.156C128.714 169.156 128.029 168.922 127.492 168.453C126.961 167.979 126.695 167.38 126.695 166.656C126.695 165.776 127.029 165.094 127.695 164.609C128.367 164.12 129.31 163.875 130.523 163.875H131.93V163.211C131.93 162.706 131.779 162.305 131.477 162.008C131.174 161.706 130.729 161.555 130.141 161.555C129.625 161.555 129.193 161.685 128.844 161.945C128.495 162.206 128.32 162.521 128.32 162.891H126.867C126.867 162.469 127.016 162.062 127.312 161.672C127.615 161.276 128.021 160.964 128.531 160.734C129.047 160.505 129.612 160.391 130.227 160.391C131.201 160.391 131.964 160.635 132.516 161.125C133.068 161.609 133.354 162.279 133.375 163.133V167.023C133.375 167.799 133.474 168.417 133.672 168.875V169H132.156ZM129.758 167.898C130.211 167.898 130.641 167.781 131.047 167.547C131.453 167.312 131.747 167.008 131.93 166.633V164.898H130.797C129.026 164.898 128.141 165.417 128.141 166.453C128.141 166.906 128.292 167.26 128.594 167.516C128.896 167.771 129.284 167.898 129.758 167.898ZM137.211 169H135.766V157H137.211V169ZM144.453 166.758C144.453 166.367 144.305 166.065 144.008 165.852C143.716 165.633 143.203 165.445 142.469 165.289C141.74 165.133 141.159 164.945 140.727 164.727C140.299 164.508 139.982 164.247 139.773 163.945C139.57 163.643 139.469 163.284 139.469 162.867C139.469 162.174 139.76 161.589 140.344 161.109C140.932 160.63 141.682 160.391 142.594 160.391C143.552 160.391 144.328 160.638 144.922 161.133C145.521 161.628 145.82 162.26 145.82 163.031H144.367C144.367 162.635 144.198 162.294 143.859 162.008C143.526 161.721 143.104 161.578 142.594 161.578C142.068 161.578 141.656 161.693 141.359 161.922C141.062 162.151 140.914 162.451 140.914 162.82C140.914 163.169 141.052 163.432 141.328 163.609C141.604 163.786 142.102 163.956 142.82 164.117C143.544 164.279 144.13 164.471 144.578 164.695C145.026 164.919 145.357 165.19 145.57 165.508C145.789 165.82 145.898 166.203 145.898 166.656C145.898 167.411 145.596 168.018 144.992 168.477C144.388 168.93 143.604 169.156 142.641 169.156C141.964 169.156 141.365 169.036 140.844 168.797C140.323 168.557 139.914 168.224 139.617 167.797C139.326 167.365 139.18 166.898 139.18 166.398H140.625C140.651 166.883 140.844 167.268 141.203 167.555C141.568 167.836 142.047 167.977 142.641 167.977C143.188 167.977 143.625 167.867 143.953 167.648C144.286 167.424 144.453 167.128 144.453 166.758ZM147.812 168.242C147.812 167.992 147.885 167.784 148.031 167.617C148.182 167.451 148.406 167.367 148.703 167.367C149 167.367 149.224 167.451 149.375 167.617C149.531 167.784 149.609 167.992 149.609 168.242C149.609 168.482 149.531 168.682 149.375 168.844C149.224 169.005 149 169.086 148.703 169.086C148.406 169.086 148.182 169.005 148.031 168.844C147.885 168.682 147.812 168.482 147.812 168.242Z" fill="#737373"/>
</svg>
